<?xml version="1.0" encoding="utf-8"?>
<!-- Generator: Adobe Illustrator 16.0.3, SVG Export Plug-In . SVG Version: 6.00 Build 0)  -->
<!DOCTYPE svg PUBLIC "-//W3C//DTD SVG 1.1//EN" "http://www.w3.org/Graphics/SVG/1.1/DTD/svg11.dtd">
<svg version="1.1" id="Layer_1" xmlns="http://www.w3.org/2000/svg" xmlns:xlink="http://www.w3.org/1999/xlink" x="0px" y="0px"
	 width="391px" height="4px" viewBox="0 0 391 4" enable-background="new 0 0 391 4" xml:space="preserve">
<g>
	<g>
		<rect x="383" fill="#33CCFF" width="8" height="4"/>
	</g>
	<g>
		<path fill="#33CCFF" d="M366.696,4h-16.305V0h16.305V4z M334.088,4h-16.305V0h16.305V4z M301.479,4h-16.304V0h16.304V4z M268.87,4
			h-16.305V0h16.305V4z M236.262,4h-16.305V0h16.305V4z M203.652,4h-16.304V0h16.304V4z M171.044,4H154.74V0h16.304V4z M138.436,4
			h-16.305V0h16.305V4z M105.827,4H89.522V0h16.305V4z M73.218,4H56.914V0h16.304V4z M40.609,4H24.305V0h16.305V4z"/>
	</g>
	<g>
		<rect fill="#33CCFF" width="8" height="4"/>
	</g>
</g>
</svg>
