<?xml version="1.0" encoding="utf-8"?>
<!-- Generator: Adobe Illustrator 18.1.1, SVG Export Plug-In . SVG Version: 6.00 Build 0)  -->
<svg version="1.1" id="Layer_1" xmlns="http://www.w3.org/2000/svg" xmlns:xlink="http://www.w3.org/1999/xlink" x="0px" y="0px"
	 width="58.212px" height="58.183px" viewBox="0 0 58.212 58.183" enable-background="new 0 0 58.212 58.183" xml:space="preserve">
<path fill="#33CCFF" d="M57.703,34.653L57.703,34.653c0.33-1.799,0.509-3.661,0.509-5.576c0-3.3-0.519-6.444-1.469-9.369
	c0-0.001,0-0.001,0-0.002l0,0c-0.41-1.262-0.899-2.484-1.467-3.658v0c-0.001-0.002-0.002-0.004-0.003-0.006
	c-0.848-1.751-1.867-3.395-3.035-4.916l0,0c0-0.001-0.001-0.001-0.002-0.002c-0.406-0.528-0.828-1.043-1.27-1.54
	c-0.002-0.003-0.004-0.005-0.006-0.008v0c-1.247-1.403-2.629-2.68-4.133-3.811c-0.002-0.001-0.003-0.003-0.005-0.004v0
	c-1.534-1.153-3.189-2.157-4.952-2.988c-0.001,0-0.002-0.001-0.003-0.001v0c-3.158-1.488-6.655-2.421-10.375-2.704l0,0
	c-0.002,0-0.004,0-0.007,0C31.109,0.04,30.734,0.015,30.356,0c-0.414-0.019-0.83-0.03-1.25-0.03c-0.119,0-0.236,0.007-0.355,0.009
	l0,0c-2.625,0.029-5.149,0.384-7.541,1.024c-0.104,0.028-0.208,0.057-0.312,0.086C11.233,3.792,3.823,11.201,1.119,20.866
	c-0.029,0.106-0.059,0.211-0.087,0.317c-0.159,0.595-0.305,1.195-0.428,1.806C0.602,22.995,0.601,23,0.6,23.005l0,0
	c-0.37,1.84-0.569,3.751-0.592,5.717v0C0.007,28.841,0,28.958,0,29.077c0,0.419,0.011,0.835,0.03,1.249
	c0.076,1.924,0.329,3.79,0.74,5.587v0c0,0.002,0.001,0.004,0.001,0.005c0.172,0.752,0.37,1.493,0.597,2.22
	c0,0.001,0,0.003,0.001,0.004v0c0.992,3.17,2.495,6.083,4.422,8.648l0,0c0,0,0,0,0,0.001c0.402,0.536,0.827,1.053,1.265,1.558
	c0,0.001,0.001,0.001,0.002,0.002l0,0c1.232,1.417,2.603,2.708,4.095,3.855c0.001,0,0.001,0.001,0.002,0.002v0
	c1.522,1.169,3.167,2.189,4.921,3.038c0,0,0,0,0,0l0,0c1.844,0.893,3.804,1.598,5.859,2.093c0,0,0,0,0,0l0,0
	c1.426,0.343,2.897,0.584,4.407,0.718l0,0c0.005,0,0.01,0.001,0.016,0.001c0.903,0.079,1.818,0.125,2.747,0.125
	c1.915,0,3.776-0.179,5.575-0.509v0c0.001,0,0.002,0,0.002,0c10.537-1.935,18.833-9.292,22.062-19.235v0c0-0.001,0-0.001,0-0.002
	c0.397-1.224,0.719-2.486,0.957-3.782C57.703,34.654,57.703,34.653,57.703,34.653z M9.805,9.776c1.587-1.587,3.356-2.948,5.265-4.07
	L5.737,15.04C6.858,13.131,8.219,11.363,9.805,9.776z M3.416,20.189L20.219,3.385c2.056-0.679,4.211-1.12,6.433-1.307L2.108,26.622
	C2.295,24.4,2.736,22.244,3.416,20.189z M2.011,29.548L29.577,1.981c1.589,0.025,3.151,0.177,4.673,0.452L2.463,34.22
	C2.188,32.698,2.036,31.136,2.011,29.548z M36.556,2.955c1.303,0.353,2.569,0.798,3.792,1.334l-36.03,36.03
	c-0.536-1.223-0.981-2.489-1.333-3.792L36.556,2.955z M5.241,42.224L42.253,5.212c1.09,0.585,2.141,1.242,3.14,1.976L7.217,45.364
	C6.483,44.365,5.826,43.314,5.241,42.224z M46.962,8.447c0.494,0.426,0.979,0.864,1.444,1.329c0.394,0.394,0.769,0.803,1.135,1.218
	L11.023,49.512c-0.416-0.366-0.824-0.741-1.218-1.135c-0.465-0.465-0.903-0.95-1.329-1.444L46.962,8.447z M50.811,12.552
	c0.746,0.991,1.417,2.033,2.015,3.117L15.698,52.797c-1.084-0.597-2.125-1.269-3.117-2.015L50.811,12.552z M53.771,17.552
	c0.547,1.21,1.004,2.464,1.37,3.755L21.335,55.112c-1.291-0.366-2.545-0.824-3.755-1.37L53.771,17.552z M23.616,55.66l32.072-32.072
	c0.292,1.504,0.457,3.05,0.503,4.622L28.238,56.163C26.666,56.117,25.121,55.951,23.616,55.66z M31.123,56.106l25.012-25.012
	c-0.149,2.161-0.534,4.263-1.147,6.273L37.396,54.96C35.386,55.573,33.284,55.957,31.123,56.106z M48.406,48.377
	c-1.837,1.837-3.918,3.369-6.179,4.579l10.757-10.757C51.775,44.459,50.243,46.541,48.406,48.377z"/>
</svg>
