<?xml version="1.0" encoding="utf-8"?>
<!-- Generator: Adobe Illustrator 16.0.3, SVG Export Plug-In . SVG Version: 6.00 Build 0)  -->
<!DOCTYPE svg PUBLIC "-//W3C//DTD SVG 1.1//EN" "http://www.w3.org/Graphics/SVG/1.1/DTD/svg11.dtd">
<svg version="1.1" id="Layer_1" xmlns="http://www.w3.org/2000/svg" xmlns:xlink="http://www.w3.org/1999/xlink" x="0px" y="0px"
	 width="389.906px" height="282.592px" viewBox="0 0 389.906 282.592" enable-background="new 0 0 389.906 282.592"
	 xml:space="preserve">
<g>
	<path fill="#FFFFFF" d="M99.086,245.748c-10.73,23.966-28.616,36.844-51.152,36.844c-15.024,0-22.536-5.365-22.536-16.813
		c0-11.805,6.797-16.454,29.333-20.031c19.674-3.22,27.901-9.301,36.844-27.187l12.521-25.04L35.414,44.355
		C23.251,17.886,18.959,13.95,0,12.52V0h94.794v12.52c-16.455,0-23.967,3.577-23.967,11.805c0,6.081,4.293,21.104,10.016,35.056
		l39.349,95.151h1.788l32.552-80.485c12.878-31.121,15.024-37.917,15.024-45.787c0-12.52-5.366-15.739-25.04-15.739V0h78.696v12.52
		c-17.885,0-22.894,6.438-46.145,59.738L99.086,245.748z"/>
	<path fill="#FFFFFF" d="M383.825,189.587H212.123v-1.431L335.892,15.023h-39.706c-40.779,0-50.795,5.008-55.803,34.341h-11.447
		L234.659,0h153.816v1.431l-121.98,171.701h41.853c49.007,0,61.169-6.081,69.754-38.99h11.805L383.825,189.587z"/>
</g>
</svg>
