<?xml version="1.0" encoding="utf-8"?>
<!-- Generator: Adobe Illustrator 16.0.3, SVG Export Plug-In . SVG Version: 6.00 Build 0)  -->
<!DOCTYPE svg PUBLIC "-//W3C//DTD SVG 1.1//EN" "http://www.w3.org/Graphics/SVG/1.1/DTD/svg11.dtd">
<svg version="1.1" id="Layer_1" xmlns="http://www.w3.org/2000/svg" xmlns:xlink="http://www.w3.org/1999/xlink" x="0px" y="0px"
	 width="110.015px" height="134.08px" viewBox="0 0 110.015 134.08" enable-background="new 0 0 110.015 134.08"
	 xml:space="preserve">
<path fill="#33CCFF" d="M110.015,134.08V0H92.826c0,39.782-22.103,56.48-92.826,56.48v19.646
	c73.671,0.49,92.826,18.662,92.826,57.953H110.015z M108.015,132.08h-2.179l2.179-2.179V132.08z M108.015,127.073l-5.007,5.007
	h-5.126l10.133-10.133V127.073z M94.807,2h2.839l-2.946,2.946C94.748,3.978,94.787,2.999,94.807,2z M94.491,7.982L100.474,2h5.125
	L93.74,13.858C94.064,11.968,94.314,10.011,94.491,7.982z M93.031,17.396l14.983-14.983v5.126L90.712,24.841
	C91.65,22.498,92.422,20.019,93.031,17.396z M2,60.7l2.242-2.242c1.77-0.018,3.508-0.047,5.218-0.086L2,65.832V60.7z M2,68.66
	l10.367-10.368c1.813-0.057,3.592-0.127,5.337-0.211L2,73.785V68.66z M4.432,74.182l16.26-16.26c1.875-0.11,3.71-0.236,5.505-0.38
	L9.439,74.298C7.799,74.249,6.13,74.21,4.432,74.182z M12.177,74.39l17.115-17.115c1.96-0.183,3.876-0.385,5.737-0.611
	L17.081,74.611C15.476,74.526,13.842,74.452,12.177,74.39z M19.756,74.765l18.529-18.529c2.096-0.294,4.13-0.615,6.095-0.97
	L24.543,75.103C22.979,74.978,21.383,74.866,19.756,74.765z M27.151,75.322l20.741-20.741c2.338-0.486,4.581-1.018,6.726-1.601
	L31.811,75.788C30.292,75.619,28.736,75.466,27.151,75.322z M34.342,76.085l24.287-24.287c2.97-0.95,5.734-2.01,8.307-3.181
	L38.852,76.7C37.382,76.481,35.882,76.275,34.342,76.085z M41.298,77.082L72.881,45.5c6.654-4.012,11.655-9.038,15.19-15.19
	l19.943-19.943v5.125L45.646,77.86C44.232,77.585,42.784,77.326,41.298,77.082z M47.996,78.338l60.019-60.019v5.125L52.16,79.298
	C50.811,78.962,49.423,78.642,47.996,78.338z M54.404,79.884l53.61-53.611v5.125L58.361,81.05
	C57.082,80.643,55.764,80.254,54.404,79.884z M60.485,81.755l47.529-47.529v5.125L64.213,83.152
	C63.013,82.666,61.77,82.2,60.485,81.755z M66.203,83.99l41.812-41.812v5.117L69.664,85.646
	C68.553,85.073,67.402,84.52,66.203,83.99z M71.5,86.64l36.515-36.516v5.125L74.682,88.583C73.666,87.91,72.605,87.263,71.5,86.64z
	 M76.34,89.752l31.675-31.675v5.369L79.346,92.114C78.394,91.294,77.387,90.511,76.34,89.752z M80.825,93.464l27.189-27.189v5.125
	L83.35,96.065C82.555,95.163,81.709,94.3,80.825,93.464z M84.633,97.61l23.382-23.383v5.125l-21.227,21.227
	C86.116,99.552,85.393,98.565,84.633,97.61z M87.859,102.336l20.155-20.155v5.126l-18.388,18.388
	C89.086,104.532,88.49,103.419,87.859,102.336z M90.477,107.673l17.538-17.538v5.125l-16.169,16.169
	C91.438,110.13,90.973,108.886,90.477,107.673z M92.471,113.632l15.544-15.544v5.125l-14.576,14.576
	C93.163,116.353,92.83,114.979,92.471,113.632z M93.841,120.215l14.174-14.174v5.125l-13.601,13.601
	C94.267,123.198,94.068,121.689,93.841,120.215z M94.809,132.08c-0.027-1.609-0.103-3.159-0.199-4.681l13.405-13.405v5.125
	L95.054,132.08H94.809z"/>
</svg>
