<?xml version="1.0" encoding="utf-8"?>
<!-- Generator: Adobe Illustrator 16.0.3, SVG Export Plug-In . SVG Version: 6.00 Build 0)  -->
<!DOCTYPE svg PUBLIC "-//W3C//DTD SVG 1.1//EN" "http://www.w3.org/Graphics/SVG/1.1/DTD/svg11.dtd">
<svg version="1.1" id="Layer_1" xmlns="http://www.w3.org/2000/svg" xmlns:xlink="http://www.w3.org/1999/xlink" x="0px" y="0px"
	 width="392.5px" height="4px" viewBox="0 0 392.5 4" enable-background="new 0 0 392.5 4" xml:space="preserve">
<g>
	<g>
		<rect x="384.5" fill="#33CCFF" width="8" height="4"/>
	</g>
	<g>
		<path fill="#33CCFF" d="M368.131,4h-16.369V0h16.369V4z M335.392,4h-16.369V0h16.369V4z M302.652,4h-16.369V0h16.369V4z
			 M269.913,4h-16.369V0h16.369V4z M237.175,4h-16.37V0h16.37V4z M204.436,4h-16.37V0h16.37V4z M171.696,4h-16.37V0h16.37V4z
			 M138.957,4h-16.369V0h16.369V4z M106.218,4H89.849V0h16.369V4z M73.479,4H57.109V0h16.369V4z M40.739,4H24.37V0h16.369V4z"/>
	</g>
	<g>
		<rect fill="#33CCFF" width="8" height="4"/>
	</g>
</g>
</svg>
