<?xml version="1.0" encoding="utf-8"?>
<!-- Generator: Adobe Illustrator 16.0.3, SVG Export Plug-In . SVG Version: 6.00 Build 0)  -->
<!DOCTYPE svg PUBLIC "-//W3C//DTD SVG 1.1//EN" "http://www.w3.org/Graphics/SVG/1.1/DTD/svg11.dtd">
<svg version="1.1" id="Layer_1" xmlns="http://www.w3.org/2000/svg" xmlns:xlink="http://www.w3.org/1999/xlink" x="0px" y="0px"
	 width="292.062px" height="263.337px" viewBox="0 0 292.062 263.337" enable-background="new 0 0 292.062 263.337"
	 xml:space="preserve">
<polygon fill="none" points="265.298,1.714 264.038,1.714 264.038,2.974 "/>
<path fill="none" d="M164.643,239.09c43.428,0,73.493-39.132,73.493-105.466c0-65.857-30.544-110.717-76.357-110.717
	c-22.907,0-43.428,10.977-55.834,30.064c-8.113,12.886-12.409,29.112-12.409,56.791v37.223c0,34.361,2.864,47.246,12.886,60.131
	C121.214,227.159,142.689,239.09,164.643,239.09z"/>
<path fill="#FFFFFF" d="M93.535,230.978c20.999,22.43,44.383,31.496,73.493,31.496c71.107,0,125.033-52.973,125.033-130.76
	C292.062,55.358,239.567,0,167.505,0c-31.019,0-53.926,14.795-73.97,39.133h-1.907V1.909L0,20.044v16.225
	c31.497,0,40.563,4.297,43.428,19.566c2.386,8.592,3.341,32.93,3.341,69.676v137.826h46.767V230.978z M93.535,109.763
	c0-27.679,4.296-43.905,12.409-56.791c12.406-19.088,32.927-30.064,55.834-30.064c45.813,0,76.357,44.859,76.357,110.717
	c0,66.334-30.065,105.466-73.493,105.466c-21.953,0-43.429-11.931-58.222-31.974c-10.021-12.885-12.886-25.77-12.886-60.131V109.763
	z"/>
</svg>
