<?xml version="1.0" encoding="utf-8"?>
<!-- Generator: Adobe Illustrator 16.0.3, SVG Export Plug-In . SVG Version: 6.00 Build 0)  -->
<!DOCTYPE svg PUBLIC "-//W3C//DTD SVG 1.1//EN" "http://www.w3.org/Graphics/SVG/1.1/DTD/svg11.dtd">
<svg version="1.1" id="Layer_1" xmlns="http://www.w3.org/2000/svg" xmlns:xlink="http://www.w3.org/1999/xlink" x="0px" y="0px"
	 width="146.985px" height="113.671px" viewBox="0 0 146.985 113.671" enable-background="new 0 0 146.985 113.671"
	 xml:space="preserve">
<path fill="#33CCFF" d="M145.341,96.915c-0.874-0.03-1.737-0.062-2.583-0.097c-1.729-0.071-3.395-0.154-5.009-0.25l0,0
	c-0.902-0.053-1.79-0.109-2.657-0.172l0,0c-1.657-0.117-3.249-0.252-4.782-0.404c-0.863-0.087-1.712-0.178-2.538-0.275l0,0
	c-1.58-0.188-3.088-0.4-4.533-0.64l0,0c-0.82-0.135-1.617-0.279-2.396-0.433l0,0c-1.474-0.289-2.872-0.612-4.2-0.973l0,0
	c-0.748-0.201-1.476-0.414-2.178-0.641c-1.33-0.428-2.58-0.902-3.759-1.424l0,0c-0.659-0.291-1.296-0.597-1.909-0.92l0,0
	c-1.141-0.601-2.203-1.258-3.195-1.977l0,0c-0.549-0.396-1.075-0.813-1.58-1.248l0,0c-0.927-0.799-1.785-1.661-2.574-2.598l0,0
	c-0.431-0.511-0.84-1.044-1.23-1.598l0,0c-0.708-1.002-1.355-2.075-1.945-3.229l0,0c-0.314-0.615-0.613-1.254-0.897-1.915
	c-0.51-1.192-0.969-2.46-1.382-3.807l0,0c-0.22-0.714-0.426-1.448-0.62-2.208l0,0c-0.344-1.344-0.649-2.76-0.919-4.254l0,0
	c-0.141-0.778-0.271-1.584-0.393-2.405c-0.219-1.476-0.41-3.021-0.574-4.64c-0.083-0.814-0.16-1.646-0.23-2.5
	c-0.129-1.58-0.236-3.229-0.325-4.941l0,0c-0.046-0.885-0.088-1.783-0.124-2.704l0,0c-0.064-1.635-0.112-3.331-0.147-5.084
	c-0.019-0.891-0.032-1.795-0.044-2.717l0,0c-0.021-1.662-0.032-3.373-0.033-5.14l0,0c0-0.138-0.001-0.271-0.001-0.409v-2.418v-5.173
	v-2.828v-5.173v-2.828v-5.173v-2.828V5.722V2.894V0h-2.279h-2.828h-5.173h-2.828H74.3h-2.828h-5.173h-2.828h-5.173H55.47h-9.655
	v9.655v2.828v5.173v2.828v5.173v2.828v5.173v2.828v4.17c0,0.345-0.005,0.668-0.006,1.009l0,0c-0.002,0.96-0.006,1.916-0.016,2.844
	l0,0c-0.02,1.87-0.059,3.662-0.109,5.403c-0.028,0.948-0.057,1.893-0.096,2.803l0,0c-0.081,1.924-0.193,3.745-0.324,5.508
	c-0.077,1.036-0.165,2.043-0.261,3.025c-0.207,2.116-0.46,4.111-0.763,5.988l0,0c-0.193,1.2-0.404,2.361-0.641,3.469l0,0
	c-0.575,2.696-1.279,5.129-2.137,7.313c-0.133,0.336-0.276,0.656-0.416,0.982c-0.122,0.284-0.244,0.57-0.371,0.846
	c-0.146,0.316-0.3,0.623-0.453,0.928c-0.139,0.273-0.28,0.543-0.426,0.807c-0.154,0.285-0.311,0.568-0.474,0.844
	c-0.169,0.283-0.345,0.556-0.521,0.828c-0.153,0.237-0.301,0.481-0.46,0.711l0.004-0.004c-1.599,2.303-3.518,4.208-5.792,5.792
	c-1.314,0.915-2.753,1.72-4.32,2.43c-0.001,0-0.001,0-0.002,0.001c-0.516,0.232-1.047,0.455-1.591,0.669
	c-2.191,0.857-4.619,1.555-7.306,2.116c-0.512,0.107-1.032,0.209-1.56,0.309c-0.574,0.105-1.152,0.209-1.748,0.303
	c-0.053,0.009-0.104,0.02-0.156,0.027l0,0c-2.445,0.384-5.096,0.676-7.934,0.904c-0.355,0.027-0.697,0.062-1.06,0.088l0,0
	C4.703,96.757,2.413,96.878,0,96.969v1.334v5.173v2.828v5.173v2.194h0.634h5.173h2.828h5.173h2.828h5.173h2.828h5.164h2.828h5.173
	h2.828h5.18h2.828h5.173h2.828h5.173h2.828h5.173h2.828h5.173h2.828h5.173h2.828h5.173h2.828h5.173h2.828h5.173h2.828h5.173h2.828
	h5.173h2.828h5.164h2.828h5.173h2.828h2.345v-2.345v-2.828v-5.173v-2.828v-3.528C146.43,96.952,145.885,96.934,145.341,96.915z
	 M47.814,2h5.655l-5.655,5.655V2z M47.814,10.483L56.298,2h5.173L47.814,15.656V10.483z M47.814,18.484L64.299,2h5.173
	L47.814,23.657V18.484z M47.814,26.485L72.3,2h5.173L47.814,31.658V26.485z M47.814,34.486L80.301,2h5.173L47.814,39.659V34.486z
	 M88.302,2h2.279v2.894L47.746,47.729c0.034-1.697,0.052-3.445,0.06-5.232L88.302,2z M90.581,7.722v5.173L47.436,56.039
	c0.103-1.742,0.177-3.551,0.234-5.406L90.581,7.722z M47.232,59.072l43.349-43.35v5.173L46.635,64.842
	C46.874,62.996,47.075,61.079,47.232,59.072z M90.581,23.724v5.173L44.637,74.842c0.6-2.084,1.104-4.302,1.508-6.682L90.581,23.724z
	 M2,98.889c0.927-0.042,1.832-0.091,2.73-0.143L2,101.476V98.889z M2,104.304l5.762-5.762c1.991-0.151,3.903-0.339,5.74-0.567
	L2,109.477V104.304z M2.634,111.671l14.165-14.165c2.351-0.385,4.553-0.867,6.625-1.451L7.807,111.671H2.634z M10.635,111.671
	l17.072-17.072c4.465-1.806,8.158-4.321,11.065-7.877c1.784-2.182,3.22-4.714,4.388-7.577l47.421-47.42v5.173l-74.773,74.773H10.635
	z M18.636,111.671L90.587,39.72c0.009,1.757,0.03,3.457,0.062,5.112l-66.84,66.839H18.636z M26.637,111.671l64.076-64.075
	c0.047,1.713,0.108,3.375,0.187,4.977l-59.099,59.099H26.637z M34.629,111.671l56.422-56.423c0.105,1.66,0.229,3.263,0.375,4.799
	l-51.624,51.624H34.629z M42.63,111.671l49.069-49.069c0.186,1.58,0.397,3.094,0.64,4.54L47.81,111.671H42.63z M50.638,111.671
	l42.138-42.138c0.294,1.465,0.623,2.857,0.992,4.182l-37.957,37.956H50.638z M58.639,111.671l35.789-35.789
	c0.436,1.315,0.914,2.559,1.443,3.729l-32.06,32.06H58.639z M66.64,111.671l30.163-30.163c0.605,1.134,1.264,2.198,1.982,3.191
	l-26.973,26.972H66.64z M74.641,111.671l25.39-25.389c0.794,0.931,1.647,1.8,2.57,2.602l-22.787,22.787H74.641z M82.642,111.671
	l21.532-21.532c0.985,0.727,2.036,1.396,3.16,2.012l-19.52,19.521H82.642z M90.643,111.671l18.572-18.573
	c1.161,0.54,2.389,1.033,3.691,1.482l-17.091,17.091H90.643z M98.644,111.671l16.411-16.411c1.308,0.384,2.684,0.73,4.129,1.043
	l-15.367,15.368H98.644z M106.645,111.671l14.897-14.897c1.425,0.262,2.911,0.497,4.466,0.707l-14.19,14.19H106.645z
	 M114.646,111.671l13.881-13.881c1.513,0.171,3.083,0.323,4.714,0.458l-13.422,13.423H114.646z M122.646,111.671l13.227-13.227
	c1.577,0.108,3.202,0.203,4.889,0.284l-12.942,12.942H122.646z M144.985,110.498l-1.173,1.173h-5.173l6.346-6.346V110.498z
	 M135.812,111.671h-5.164l12.824-12.824c0.502,0.02,1.003,0.04,1.514,0.058v3.593L135.812,111.671z"/>
</svg>
