<?xml version="1.0" encoding="utf-8"?>
<!-- Generator: Adobe Illustrator 16.0.3, SVG Export Plug-In . SVG Version: 6.00 Build 0)  -->
<!DOCTYPE svg PUBLIC "-//W3C//DTD SVG 1.1//EN" "http://www.w3.org/Graphics/SVG/1.1/DTD/svg11.dtd">
<svg version="1.1" id="Layer_1" xmlns="http://www.w3.org/2000/svg" xmlns:xlink="http://www.w3.org/1999/xlink" x="0px" y="0px"
	 width="391px" height="2px" viewBox="0 0 391 2" enable-background="new 0 0 391 2" xml:space="preserve">
<g>
	<g>
		<rect x="383" fill="#BCBEC0" width="8" height="2"/>
	</g>
	<g>
		<path fill="#BCBEC0" d="M366.695,2h-16.305V0h16.305V2z M334.087,2h-16.305V0h16.305V2z M301.479,2h-16.305V0h16.305V2z
			 M268.869,2h-16.304V0h16.304V2z M236.261,2h-16.304V0h16.304V2z M203.652,2h-16.305V0h16.305V2z M171.044,2h-16.305V0h16.305V2z
			 M138.436,2h-16.305V0h16.305V2z M105.826,2H89.522V0h16.304V2z M73.218,2H56.914V0h16.304V2z M40.609,2H24.305V0h16.305V2z"/>
	</g>
	<g>
		<rect fill="#BCBEC0" width="8" height="2"/>
	</g>
</g>
</svg>
