<?xml version="1.0" encoding="utf-8"?>
<!-- Generator: Adobe Illustrator 16.0.3, SVG Export Plug-In . SVG Version: 6.00 Build 0)  -->
<!DOCTYPE svg PUBLIC "-//W3C//DTD SVG 1.1//EN" "http://www.w3.org/Graphics/SVG/1.1/DTD/svg11.dtd">
<svg version="1.1" id="Layer_1" xmlns="http://www.w3.org/2000/svg" xmlns:xlink="http://www.w3.org/1999/xlink" x="0px" y="0px"
	 width="247.815px" height="92.052px" viewBox="0 0 247.815 92.052" enable-background="new 0 0 247.815 92.052"
	 xml:space="preserve">
<path fill="#33CCFF" d="M247.815,38.845c0-5.103-0.73-10.934-1.459-15.307h-9.109c-7.291,23.688-17.494,32.435-40.088,32.435
	c-39.725,0-70.336-27.332-113.705-27.332c-4.008,0-9.84,0.364-12.754,0.729v-1.458c10.203-7.653,22.959-13.483,36.078-18.586
	C114.907,6.33,122.903,3.268,130.661,0C115.37,5.348,98.938,8.265,81.823,8.265c-3.512,0-6.99-0.131-10.439-0.372L24.052,34.836
	C2.187,47.591,0,50.142,0,56.701c0,5.467,4.009,9.111,10.569,9.111c16.398,0,20.043-23.688,45.189-23.688
	c36.807,0,74.344,49.928,128.279,49.928C220.118,92.052,247.815,69.457,247.815,38.845z M219.478,81.306l21.07-21.071
	C236.003,68.877,228.72,76.123,219.478,81.306z M242.866,55.088l-29.018,29.018c-2.564,1.119-5.248,2.094-8.037,2.912l39.102-39.101
	C244.423,50.381,243.739,52.775,242.866,55.088z M245.464,44.538l-43.477,43.476c-2.057,0.482-4.166,0.881-6.318,1.194l50.141-50.14
	C245.8,40.922,245.683,42.746,245.464,44.538z M238.714,25.538h1.889l-2.85,2.851C238.079,27.461,238.401,26.518,238.714,25.538z
	 M243.431,25.538h1.221c0.152,1.008,0.316,2.179,0.471,3.435l-15.275,15.276c2.307-3.135,4.334-6.876,6.164-11.29L243.431,25.538z
	 M102.562,8.839c-0.957,0.384-1.945,0.794-2.934,1.202l0.965-0.964C101.249,8.995,101.907,8.93,102.562,8.839z M97.376,9.465
	L94.7,12.142c-3.229,1.425-6.535,2.993-9.824,4.698l6.908-6.909C93.653,9.809,95.519,9.657,97.376,9.465z M2,56.701
	c0-4.66,0.803-6.811,16.935-16.516L2.019,57.103C2.013,56.969,2,56.838,2,56.701z M2.496,59.453l23.32-23.32l11.899-6.773
	L4.775,62.299C3.724,61.582,2.954,60.623,2.496,59.453z M10.569,63.813c-1.469,0-2.77-0.206-3.893-0.587L44.28,25.622l11.898-6.773
	L11.244,63.784C11.02,63.795,10.799,63.813,10.569,63.813z M26.56,54.431c-3.942,3.899-7.473,7.377-11.885,8.751l48.07-48.07
	l9.104-5.183c0.385,0.025,0.764,0.034,1.146,0.058L38.271,44.71C33.617,47.455,29.973,51.055,26.56,54.431z M43.649,42.16
	l32.039-32.039c1.686,0.069,3.352,0.111,5,0.124L50.454,40.48C47.972,40.823,45.718,41.404,43.649,42.16z M55.759,40.124
	c-0.752,0-1.475,0.032-2.191,0.071l29.959-29.96c1.764-0.02,3.521-0.07,5.277-0.151L78.55,20.337
	c-3.127,1.846-6.182,3.822-9.051,5.975l-0.799,0.6v1v1.458v0.818L58.661,40.227C57.692,40.162,56.726,40.124,55.759,40.124z
	 M61.241,40.475l9.037-9.037l0.67-0.084c1.217-0.152,3.008-0.309,4.977-0.437L65.632,41.209
	C64.167,40.898,62.702,40.654,61.241,40.475z M67.923,41.747l10.992-10.993c1.58-0.07,3.154-0.113,4.539-0.113
	c0.23,0,0.457,0.012,0.686,0.014L71.901,42.893C70.573,42.464,69.247,42.084,67.923,41.747z M74.011,43.611L86.913,30.71
	c1.631,0.056,3.248,0.146,4.848,0.276L77.718,45.029C76.479,44.524,75.245,44.05,74.011,43.611z M79.708,45.867l14.631-14.63
	c1.531,0.163,3.051,0.349,4.555,0.571L83.231,47.471C82.054,46.91,80.88,46.377,79.708,45.867z M85.136,48.394l16.189-16.188
	c1.445,0.246,2.883,0.515,4.307,0.809l-17.111,17.11C87.39,49.529,86.261,48.951,85.136,48.394z M90.364,51.109l17.594-17.594
	c1.387,0.313,2.762,0.646,4.127,0.998L93.667,52.933C92.563,52.311,91.462,51.703,90.364,51.109z M95.47,53.958L114.327,35.1
	c1.338,0.365,2.666,0.75,3.986,1.146l-19.6,19.6C97.63,55.207,96.548,54.577,95.47,53.958z M100.489,56.897l19.988-19.987
	c1.297,0.406,2.59,0.822,3.875,1.25l-20.658,20.658C102.622,58.172,101.556,57.531,100.489,56.897z M105.456,59.885l21.008-21.008
	c1.27,0.437,2.535,0.88,3.793,1.331l-21.613,21.613C107.579,61.173,106.517,60.526,105.456,59.885z M110.403,62.891l21.934-21.935
	c1.252,0.457,2.5,0.919,3.744,1.383l-22.484,22.485C112.524,64.178,111.46,63.532,110.403,62.891z M115.36,65.887l22.777-22.776
	c1.242,0.468,2.482,0.937,3.719,1.405L118.573,67.8C117.495,67.163,116.425,66.525,115.36,65.887z M120.354,68.846l23.555-23.554
	c1.244,0.472,2.484,0.938,3.723,1.402l-24.029,24.029C122.513,70.102,121.431,69.475,120.354,68.846z M125.407,71.746l24.285-24.284
	c1.252,0.465,2.504,0.921,3.754,1.372l-24.734,24.734C127.603,72.967,126.501,72.359,125.407,71.746z M130.55,74.557l24.977-24.977
	c1.271,0.449,2.543,0.886,3.814,1.313l-25.42,25.42C132.79,75.736,131.667,75.15,130.55,74.557z M135.804,77.257l25.664-25.663
	c1.299,0.421,2.598,0.832,3.9,1.224l-26.107,26.108C138.101,78.382,136.95,77.824,135.804,77.257z M141.196,79.818l26.365-26.365
	c1.338,0.383,2.682,0.749,4.031,1.093l-26.828,26.829C143.567,80.87,142.376,80.354,141.196,79.818z M146.765,82.202l27.102-27.102
	c1.396,0.329,2.799,0.636,4.211,0.915l-27.619,27.618C149.218,83.176,147.987,82.696,146.765,82.202z M152.54,84.38l27.92-27.919
	c1.467,0.258,2.947,0.484,4.436,0.681L156.39,85.648C155.097,85.247,153.813,84.824,152.54,84.38z M158.565,86.301l28.859-28.859
	c1.566,0.165,3.148,0.291,4.746,0.379l-29.559,29.559C161.253,87.047,159.903,86.687,158.565,86.301z M164.907,87.912l29.984-29.985
	c0.754,0.019,1.506,0.046,2.268,0.046c1.068,0,2.102-0.025,3.119-0.063l-30.877,30.876
	C167.892,88.529,166.394,88.238,164.907,87.912z M171.849,89.168l31.424-31.425c2.082-0.166,4.047-0.429,5.912-0.786l-32.748,32.748
	C174.894,89.566,173.366,89.385,171.849,89.168z M184.038,90.052c-1.67,0-3.326-0.056-4.969-0.151l33.83-33.83
	c3.645-1.05,6.861-2.561,9.727-4.602l-38.584,38.583C184.042,90.052,184.04,90.052,184.038,90.052z M245.407,31.516
	c0.154,1.547,0.277,3.166,0.346,4.78L192.44,89.608c-1.811,0.188-3.646,0.322-5.514,0.387L245.407,31.516z"/>
</svg>
