<?xml version="1.0" encoding="utf-8"?>
<!-- Generator: Adobe Illustrator 16.0.3, SVG Export Plug-In . SVG Version: 6.00 Build 0)  -->
<!DOCTYPE svg PUBLIC "-//W3C//DTD SVG 1.1//EN" "http://www.w3.org/Graphics/SVG/1.1/DTD/svg11.dtd">
<svg version="1.1" id="Layer_1" xmlns="http://www.w3.org/2000/svg" xmlns:xlink="http://www.w3.org/1999/xlink" x="0px" y="0px"
	 width="303.209px" height="295.225px" viewBox="0 0 303.209 295.225" enable-background="new 0 0 303.209 295.225"
	 xml:space="preserve">
<path fill="#FFFFFF" d="M205.735,9.182C189.009,3.237,170.788,0,151.604,0c-9.646,0-19.045,0.819-28.137,2.379
	C52.175,14.613,0,72.892,0,147.231c0,79.791,59.921,144.413,141.319,147.545c0.393,0.016,0.781,0.039,1.174,0.051l-0.045,0.025
	c3.449,0.241,6.928,0.372,10.439,0.372c17.115,0,33.547-2.917,48.838-8.265c14.553-6.131,28.234-13.012,40.27-21.594
	c3.41-2.431,6.701-4.982,9.828-7.711c30.977-26.969,51.385-65.599,51.385-111.152C303.208,82.387,263.362,29.663,205.735,9.182z
	 M151.604,276.971c-64.141,0-104.229-50.293-104.229-129.739c0-77.988,40.088-127.188,104.229-127.188
	c64.139,0,104.227,49.199,104.227,127.188C255.831,226.678,215.38,276.971,151.604,276.971z"/>
</svg>
