<?xml version="1.0" encoding="utf-8"?>
<!-- Generator: Adobe Illustrator 16.0.3, SVG Export Plug-In . SVG Version: 6.00 Build 0)  -->
<!DOCTYPE svg PUBLIC "-//W3C//DTD SVG 1.1//EN" "http://www.w3.org/Graphics/SVG/1.1/DTD/svg11.dtd">
<svg version="1.1" id="Layer_1" xmlns="http://www.w3.org/2000/svg" xmlns:xlink="http://www.w3.org/1999/xlink" x="0px" y="0px"
	 width="392.361px" height="270.967px" viewBox="0 0 392.361 270.967" enable-background="new 0 0 392.361 270.967"
	 xml:space="preserve">
<g>
	<path fill="#FFFFFF" d="M74.689,120.545c50.023,0,65.657-11.811,65.657-39.948h12.159v94.837h-12.159
		c0-27.79-13.548-40.645-65.657-40.991v78.511c0,30.222,13.896,39.601,57.666,39.601c48.982,0,66.352-12.504,75.385-53.498h13.199
		l-5.209,68.437H0v-13.201c32.655-1.041,38.213-6.947,38.213-39.602V52.805c0-32.307-4.863-38.214-34.738-39.603V0h200.791
		l3.127,61.142h-12.158c-5.559-36.823-23.277-46.203-70.521-46.203H80.596c-3.821,0-5.906,2.433-5.906,5.905V120.545z"/>
	<path fill="#FFFFFF" d="M390.971,235.186c-20.148,24.317-43.771,35.781-73.301,35.781c-54.191,0-91.014-37.866-91.014-93.449
		c0-56.973,39.254-97.616,95.184-97.616c44.465,0,70.521,25.359,70.521,70.521c0,6.253-1.391,6.947-10.77,6.947H267.299
		c-1.042,3.821-1.389,9.379-1.389,15.633c0,48.287,24.316,79.9,61.488,79.9c19.107,0,35.434-8.338,52.805-27.444L390.971,235.186z
		 M333.65,141.391c18.76,0,20.844-1.391,20.844-9.729c0-21.189-14.938-35.087-38.213-35.087c-24.664,0-40.645,15.287-46.552,44.815
		H333.65z"/>
</g>
</svg>
