<?xml version="1.0" encoding="utf-8"?>
<!-- Generator: Adobe Illustrator 16.0.3, SVG Export Plug-In . SVG Version: 6.00 Build 0)  -->
<!DOCTYPE svg PUBLIC "-//W3C//DTD SVG 1.1//EN" "http://www.w3.org/Graphics/SVG/1.1/DTD/svg11.dtd">
<svg version="1.1" id="Layer_1" xmlns="http://www.w3.org/2000/svg" xmlns:xlink="http://www.w3.org/1999/xlink" x="0px" y="0px"
	 width="241.592px" height="378.227px" viewBox="0 0 241.592 378.227" enable-background="new 0 0 241.592 378.227"
	 xml:space="preserve">
<path fill="none" d="M198.982,46.162c-1.082-2.208-2.283-4.391-3.6-6.53c-0.041,0.028-0.082,0.054-0.123,0.082
	C196.641,41.827,197.873,43.972,198.982,46.162z"/>
<path fill="none" d="M113.941,17.492c-26.95,0-44.443,26.004-44.443,67.137c0,41.605,17.968,69.025,44.916,69.025
	c26.476,0,42.078-25.53,42.078-68.554C156.492,42.551,140.89,17.492,113.941,17.492z"/>
<path fill="#FFFFFF" d="M198.982,46.162c2.182,4.451,3.878,9.003,5.029,13.508C202.803,54.873,201.141,50.424,198.982,46.162z"/>
<path fill="#FFFFFF" d="M183.222,24.459C165.738,8.769,140.064,0,112.995,0C59.098,0,19.856,35.459,19.856,83.211
	c0,32.621,20.804,63.825,48.697,75.172v1.892C40.66,164.529,20.33,183.44,20.33,205.662c0,26.002,18.91,41.604,53.896,45.387
	c17.021,1.891,54.844,6.146,84.629,10.401c23.167,3.31,43.023,21.274,43.023,46.333c0,33.094-26.948,49.643-80.847,49.643
	c-50.114,0-78.954-16.075-78.954-43.496c0-18.912,11.819-35.46,28.84-39.242c-8.511-6.619-17.967-9.928-28.84-9.928
	C18.912,264.76,0,285.563,0,312.037c0,39.242,48.696,66.189,119.142,66.189c78.954,0,122.45-28.839,122.45-81.318
	c0-42.078-29.784-72.336-75.172-78.955c-28.84-4.254-47.752-6.618-78.01-8.982c-21.748-1.419-33.567-5.673-33.567-15.602
	c0-13.238,13.239-17.02,51.534-19.857c66.189-4.728,100.229-36.877,100.229-89.829c0-9.103-0.812-16.934-2.595-24.013
	c-1.151-4.505-2.848-9.057-5.029-13.508c-1.109-2.19-2.342-4.335-3.723-6.448c0.041-0.028,0.082-0.054,0.123-0.082
	C192.033,34.189,187.943,29.033,183.222,24.459z M114.414,153.654c-26.948,0-44.916-27.42-44.916-69.025
	c0-41.133,17.493-67.137,44.443-67.137c26.948,0,42.551,25.059,42.551,67.608C156.492,128.124,140.89,153.654,114.414,153.654z"/>
</svg>
