
<svg version="1.1" id="Layer_1" xmlns="http://www.w3.org/2000/svg" xmlns:xlink="http://www.w3.org/1999/xlink" x="0px" y="0px"
	 width="95.424px" height="94.013px" viewBox="0 0 95.424 94.013" enable-background="new 0 0 95.424 94.013" xml:space="preserve">
<path fill="#33CCFF" d="M95.424,21.305V0H0v94.013h18.211C19.99,30.813,51.553,22.347,95.424,21.305z M93.424,19.356
	c-1.42,0.041-2.84,0.094-4.26,0.154l4.26-4.259V19.356z M93.424,12.424l-7.229,7.229c-1.859,0.102-3.713,0.234-5.561,0.387
	L93.424,7.251V12.424z M93.424,2v2.423L77.521,20.325c-1.973,0.2-3.936,0.428-5.873,0.709L90.682,2H93.424z M87.854,2L68.281,21.573
	c-2.219,0.388-4.404,0.847-6.549,1.376L82.682,2H87.854z M2,2h5.846L2,7.845V2z M2,10.673L10.674,2h5.172L2,15.846V10.673z
	 M2,18.674L18.674,2h5.174L2,23.847V18.674z M2,26.675L26.676,2h5.172L2,31.848V26.675z M2,34.676L34.676,2h5.174L2,39.849V34.676z
	 M2,42.677L42.678,2h5.172L2,47.85V42.677z M2,50.678L50.678,2h5.174L2,55.851V50.678z M2,58.679L58.68,2h5.172L2,63.852V58.679z
	 M2,66.68L66.68,2h5.172L43.645,30.208c-1.303,0.794-2.582,1.624-3.807,2.538c-4.932,3.681-9.049,8.208-12.398,13.668L2,71.853
	V66.68z M16.393,89.455l-2.557,2.558H8.662l8.113-8.112C16.619,85.707,16.492,87.559,16.393,89.455z M17.082,80.766L5.834,92.013H2
	v-1.33l15.855-15.854C17.559,76.748,17.301,78.729,17.082,80.766z M18.436,71.42L2,87.854v-5.173l17.904-17.904
	C19.354,66.904,18.863,69.117,18.436,71.42z M21.031,60.823L2,79.854v-5.173l22.217-22.216
	C23.018,55.072,21.957,57.856,21.031,60.823z M74.68,2h5.174L57.855,23.999c-2.85,0.854-5.6,1.882-8.248,3.074L74.68,2z"/>
</svg>
