<?xml version="1.0" encoding="utf-8"?>
<!-- Generator: Adobe Illustrator 16.0.0, SVG Export Plug-In . SVG Version: 6.00 Build 0)  -->
<!DOCTYPE svg PUBLIC "-//W3C//DTD SVG 1.1//EN" "http://www.w3.org/Graphics/SVG/1.1/DTD/svg11.dtd">
<svg version="1.1" id="Layer_1" xmlns="http://www.w3.org/2000/svg" xmlns:xlink="http://www.w3.org/1999/xlink" x="0px" y="0px"
	 width="30.835px" height="121.145px" viewBox="0 0 30.835 121.145" enable-background="new 0 0 30.835 121.145"
	 xml:space="preserve">
<g>
	<polygon fill="#33CCFF" points="4.4,0 1.572,0 0,1.572 0,4.4 	"/>
	<polygon fill="#33CCFF" points="12.354,0 9.525,0 0,9.525 0,12.354 	"/>
	<polygon fill="#33CCFF" points="20.307,0 17.479,0 0,17.479 0,20.307 	"/>
	<polygon fill="#33CCFF" points="28.26,0 25.432,0 0,25.432 0,28.26 	"/>
	<polygon fill="#33CCFF" points="30.835,5.378 30.835,2.55 0,33.385 0,36.213 	"/>
	<polygon fill="#33CCFF" points="30.835,13.331 30.835,10.503 0,41.338 0,44.166 	"/>
	<polygon fill="#33CCFF" points="30.835,21.286 30.835,18.458 0,49.292 0,52.12 	"/>
	<polygon fill="#33CCFF" points="30.835,29.237 30.835,26.409 0,57.244 0,60.072 	"/>
	<polygon fill="#33CCFF" points="30.835,37.191 30.835,34.363 0,65.198 0,68.026 	"/>
	<polygon fill="#33CCFF" points="30.835,45.146 30.835,42.317 0,73.152 0,75.98 	"/>
	<polygon fill="#33CCFF" points="30.835,53.09 30.835,50.262 0,81.097 0,83.925 	"/>
	<polygon fill="#33CCFF" points="30.835,61.044 30.835,58.216 0,89.05 0,91.878 	"/>
	<polygon fill="#33CCFF" points="30.835,69.003 30.835,66.175 0,97.01 0,99.838 	"/>
	<polygon fill="#33CCFF" points="30.835,76.956 30.835,74.128 0,104.963 0,107.791 	"/>
	<polygon fill="#33CCFF" points="30.835,84.909 30.835,82.081 0,112.916 0,115.744 	"/>
	<polygon fill="#33CCFF" points="30.835,90.036 0,120.871 0,121.145 2.555,121.145 30.835,92.864 	"/>
	<polygon fill="#33CCFF" points="30.835,100.817 30.835,97.989 7.68,121.145 10.508,121.145 	"/>
	<polygon fill="#33CCFF" points="30.835,108.771 30.835,105.942 15.633,121.145 18.461,121.145 	"/>
	<polygon fill="#33CCFF" points="30.835,116.722 30.835,113.894 23.584,121.145 26.412,121.145 	"/>
</g>
</svg>
