<?xml version="1.0" encoding="utf-8"?>
<!-- Generator: Adobe Illustrator 16.0.3, SVG Export Plug-In . SVG Version: 6.00 Build 0)  -->
<!DOCTYPE svg PUBLIC "-//W3C//DTD SVG 1.1//EN" "http://www.w3.org/Graphics/SVG/1.1/DTD/svg11.dtd">
<svg version="1.1" id="Layer_1" xmlns="http://www.w3.org/2000/svg" xmlns:xlink="http://www.w3.org/1999/xlink" x="0px" y="0px"
	 width="229.35px" height="373.471px" viewBox="0 0 229.35 373.471" enable-background="new 0 0 229.35 373.471"
	 xml:space="preserve">
<path fill="#33CCFF" d="M227.436,279.146l-0.67-0.895l0,0l-0.508-0.678l-6.308-8.414l0,0l-0.385-0.514l-3.022-4.032l0,0
	l-1.097-1.463l-2.612-3.483l-0.91-1.217l0,0l-5.604-7.475l0,0l-0.569-0.759l-2.838-3.787l0,0l-1.212-1.616l0,0l-5.604-7.476l0,0
	l-0.041-0.056l-3.366-4.49l0,0l-0.753-1.005l-3.339-4.454l-0.632-0.843l0,0l-2.195-2.929l0,0l-1.212-1.617l0,0l-2.192-2.925l0,0
	l-1.212-1.616l0,0l-2.655-3.543l-0.752-1.003l0,0l-2.195-2.929l0,0l-0.535-0.713l-3.811-5.084l-0.273-0.365l0,0l-2.832-3.777
	l-0.576-0.77l0,0l-2.195-2.93l0,0l-1.212-1.616l0,0l-2.776-3.703l-0.631-0.843l0,0l-5.954-7.943l-0.861-1.148l0,0l-2.349-3.133
	l-1.059-1.413l0,0l-9.087-12.122l-1.139-1.52l0,0l-3.3-4.401l-0.104-0.139l0,0l-5.604-7.476l0,0l-0.097-0.129l-10.485-13.988
	l-0.852-1.137l0,0l-2.196-2.93l0,0l-0.28-0.374l-3.127-4.172l0,0l-0.992-1.324l-3.216-4.289l-0.411-0.549l0,0l-5.604-7.476l0,0
	l-0.465-0.62l-3.047-4.065l0,0l-1.212-1.616l0,0l-2.993-3.992l-0.414-0.554l0,0l-2.192-2.925l0,0l-1.112-1.483l-2.295-3.063l0,0
	l-1.212-1.616l0,0l-2.942-3.925l-0.465-0.621l0,0l-6.684-8.916l-0.132-0.176l0,0l-2.742-3.658l-0.665-0.888l0,0l-2.195-2.929l0,0
	l-1.212-1.617l0,0l-3.22-4.295l-0.188-0.25l0,0l-2.196-2.931l0,0l-1.212-1.616l0,0l-2.195-2.93l0,0l-1.212-1.616l0,0l-2.813-3.752
	l-0.595-0.794l0,0l-3.073-4.1l-0.337-0.449l0,0l-2.715-3.621l-0.693-0.926l0,0l-2.191-2.924l0,0l-1.048-1.397l-3.114-4.155
	l-0.457-0.609l0,0l-5.604-7.476l0,0l-0.52-0.693l-3.392-4.524l-0.708-0.945l0,0L25.524,9.777l0,0L24.82,8.838l-2.703-3.606l0,0
	l-1.212-1.616l0,0L18.195,0h-1.629h-5.125H8.613H0v8.613v2.828v5.125v2.828v5.126v2.828v5.125v2.828v5.125v2.828v5.125v2.828v5.125
	v2.828v5.126v2.828v5.125v1.495h1.333h0.582l10.016,13.199l0.023,0.031l0,0l2.211,2.914l0,0l1.22,1.607l0,0l3.174,4.184l0.261,0.343
	l0,0l2.211,2.914l0,0l1.22,1.608l0,0l2.994,3.945l0.438,0.576l0,0l3.111,4.1l0.32,0.423l0,0l2.211,2.914l0,0l1.221,1.608l0,0
	l2.933,3.865l0.498,0.656l0,0l3.05,4.02l0.382,0.503l0,0l2.211,2.914l0,0l0.514,0.677l3.579,4.717l0.559,0.736l0,0l2.211,2.914l0,0
	l0.636,0.838l3.28,4.322l0.735,0.97l0,0l2.458,3.239l0.97,1.278l0,0l6.251,8.237l0.717,0.945l0,0l2.211,2.914l0,0l0.746,0.982
	l6.559,8.645l0.778,1.025l0,0l5.907,7.785l0.955,1.259l0,0l2.211,2.913l0,0l0.072,0.096l6.995,9.219l1.016,1.339l0,0l5.67,7.472
	l1.192,1.572l0,0l3.29,4.335l0.138,0.182l0,0l2.211,2.915l0,0l1.221,1.607l0,0l2.214,2.918l0,0l1.22,1.607l0,0l3.174,4.182
	l0.258,0.341l0,0l2.211,2.914l0,0l1.221,1.608l0,0l2.211,2.914l0,0l0.348,0.458l3.985,5.252l0.318,0.42l0,0l2.211,2.914l0,0
	l1.22,1.608l0,0l2.212,2.914l0,0l1.22,1.607l0,0l3.053,4.022l0.379,0.5l0,0l2.211,2.914l0,0l0.512,0.675l3.583,4.722l0.557,0.733
	l0,0l2.211,2.914l0,0l0.635,0.836l6.478,8.536l0.967,1.275l0,0l2.316,3.053l0,0l0.622,0.819l3.314,4.367l0.715,0.943l0,0
	l5.643,7.437l0,0l0.664,0.874l3.212,4.232l0.775,1.023l0,0l2.211,2.914l0,0l0.786,1.035l2.913,3.838l0.952,1.257l0,0l9.28,12.229
	l1.014,1.337l0,0l2.211,2.913l0,0l0.222,0.293l3.206,4.225l0,0l0.222,0.291l3.21,4.231l0,0l0.521,0.687l2.912,3.84l0,0l1.221,1.607
	l0,0l2.211,2.914l0,0l0.305,0.401l4.091,5.392l0.256,0.337l0,0l2.212,2.915l0,0l1.22,1.607l0,0l2.211,2.914l0,0l1.22,1.607l0,0
	l3.115,4.105l0.316,0.417l0,0l2.211,2.914l0,0l1.221,1.608l0,0l2.211,2.914l0,0l0.389,0.512l3.886,5.121l0.377,0.497l0,0
	l2.211,2.914l0,0l1.22,1.608l0,0l1.021,1.345v-2.366v-2.828v-5.125v-2.828v-5.125v-2.828v-5.126v-2.828v-5.125v-2.828v-5.125v-2.828
	v-5.125v-2.828v-5.126v-2.828v-5.125v-2.828v-5.125v-2.828v-5.132v-2.828v-5.126v-2.828v-1.637H227.436z M220.717,273.517
	l-36.787,36.787l-2.211-2.914l36.803-36.802L220.717,273.517z M217.31,268.972l-36.81,36.811l-2.213-2.914l36.827-36.826
	L217.31,268.972z M210.494,259.88l-36.857,36.857l-2.211-2.914l36.873-36.873L210.494,259.88z M203.68,250.788l-36.906,36.906
	l-2.211-2.914l36.922-36.922L203.68,250.788z M193.457,237.149l-36.977,36.979l-2.212-2.914l36.993-36.993L193.457,237.149z
	 M186.538,227.919l-37.026,37.025l-2.211-2.914l37.042-37.04L186.538,227.919z M183.131,223.373l-37.049,37.05l-2.209-2.909
	l37.065-37.065L183.131,223.373z M176.319,214.286l-37.097,37.098l-2.212-2.914l37.113-37.112L176.319,214.286z M159.282,191.557
	l-37.217,37.217l-2.211-2.914l37.231-37.231L159.282,191.557z M135.431,159.737L98.047,197.12l-2.211-2.914l37.398-37.398
	L135.431,159.737z M126.42,147.716l2.195,2.93l-37.43,37.43l-2.212-2.914L126.42,147.716z M87.754,183.554l-2.211-2.914
	l37.469-37.471l2.196,2.931L87.754,183.554z M118.394,137.008l-37.503,37.501l-2.211-2.913l37.518-37.518L118.394,137.008z
	 M111.578,127.916l-37.549,37.55l-2.212-2.914l37.565-37.566L111.578,127.916z M70.598,160.942l-2.212-2.913l37.589-37.589
	l2.196,2.93L70.598,160.942z M101.355,114.278l-37.621,37.621l-2.316-3.053l37.638-37.638L101.355,114.278z M91.032,100.506
	l-37.693,37.693l-2.211-2.914l37.709-37.709L91.032,100.506z M84.218,91.414l-37.741,37.741l-2.211-2.914l37.756-37.756
	L84.218,91.414z M50.14,45.951L12.161,83.931l-2.208-2.91l37.995-37.993L50.14,45.951z M8.734,79.413L6.522,76.5l38.019-38.019
	l2.195,2.93L8.734,79.413z M2,2h4.613L2,6.613V2z M2,9.441L9.441,2h5.125L2,14.566V9.441z M2,17.395l15.281-15.28l2.195,2.93
	L2,22.521V17.395z M2,25.349L20.688,6.66l2.196,2.929L2,30.474V25.349z M2,33.302l22.096-22.096l2.195,2.93L2,38.427V33.302z
	 M2,41.255l25.503-25.503l2.196,2.929L2,46.38V41.255z M2,49.208l28.91-28.91l2.196,2.929L2,54.333V49.208z M2,57.161l32.318-32.318
	l2.195,2.93L2,62.287V57.161z M2,65.115L37.726,29.39l2.196,2.93L2,70.24V65.115z M3.092,71.978l38.041-38.042l2.196,2.93
	L5.303,74.892l-1.795-2.365L3.092,71.978z M13.381,85.538l37.971-37.97l2.196,2.93L15.592,88.452L13.381,85.538z M54.76,52.114
	l2.198,2.933L19.026,92.979l-2.214-2.919L54.76,52.114z M20.246,94.587L58.17,56.663l2.195,2.93L22.458,97.5L20.246,94.587z
	 M61.577,61.209l2.195,2.93l-37.884,37.884l-2.211-2.914L61.577,61.209z M64.984,65.755l2.196,2.931l-37.86,37.859l-2.211-2.915
	L64.984,65.755z M30.541,108.153l37.852-37.852l2.195,2.929l-37.836,37.836L30.541,108.153z M71.8,74.848l2.195,2.929
	l-37.813,37.813l-2.21-2.914L71.8,74.848z M75.207,79.392l2.195,2.931l-37.788,37.789l-2.212-2.915L75.207,79.392z M40.834,121.72
	l37.781-37.781l2.195,2.93l-37.765,37.765L40.834,121.72z M47.697,130.763L85.43,93.03l2.195,2.93l-37.717,37.717L47.697,130.763z
	 M92.244,102.122l2.192,2.925l-37.669,37.669l-2.208-2.909L92.244,102.122z M95.648,106.663l2.195,2.93l-37.646,37.646l-2.211-2.914
	L95.648,106.663z M64.955,153.507l37.612-37.612l2.196,2.929l-37.598,37.598L64.955,153.507z M112.79,129.532l2.196,2.93
	L77.46,169.987l-2.211-2.914L112.79,129.532z M82.111,176.117l37.493-37.493l2.195,2.929L84.322,179.03L82.111,176.117z
	 M129.827,152.262l2.196,2.929l-37.407,37.407l-2.211-2.914L129.827,152.262z M136.643,161.353l2.191,2.925l-37.359,37.359
	l-2.207-2.909L136.643,161.353z M102.695,203.245l37.351-37.351l2.196,2.929l-37.336,37.336L102.695,203.245z M106.127,207.767
	l37.326-37.326l2.198,2.933l-37.311,37.312L106.127,207.767z M146.863,174.989l2.196,2.93l-37.288,37.288l-2.211-2.915
	L146.863,174.989z M112.992,216.815l37.278-37.28l2.196,2.93l-37.264,37.264L112.992,216.815z M116.424,221.337l37.255-37.255
	l2.196,2.929l-37.24,37.24L116.424,221.337z M123.286,230.381l37.208-37.208l2.195,2.93l-37.192,37.192L123.286,230.381z
	 M126.717,234.903L163.9,197.72l2.196,2.929l-37.168,37.169L126.717,234.903z M167.309,202.266l2.196,2.93l-37.146,37.145
	l-2.211-2.915L167.309,202.266z M133.58,243.947l37.137-37.136l2.195,2.929l-37.121,37.121L133.58,243.947z M140.442,252.991
	l37.088-37.089l2.196,2.93l-37.073,37.073L140.442,252.991z M150.732,266.553l37.017-37.018l2.301,3.069l-37.001,37.001
	L150.732,266.553z M194.669,238.767l2.196,2.93l-36.953,36.953l-2.212-2.914L194.669,238.767z M161.131,280.257l36.945-36.944
	l2.196,2.93l-36.93,36.93L161.131,280.257z M167.994,289.302l36.897-36.897l2.196,2.929l-36.883,36.883L167.994,289.302z
	 M211.706,261.496l2.196,2.93l-36.834,36.835l-2.212-2.915L211.706,261.496z M185.15,311.912l36.778-36.778l2.196,2.93
	l-36.764,36.762L185.15,311.912z M227.35,367.526l-1.024-1.351l1.024-1.024V367.526z M227.35,362.323l-2.244,2.244l-2.212-2.913
	l4.456-4.456V362.323z M227.35,354.37l-5.676,5.676l-2.211-2.914l7.887-7.888V354.37z M227.35,346.416l-9.107,9.107l-2.211-2.914
	l11.318-11.318V346.416z M227.35,338.463l-12.539,12.539l-2.211-2.915l14.75-14.749V338.463z M227.35,330.51l-15.97,15.97
	l-2.211-2.914l18.181-18.181V330.51z M227.35,322.557l-19.4,19.401l-2.212-2.915l21.612-21.612V322.557z M227.35,314.603
	l-22.833,22.833l-2.211-2.914l25.044-25.044V314.603z M227.35,306.649l-26.264,26.264l-2.211-2.914l28.475-28.475V306.649z
	 M227.35,298.696l-29.695,29.695l-2.213-2.918l31.908-31.909V298.696z M227.35,290.736l-33.129,33.129l-2.212-2.914l35.341-35.341
	V290.736z M190.789,319.343l-2.207-2.908l36.755-36.755l0.498,0.665l0.601,0.801h0.914v1.637L190.789,319.343z"/>
</svg>
