<?xml version="1.0" encoding="utf-8"?>
<!-- Generator: Adobe Illustrator 16.0.3, SVG Export Plug-In . SVG Version: 6.00 Build 0)  -->
<!DOCTYPE svg PUBLIC "-//W3C//DTD SVG 1.1//EN" "http://www.w3.org/Graphics/SVG/1.1/DTD/svg11.dtd">
<svg version="1.1" id="Layer_1" xmlns="http://www.w3.org/2000/svg" xmlns:xlink="http://www.w3.org/1999/xlink" x="0px" y="0px"
	 width="193.455px" height="246.297px" viewBox="0 0 193.455 246.297" enable-background="new 0 0 193.455 246.297"
	 xml:space="preserve">
<path fill="#33CCFF" d="M190.291,134.792c0,32.242-7.136,48.812-15.645,61.798c-11.643,17.912-37.168,28.212-58.215,28.212
	c-42.989,0-65.828-41.198-65.828-104.34c0-60.454,23.285-98.966,65.828-98.966c20.599,0,44.334,9.403,57.767,27.316
	c7.738,9.948,12.957,20.513,14.564,41.402h0.628l-2.205-61.854v1.644C166.586,9.405,144.644,0,116.432,0C49.26,0,0,51.946,0,122.701
	c0,72.098,48.812,123.596,116.432,123.596c32.689,0,55.528-12.091,77.023-42.095l-2.522-70.737h-0.687L190.291,134.792z
	 M189.479,165.649l0.579-0.579l0.177,4.948l-2.387,2.386C188.439,170.275,188.987,168.032,189.479,165.649z M186.571,67.262
	c-0.196-0.589-0.409-1.147-0.617-1.716l0.537-0.537L186.571,67.262z M186.394,62.278l-1.224,1.224
	c-0.497-1.225-1.021-2.408-1.574-3.551l2.621-2.622L186.394,62.278z M186.12,54.599l-3.475,3.475
	c-0.592-1.119-1.207-2.211-1.853-3.272l5.15-5.15L186.12,54.599z M185.846,46.92l-6.149,6.149c-0.671-1.028-1.362-2.043-2.085-3.04
	l8.058-8.058L185.846,46.92z M185.572,39.24l-9.171,9.171c-0.202-0.266-0.397-0.534-0.604-0.799
	c-0.528-0.705-1.081-1.396-1.645-2.079l11.242-11.242L185.572,39.24z M185.275,30.925l0.022,0.636l-12.446,12.446
	c-0.797-0.903-1.619-1.788-2.475-2.65l12.625-12.626C183.762,29.448,184.52,30.177,185.275,30.925z M181.54,27.365l-12.593,12.593
	c-0.875-0.828-1.777-1.635-2.704-2.421l12.581-12.581C179.732,25.74,180.638,26.539,181.54,27.365z M177.296,23.656L164.691,36.26
	c-0.948-0.758-1.923-1.492-2.918-2.207l12.684-12.684C175.407,22.11,176.354,22.87,177.296,23.656z M172.854,20.145l-12.747,12.747
	c-1.021-0.69-2.062-1.358-3.124-2.001l12.898-12.898C170.878,18.684,171.867,19.406,172.854,20.145z M168.194,16.851l-12.993,12.993
	c-1.093-0.622-2.202-1.223-3.331-1.793l13.188-13.189C166.11,15.501,167.155,16.162,168.194,16.851z M163.284,13.809l-13.313,13.313
	c-1.17-0.553-2.358-1.076-3.56-1.573l13.562-13.562C161.085,12.566,162.188,13.176,163.284,13.809z M158.095,11.037l-13.706,13.705
	c-1.248-0.477-2.512-0.922-3.787-1.338L154.59,9.417C155.767,9.931,156.936,10.469,158.095,11.037z M152.6,8.579l-14.155,14.155
	c-1.335-0.395-2.682-0.754-4.038-1.078l14.484-14.484C150.139,7.611,151.374,8.082,152.6,8.579z M146.776,6.458l-14.68,14.68
	c-1.44-0.3-2.89-0.561-4.346-0.78l15.073-15.072C144.155,5.645,145.472,6.037,146.776,6.458z M140.572,4.708L125.26,20.02
	c-1.567-0.184-3.142-0.319-4.718-0.406l15.814-15.814C137.777,4.07,139.184,4.372,140.572,4.708z M133.957,3.37l-16.146,16.146
	c-0.46-0.009-0.919-0.021-1.379-0.021c-1.293,0-2.57,0.038-3.835,0.109l16.866-16.867C130.979,2.917,132.478,3.126,133.957,3.37z
	 M126.903,2.471l-17.396,17.396c-2.063,0.213-4.08,0.528-6.059,0.933L122.11,2.138C123.729,2.215,125.326,2.325,126.903,2.471z
	 M116.432,2c0.992,0,1.974,0.016,2.949,0.039L99.733,21.687c-2.736,0.747-5.385,1.683-7.936,2.812L114.27,2.025
	C114.989,2.014,115.709,2,116.432,2z M34.478,36.194c5.68-5.987,11.968-11.237,18.747-15.719L22.659,51.041
	C26.181,45.754,30.123,40.785,34.478,36.194z M18.173,58.354L60.41,16.117c3.252-1.803,6.601-3.44,10.034-4.908L13.032,68.621
	C14.589,65.1,16.304,61.674,18.173,58.354z M11.015,73.467L75.161,9.32c2.523-0.944,5.088-1.801,7.692-2.566L8.214,81.393
	C9.063,78.706,9.998,76.063,11.015,73.467z M7.015,85.42L86.754,5.682c2.182-0.558,4.387-1.057,6.615-1.489L5.287,92.273
	C5.803,89.962,6.382,87.678,7.015,85.42z M4.549,95.84L96.807,3.582c1.965-0.32,3.945-0.592,5.94-0.816l-99.249,99.25
	C3.803,99.939,4.152,97.88,4.549,95.84z M3.06,105.282L105.885,2.457c1.813-0.155,3.638-0.271,5.473-0.347L85.944,27.523
	c-7.803,4.636-14.563,11.219-20.059,19.697c-0.195,0.302-0.377,0.624-0.569,0.93L2.478,110.989
	C2.633,109.074,2.828,107.172,3.06,105.282z M2.264,114.032l59.377-59.377c-1.457,2.879-2.786,5.932-4.005,9.129L2.039,119.381
	C2.08,117.588,2.157,115.806,2.264,114.032z M2,122.701c0-0.153,0.004-0.305,0.005-0.458L56.068,68.18
	c-0.786,2.362-1.516,4.795-2.181,7.306L2.077,127.296C2.031,125.771,2,124.24,2,122.701z M2.183,130.02l50.755-50.756
	c-0.491,2.104-0.929,4.268-1.338,6.463L2.491,134.835C2.362,133.238,2.26,131.633,2.183,130.02z M2.727,137.428l48.263-48.262
	c-0.319,1.957-0.6,3.956-0.855,5.98L3.252,142.027C3.053,140.504,2.879,138.97,2.727,137.428z M3.6,144.51l46.145-46.146
	c-0.2,1.857-0.375,3.739-0.523,5.648L4.333,148.9C4.068,147.445,3.819,145.983,3.6,144.51z M4.784,151.277l44.243-44.242
	c-0.11,1.772-0.198,3.565-0.264,5.379L5.698,155.479C5.373,154.088,5.066,152.688,4.784,151.277z M6.25,157.756l42.417-42.416
	c-0.038,1.691-0.063,3.396-0.063,5.122c0,0.022,0.001,0.043,0.001,0.065l-41.271,41.27C6.952,160.461,6.592,159.113,6.25,157.756z
	 M7.98,163.979l40.656-40.656c0.02,1.691,0.053,3.368,0.105,5.027L9.228,167.865C8.791,166.581,8.378,165.284,7.98,163.979z
	 M9.963,169.957L48.84,131.08c0.07,1.638,0.163,3.254,0.267,4.858l-37.745,37.745C10.875,172.453,10.413,171.209,9.963,169.957z
	 M12.183,175.691l37.104-37.104c0.122,1.587,0.254,3.164,0.409,4.717L13.73,179.268C13.195,178.088,12.683,176.894,12.183,175.691z
	 M14.632,181.195l35.351-35.352c0.174,1.537,0.361,3.058,0.567,4.559l-34.224,34.223C15.743,183.494,15.181,182.35,14.632,181.195z
	 M17.304,186.476l33.599-33.599c0.226,1.486,0.471,2.949,0.728,4.398l-32.49,32.49C18.511,188.682,17.9,187.584,17.304,186.476z
	 M20.194,191.539l31.869-31.869c0.276,1.434,0.563,2.855,0.873,4.251l-30.769,30.769C21.493,193.652,20.836,192.602,20.194,191.539z
	 M23.297,196.389l30.184-30.184c0.33,1.383,0.674,2.748,1.036,4.09l-29.109,29.109C24.688,198.412,23.985,197.406,23.297,196.389z
	 M26.611,201.028l28.518-28.518c0.384,1.331,0.788,2.634,1.205,3.921l-27.478,27.478C28.092,202.963,27.345,202.002,26.611,201.028z
	 M30.135,205.459l26.901-26.901c0.439,1.274,0.889,2.534,1.361,3.764l-25.884,25.884C31.705,207.305,30.914,206.387,30.135,205.459z
	 M34.313,210.163c-0.15-0.159-0.295-0.323-0.444-0.484l25.345-25.345c0.497,1.219,1.011,2.413,1.541,3.584l-24.373,24.373
	C35.683,211.592,34.992,210.884,34.313,210.163z M37.81,213.689l23.831-23.83c0.557,1.16,1.136,2.288,1.728,3.396l-22.91,22.911
	C39.562,215.359,38.681,214.53,37.81,213.689z M41.963,217.49l22.416-22.416c0.433,0.765,0.859,1.538,1.31,2.276
	c0.194,0.318,0.394,0.628,0.591,0.94l-21.536,21.535C43.803,219.066,42.879,218.284,41.963,217.49z M46.324,221.074l21.066-21.066
	c0.688,1.031,1.394,2.034,2.117,3.008l-20.26,20.26C48.261,222.56,47.288,221.824,46.324,221.074z M50.905,224.446l19.829-19.829
	c0.795,1.008,1.609,1.983,2.444,2.924l-19.057,19.057C53.037,225.9,51.965,225.183,50.905,224.446z M55.856,227.691l18.674-18.674
	c0.837,0.885,1.691,1.74,2.564,2.562l-18.016,18.016C57.994,228.979,56.918,228.346,55.856,227.691z M60.892,230.609l17.686-17.685
	c0.917,0.806,1.853,1.579,2.808,2.316l-17.118,17.118C63.132,231.793,62.005,231.215,60.892,230.609z M66.165,233.289l16.843-16.843
	c1.006,0.721,2.031,1.404,3.076,2.052l-16.386,16.385C68.511,234.37,67.331,233.842,66.165,233.289z M71.688,235.723l16.173-16.174
	c1.103,0.627,2.225,1.212,3.366,1.758l-15.846,15.847C74.14,236.697,72.907,236.221,71.688,235.723z M77.466,237.896l15.707-15.707
	c1.21,0.521,2.441,0.999,3.692,1.433L81.33,239.158C80.031,238.761,78.744,238.338,77.466,237.896z M83.517,239.799l15.482-15.482
	c1.333,0.401,2.688,0.757,4.063,1.063l-15.496,15.495C86.206,240.541,84.857,240.18,83.517,239.799z M89.858,241.41l15.565-15.565
	c1.477,0.264,2.976,0.473,4.498,0.627L94.12,242.273C92.69,242.01,91.269,241.725,89.858,241.41z M96.527,242.694l16.008-16.008
	c1.284,0.076,2.583,0.115,3.896,0.115c0.373,0,0.753-0.011,1.131-0.017l-16.557,16.556
	C99.504,243.152,98.011,242.937,96.527,242.694z M103.546,243.629l16.958-16.957c1.863-0.115,3.769-0.308,5.701-0.576
	l-17.932,17.932C106.688,243.924,105.113,243.791,103.546,243.629z M115.962,244.291c-1.678-0.006-3.347-0.045-5.007-0.117
	l18.626-18.625c2.185-0.399,4.392-0.892,6.603-1.479L115.962,244.291z M118.813,244.27l21.364-21.365
	c2.756-0.875,5.494-1.896,8.179-3.063l-24.207,24.207C122.406,244.161,120.63,244.235,118.813,244.27z M191.432,203.59
	c-9.044,12.518-18.383,21.814-28.401,28.273l28.397-28.396L191.432,203.59z M191.33,200.735l-34.949,34.948
	c-2.898,1.475-5.877,2.748-8.957,3.833l43.729-43.729L191.33,200.735z M191.057,193.057l-47.794,47.793
	c-2.201,0.635-4.455,1.188-6.776,1.644L190.88,188.1L191.057,193.057z M190.782,185.369l-57.72,57.72
	c-1.903,0.296-3.852,0.535-5.846,0.721l26.558-26.558c9.099-4.781,17.188-11.324,22.545-19.566c1.481-2.262,2.968-4.703,4.407-7.386
	l9.879-9.879L190.782,185.369z M190.509,177.689l-7.064,7.064c1.133-2.544,2.209-5.294,3.193-8.31l3.695-3.695L190.509,177.689z"/>
</svg>
