<?xml version="1.0" encoding="utf-8"?>
<!-- Generator: Adobe Illustrator 18.1.1, SVG Export Plug-In . SVG Version: 6.00 Build 0)  -->
<svg version="1.1" id="Layer_1" xmlns="http://www.w3.org/2000/svg" xmlns:xlink="http://www.w3.org/1999/xlink" x="0px" y="0px"
	 width="88.023px" height="136.823px" viewBox="0 0 88.023 136.823" enable-background="new 0 0 88.023 136.823"
	 xml:space="preserve">
<path fill="#33CCFF" d="M0,32.837c21.436,0,33.75,0,39.223,8.665c5.474,8.209,5.474,30.557,5.474,76.621v18.7h43.327V0L0,17.33
	V32.837z M86.023,134.823h-3.545l3.545-3.545V134.823z M86.023,128.45l-6.374,6.373h-5.117l11.491-11.49V128.45z M86.023,120.505
	l-14.319,14.319h-5.125l19.444-19.444V120.505z M86.023,112.552l-22.272,22.272h-5.125l27.397-27.397V112.552z M86.023,104.598
	l-30.225,30.225h-5.125l35.35-35.35V104.598z M86.023,96.645l-38.178,38.178h-1.148v-3.977L86.023,91.52V96.645z M86.023,88.691
	l-39.327,39.327v-5.125l39.327-39.327V88.691z M86.023,80.738l-39.327,39.327v-1.941c0-1.079,0-2.131,0-3.184l39.327-39.327V80.738z
	 M86.023,72.785l-39.327,39.327c0-1.745-0.001-3.452-0.003-5.122l39.33-39.33V72.785z M86.023,64.832L46.69,104.165
	c-0.002-1.746-0.006-3.451-0.012-5.115l39.345-39.345V64.832z M86.023,56.878L46.668,96.233c-0.007-1.743-0.017-3.447-0.028-5.097
	l39.384-39.384V56.878z M86.023,48.925L46.616,88.332c-0.016-1.741-0.036-3.431-0.059-5.066L86.023,43.8V48.925z M86.023,40.971
	l-39.51,39.51c-0.031-1.736-0.068-3.409-0.11-5.022l39.621-39.62V40.971z M86.023,33.012L46.322,72.712
	c-0.056-1.718-0.12-3.359-0.193-4.932l39.894-39.894V33.012z M86.023,25.058L45.991,65.09c-0.096-1.681-0.203-3.28-0.327-4.79
	l40.358-40.358V25.058z M86.023,17.114L45.427,57.709c-0.164-1.629-0.348-3.152-0.555-4.57l41.151-41.151V17.114z M86.023,9.16
	l-41.55,41.55c-0.279-1.526-0.593-2.917-0.947-4.178L86.023,4.035V9.16z M84.497,2.733L42.845,44.385
	c-0.483-1.333-1.03-2.483-1.643-3.483L78.115,3.989L84.497,2.733z M74.594,4.682L40.047,39.229c-0.748-0.98-1.59-1.843-2.519-2.607
	L68.212,5.939L74.594,4.682z M64.691,6.632L35.888,35.434c-1.042-0.662-2.179-1.23-3.411-1.714L58.309,7.889L64.691,6.632z
	 M54.788,8.582L30.372,32.997c-1.294-0.386-2.678-0.708-4.158-0.967L48.406,9.838L54.788,8.582z M44.885,10.532L23.758,31.658
	c-1.479-0.189-3.027-0.341-4.672-0.452l19.417-19.418L44.885,10.532z M34.982,12.481L16.404,31.059
	c-1.583-0.072-3.247-0.119-4.974-0.151l17.17-17.17L34.982,12.481z M25.078,14.431L8.643,30.866c-1.637-0.016-3.342-0.023-5.1-0.026
	l15.153-15.153L25.078,14.431z M15.175,16.381L2,29.556v-5.125l6.793-6.793L15.175,16.381z M5.272,18.331L2,21.603v-2.628
	L5.272,18.331z"/>
</svg>
