<?xml version="1.0" encoding="utf-8"?>
<!-- Generator: Adobe Illustrator 18.1.1, SVG Export Plug-In . SVG Version: 6.00 Build 0)  -->
<svg version="1.1" id="Layer_1" xmlns="http://www.w3.org/2000/svg" xmlns:xlink="http://www.w3.org/1999/xlink" x="0px" y="0px"
	 width="249.458px" height="300.327px" viewBox="0 0 249.458 300.327" enable-background="new 0 0 249.458 300.327"
	 xml:space="preserve">
<g>
	<path fill="#33CCFF" d="M50.492,24.395L33.427,41.46c-2.608,3.24-5.074,6.644-7.386,10.214l34.248-34.248
		C56.898,19.558,53.632,21.884,50.492,24.395z"/>
	<path fill="#33CCFF" d="M71.608,11.232L19.109,63.731c-0.911,1.79-1.791,3.613-2.638,5.467L76.68,8.989
		C74.964,9.694,73.275,10.445,71.608,11.232z"/>
	<path fill="#33CCFF" d="M84.772,6.021L12.774,78.02c-0.567,1.476-1.119,2.966-1.649,4.477L88.836,4.786
		C87.469,5.175,86.114,5.586,84.772,6.021z"/>
	<path fill="#33CCFF" d="M95.684,3.063L8.656,90.091C8.266,91.398,7.89,92.72,7.525,94.05L99.243,2.332
		C98.048,2.56,96.862,2.803,95.684,3.063z"/>
	<path fill="#33CCFF" d="M105.382,1.318L5.778,100.922c-0.282,1.205-0.553,2.42-0.815,3.643L108.624,0.904
		C107.538,1.029,106.457,1.167,105.382,1.318z"/>
	<path fill="#33CCFF" d="M114.288,0.366L3.711,110.942c-0.205,1.133-0.401,2.272-0.589,3.418L117.297,0.184
		C116.29,0.236,115.286,0.293,114.288,0.366z"/>
	<path fill="#33CCFF" d="M124.729-0.008c-0.717,0-1.427,0.015-2.139,0.025L2.209,120.398c-0.146,1.073-0.279,2.155-0.411,3.239
		L125.435,0C125.199-0.001,124.965-0.008,124.729-0.008z"/>
	<path fill="#33CCFF" d="M130.449,0.112L1.172,129.388c-0.099,1.032-0.194,2.068-0.281,3.109L133.146,0.243
		C132.25,0.191,131.352,0.147,130.449,0.112z"/>
	<path fill="#33CCFF" d="M137.916,0.598L0.497,138.018c-0.061,0.996-0.12,1.993-0.169,2.997L140.477,0.865
		C139.626,0.77,138.773,0.678,137.916,0.598z"/>
	<path fill="#33CCFF" d="M145.021,1.446L0.121,146.346c-0.028,0.962-0.051,1.928-0.069,2.897L147.458,1.838
		C146.648,1.702,145.838,1.567,145.021,1.446z"/>
	<path fill="#33CCFF" d="M151.788,2.633L0,154.42c0,0.94,0.013,1.872,0.023,2.805L154.112,3.137
		C153.34,2.964,152.567,2.792,151.788,2.633z"/>
	<path fill="#33CCFF" d="M158.233,4.132L0.127,162.239c0.029,0.912,0.068,1.816,0.107,2.721L160.453,4.74
		C159.716,4.532,158.978,4.326,158.233,4.132z"/>
	<path fill="#33CCFF" d="M164.395,5.924L0.492,169.827c0.057,0.884,0.121,1.763,0.187,2.641L166.514,6.633
		C165.81,6.392,165.106,6.153,164.395,5.924z"/>
	<path fill="#33CCFF" d="M170.284,7.995L1.088,177.19c0.083,0.858,0.171,1.713,0.265,2.563L172.306,8.801
		C171.634,8.528,170.963,8.255,170.284,7.995z"/>
	<path fill="#33CCFF" d="M175.904,10.328L1.907,184.324c0.11,0.832,0.22,1.664,0.339,2.489L177.835,11.225
		C177.193,10.922,176.553,10.618,175.904,10.328z"/>
	<path fill="#33CCFF" d="M181.271,12.914L2.942,191.242c0.136,0.807,0.271,1.614,0.415,2.413L183.116,13.896
		C182.503,13.565,181.891,13.234,181.271,12.914z"/>
	<path fill="#33CCFF" d="M186.397,15.742L4.189,197.95c0.16,0.781,0.328,1.557,0.497,2.331L188.162,16.805
		C187.577,16.446,186.989,16.09,186.397,15.742z"/>
	<path fill="#33CCFF" d="M191.292,18.801L5.646,204.447c0.185,0.757,0.379,1.505,0.573,2.255L192.98,19.94
		C192.421,19.554,191.857,19.176,191.292,18.801z"/>
	<path fill="#33CCFF" d="M195.964,22.082L7.312,210.733c0.209,0.733,0.423,1.462,0.641,2.188L197.578,23.295
		C197.045,22.883,196.504,22.483,195.964,22.082z"/>
	<path fill="#33CCFF" d="M200.421,25.578L9.177,216.822c0.232,0.71,0.465,1.419,0.707,2.121L201.958,26.87
		C201.45,26.433,200.936,26.005,200.421,25.578z"/>
	<path fill="#33CCFF" d="M204.669,29.283L11.239,222.714c0.256,0.686,0.512,1.372,0.777,2.051L206.124,30.657
		C205.641,30.196,205.159,29.734,204.669,29.283z"/>
	<path fill="#33CCFF" d="M208.704,33.201L13.495,228.411c0.279,0.663,0.568,1.317,0.856,1.972L210.087,34.646
		C209.629,34.161,209.17,33.677,208.704,33.201z"/>
	<path fill="#33CCFF" d="M212.536,37.322L15.953,233.906c0.303,0.64,0.613,1.272,0.924,1.904L213.854,38.833
		C213.419,38.324,212.979,37.822,212.536,37.322z"/>
	<path fill="#33CCFF" d="M216.173,41.639L18.608,239.204c0.326,0.617,0.654,1.231,0.988,1.84l197.83-197.83
		C217.014,42.682,216.593,42.162,216.173,41.639z"/>
	<path fill="#33CCFF" d="M219.618,46.139L21.451,244.306c0.349,0.594,0.695,1.191,1.052,1.776L220.792,47.794
		C220.403,47.24,220.015,46.684,219.618,46.139z"/>
	<path fill="#33CCFF" d="M222.868,50.843L24.489,249.221c0.372,0.571,0.75,1.135,1.13,1.698L223.978,52.561
		C223.611,51.985,223.242,51.411,222.868,50.843z"/>
	<path fill="#33CCFF" d="M225.948,55.762L27.745,253.965c0.396,0.547,0.801,1.085,1.205,1.624L226.998,57.54
		C226.654,56.942,226.3,56.353,225.948,55.762z"/>
	<path fill="#33CCFF" d="M228.829,60.834L31.186,258.477c0.419,0.524,0.842,1.043,1.27,1.558L229.808,62.684
		C229.485,62.063,229.16,61.447,228.829,60.834z"/>
	<path fill="#33CCFF" d="M231.524,66.093L34.823,262.794c0.443,0.5,0.886,1.001,1.337,1.491L232.433,68.012
		C232.132,67.37,231.833,66.727,231.524,66.093z"/>
	<path fill="#33CCFF" d="M234.029,71.541L38.661,266.91c0.468,0.476,0.936,0.952,1.411,1.418L234.88,73.519
		C234.602,72.855,234.316,72.198,234.029,71.541z"/>
	<path fill="#33CCFF" d="M236.356,77.168L42.703,270.821c0.492,0.451,0.991,0.895,1.492,1.336L237.142,79.21
		C236.885,78.524,236.621,77.846,236.356,77.168z"/>
	<path fill="#33CCFF" d="M238.504,82.973L46.957,274.52c0.518,0.427,1.044,0.842,1.57,1.258L239.214,85.091
		C238.979,84.384,238.747,83.673,238.504,82.973z"/>
	<path fill="#33CCFF" d="M240.455,88.975L51.429,278.001c0.543,0.401,1.093,0.794,1.644,1.184L241.107,91.151
		C240.894,90.422,240.676,89.697,240.455,88.975z"/>
	<path fill="#33CCFF" d="M242.227,95.157L56.118,281.265c0.569,0.375,1.143,0.744,1.72,1.108L242.819,97.393
		C242.628,96.642,242.426,95.901,242.227,95.157z"/>
	<path fill="#33CCFF" d="M243.816,101.521L61.03,284.307c0.597,0.348,1.195,0.693,1.799,1.03l181.503-181.503
		C244.163,103.06,243.993,102.287,243.816,101.521z"/>
	<path fill="#33CCFF" d="M245.212,108.079L66.171,287.119c0.624,0.32,1.249,0.639,1.88,0.948L245.659,110.46
		C245.513,109.663,245.366,108.868,245.212,108.079z"/>
	<path fill="#33CCFF" d="M246.413,114.831L71.549,289.695c0.653,0.291,1.306,0.583,1.966,0.862l173.284-173.283
		C246.675,116.455,246.545,115.643,246.413,114.831z"/>
	<path fill="#33CCFF" d="M247.424,121.764L77.167,292.021c0.683,0.261,1.365,0.524,2.055,0.773L247.74,124.276
		C247.641,123.434,247.532,122.599,247.424,121.764z"/>
	<path fill="#33CCFF" d="M248.242,128.9L83.049,294.093c0.714,0.23,1.427,0.462,2.148,0.679l163.279-163.279
		C248.4,130.627,248.326,129.76,248.242,128.9z"/>
	<path fill="#33CCFF" d="M248.848,136.254L89.204,295.898c0.747,0.198,1.494,0.396,2.248,0.58l157.561-157.561
		C248.961,138.027,248.908,137.138,248.848,136.254z"/>
	<path fill="#33CCFF" d="M249.247,143.808L95.636,297.419c0.781,0.163,1.563,0.325,2.353,0.475l151.353-151.353
		C249.315,145.626,249.282,144.716,249.247,143.808z"/>
	<path fill="#33CCFF" d="M249.436,151.572L102.367,298.641c0.818,0.127,1.639,0.251,2.465,0.363l144.626-144.626
		C249.458,153.438,249.445,152.506,249.436,151.572z"/>
	<path fill="#33CCFF" d="M112,299.791l137.326-137.326c0.032-0.962,0.053-1.931,0.073-2.901L109.414,299.548
		C110.272,299.636,111.134,299.718,112,299.791z"/>
	<path fill="#33CCFF" d="M119.513,300.23l129.391-129.391c0.068-0.996,0.125-2.003,0.181-3.009L116.798,300.117
		C117.699,300.163,118.605,300.2,119.513,300.23z"/>
	<path fill="#33CCFF" d="M124.729,300.327c0.896,0,1.784-0.015,2.672-0.031l120.724-120.724c0.114-1.042,0.218-2.092,0.317-3.145
		L124.544,300.325C124.606,300.325,124.667,300.327,124.729,300.327z"/>
	<path fill="#33CCFF" d="M135.719,299.93l111.193-111.193c0.17-1.099,0.334-2.203,0.488-3.316L132.708,300.114
		C133.716,300.062,134.722,300.003,135.719,299.93z"/>
	<path fill="#33CCFF" d="M144.605,298.999L245.15,198.453c0.244-1.168,0.478-2.344,0.701-3.529L141.372,299.404
		C142.457,299.281,143.534,299.146,144.605,298.999z"/>
	<path fill="#33CCFF" d="M154.243,297.314l88.385-88.385c0.348-1.267,0.685-2.544,1.006-3.834l-92.922,92.922
		C151.898,297.798,153.075,297.564,154.243,297.314z"/>
	<path fill="#33CCFF" d="M164.999,294.511l73.968-73.968c0.507-1.416,0.997-2.847,1.468-4.296l-79.423,79.423
		C162.353,295.304,163.684,294.92,164.999,294.511z"/>
	<path fill="#33CCFF" d="M177.777,289.686l55.548-55.548c0.807-1.689,1.58-3.412,2.33-5.158l-62.752,62.752
		C174.552,291.085,176.176,290.403,177.777,289.686z"/>
	<path fill="#33CCFF" d="M196.286,279.123l25.639-25.639c1.908-2.653,3.72-5.412,5.441-8.269l-39.07,39.071
		C191.042,282.679,193.705,280.957,196.286,279.123z"/>
</g>
</svg>
