
<svg version="1.1" id="Layer_1" xmlns="http://www.w3.org/2000/svg" xmlns:xlink="http://www.w3.org/1999/xlink" x="0px" y="0px"
	 width="44.302px" height="265.026px" viewBox="0 0 44.302 265.026" enable-background="new 0 0 44.302 265.026"
	 xml:space="preserve">
<path fill="#33CCFF" d="M1.496,54.724v196.632c0,5.03-0.102,9.563-0.337,13.671h43.143c-0.269-4.963-0.378-10.541-0.378-16.864V0H0
	C0.997,11.416,1.496,30.449,1.496,54.724z M42.129,261.184l-1.843,1.843h-5.173l6.879-6.88
	C42.025,257.918,42.071,259.592,42.129,261.184z M41.953,253.359l-9.668,9.667h-5.173l14.812-14.812
	C41.924,250.012,41.935,251.72,41.953,253.359z M41.924,245.387l-17.64,17.64h-5.172l22.812-22.812V245.387z M41.924,237.387
	l-25.64,25.64h-5.173l30.813-30.813V237.387z M41.924,229.386L8.283,263.026h-5.02c0.002-0.052,0.004-0.107,0.006-0.159
	l38.654-38.654V229.386z M41.924,221.385L3.377,259.932c0.05-1.67,0.085-3.419,0.104-5.275l38.443-38.444V221.385z M41.924,213.384
	l-38.43,38.43c0-0.156,0.002-0.301,0.002-0.458v-4.717l38.428-38.428V213.384z M41.924,205.383L3.496,243.811v-5.173l38.428-38.428
	V205.383z M41.924,197.382L3.496,235.81v-5.173l38.428-38.428V197.382z M41.924,189.381L3.496,227.809v-5.173l38.428-38.428V189.381
	z M41.924,181.38L3.496,219.808v-5.171l38.428-38.428V181.38z M41.924,173.381L3.496,211.809v-5.173l38.428-38.428V173.381z
	 M41.924,165.38L3.496,203.808v-5.173l38.428-38.428V165.38z M41.924,157.379L3.496,195.807v-5.173l38.428-38.428V157.379z
	 M41.924,149.378L3.496,187.806v-5.173l38.428-38.428V149.378z M41.924,141.377L3.496,179.805v-5.173l38.428-38.428V141.377z
	 M41.924,133.376L3.496,171.804v-5.173l38.428-38.428V133.376z M41.924,125.375L3.496,163.803v-5.173l38.428-38.428V125.375z
	 M41.924,117.374L3.496,155.802v-5.172l38.428-38.428V117.374z M41.924,109.374L3.496,147.802v-5.173l38.428-38.428V109.374z
	 M41.924,101.373L3.496,139.801v-5.173L41.924,96.2V101.373z M41.924,93.372L3.496,131.8v-5.173l38.428-38.428V93.372z
	 M41.924,85.371L3.496,123.799v-5.173l38.428-38.428V85.371z M41.924,77.37L3.496,115.798v-5.173l38.428-38.428V77.37z
	 M41.924,69.369L3.496,107.797v-5.173l38.428-38.428V69.369z M41.924,61.368L3.496,99.796v-5.173l38.428-38.428V61.368z
	 M41.924,53.367L3.496,91.795v-5.171l38.428-38.428V53.367z M41.924,45.368L3.496,83.796v-5.173l38.428-38.428V45.368z
	 M41.924,37.367L3.496,75.795v-5.173l38.428-38.428V37.367z M41.924,29.366L3.496,67.794v-5.173l38.428-38.428V29.366z
	 M41.924,21.365L3.496,59.793v-5.069c0-0.035,0-0.068,0-0.104l38.428-38.428V21.365z M41.924,13.364L3.492,51.796
	c-0.003-1.747-0.008-3.471-0.016-5.157L41.924,8.191V13.364z M41.924,2v3.363L3.459,43.828c-0.013-1.741-0.026-3.457-0.045-5.128
	L40.114,2H41.924z M37.286,2L3.381,35.906c-0.023-1.736-0.048-3.443-0.077-5.097L32.113,2H37.286z M29.285,2L3.25,28.035
	c-0.036-1.736-0.076-3.418-0.119-5.053L24.113,2H29.285z M21.285,2L3.054,20.231c-0.052-1.731-0.109-3.398-0.171-5.003L16.112,2
	H21.285z M13.284,2L2.772,12.512c-0.075-1.729-0.157-3.371-0.243-4.93L8.111,2H13.284z M5.283,2L2.37,4.913
	C2.306,3.904,2.239,2.923,2.169,2H5.283z"/>
</svg>
