<?xml version="1.0" encoding="utf-8"?>
<!-- Generator: Adobe Illustrator 18.1.1, SVG Export Plug-In . SVG Version: 6.00 Build 0)  -->
<svg version="1.1" id="Layer_1" xmlns="http://www.w3.org/2000/svg" xmlns:xlink="http://www.w3.org/1999/xlink" x="0px" y="0px"
	 width="49.116px" height="74.657px" viewBox="0 0 49.116 74.657" enable-background="new 0 0 49.116 74.657" xml:space="preserve">
<path fill="#33CCFF" d="M0,0v18.665c42.24,1.965,49.116,10.314,49.116,55.992V0H0z M2,2h2.265L2,4.265V2z M2,7.093L7.093,2h5.173
	L2,12.266V7.093z M2,16.763v-1.669L15.094,2h5.173L5.301,16.965C4.229,16.893,3.137,16.824,2,16.763z M7.934,17.161L23.095,2h5.164
	L12.654,17.605C11.162,17.442,9.585,17.294,7.934,17.161z M15.18,17.907L31.087,2h5.173L19.685,18.575
	C18.274,18.333,16.772,18.111,15.18,17.907z M22.069,19.019L39.088,2h5.18L26.273,19.995C24.973,19.646,23.575,19.321,22.069,19.019
	z M47.116,38.037c-0.366-0.994-0.773-1.936-1.205-2.849l1.205-1.205V38.037z M47.116,31.155l-2.164,2.164
	c-0.621-1.106-1.317-2.133-2.062-3.11l4.227-4.227V31.155z M47.116,23.154l-5.489,5.489c-0.799-0.892-1.66-1.744-2.623-2.55
	l8.112-8.112V23.154z M47.116,15.153l-9.714,9.714c-0.971-0.684-2.041-1.331-3.233-1.94L47.116,9.981V15.153z M47.116,7.152
	L32.243,22.025c-1.15-0.494-2.404-0.959-3.779-1.394L47.096,2h0.02V7.152z"/>
</svg>
