<?xml version="1.0" encoding="utf-8"?>
<!-- Generator: Adobe Illustrator 16.0.3, SVG Export Plug-In . SVG Version: 6.00 Build 0)  -->
<!DOCTYPE svg PUBLIC "-//W3C//DTD SVG 1.1//EN" "http://www.w3.org/Graphics/SVG/1.1/DTD/svg11.dtd">
<svg version="1.1" id="Layer_1" xmlns="http://www.w3.org/2000/svg" xmlns:xlink="http://www.w3.org/1999/xlink" x="0px" y="0px"
	 width="206.769px" height="96.754px" viewBox="0 0 206.769 96.754" enable-background="new 0 0 206.769 96.754"
	 xml:space="preserve">
<path fill="#33CCFF" d="M206.769,0h-18.663c-12.77,57.954-37.326,75.634-106.576,75.634C19.646,75.634,0,62.374,0,19.646v77.108
	h199.401L206.769,0z M189.707,2h4.945l-6.526,6.526C188.67,6.415,189.197,4.246,189.707,2z M187.094,12.388L197.48,2h5.125
	l-17.738,17.739C185.641,17.388,186.381,14.938,187.094,12.388z M183.363,24.069l21.18-21.178l-0.423,5.547l-24.318,24.318
	C181.059,30.032,182.242,27.139,183.363,24.069z M2,46.807c0.404,1.079,0.853,2.114,1.324,3.128L2,51.259V46.807z M2,54.087
	l2.262-2.263c0.589,1.112,1.22,2.187,1.9,3.216L2,59.202V54.087z M2,62.03l5.326-5.326c0.726,0.975,1.496,1.912,2.316,2.81L2,67.156
	V62.03z M2,69.984l9.033-9.033c0.857,0.841,1.768,1.642,2.721,2.411L2,75.116V69.984z M2,77.944l13.355-13.355
	c0.982,0.713,2,1.399,3.078,2.047L2,83.069V77.944z M2,85.897l18.233-18.233c1.096,0.594,2.249,1.151,3.438,1.688L2,91.022V85.897z
	 M2,94.754v-0.903L25.65,70.2c1.203,0.488,2.44,0.956,3.733,1.393L6.223,94.754H2z M9.051,94.754l22.48-22.48
	c1.295,0.394,2.634,0.763,4.016,1.109L14.176,94.754H9.051z M17.004,94.754l20.824-20.823c1.375,0.309,2.805,0.592,4.266,0.859
	L22.129,94.754H17.004z M24.957,94.754l19.545-19.545c1.449,0.237,2.941,0.454,4.471,0.654L30.082,94.754H24.957z M32.91,94.754
	l18.582-18.582c1.514,0.174,3.063,0.332,4.652,0.474L38.036,94.754H32.91z M40.864,94.754l17.895-17.895
	c1.567,0.119,3.169,0.225,4.81,0.315L45.989,94.754H40.864z M48.817,94.754L66.262,77.31c1.614,0.072,3.263,0.133,4.945,0.18
	L53.942,94.754H48.817z M56.771,94.754l17.197-17.197c1.653,0.032,3.343,0.054,5.062,0.063L61.896,94.754H56.771z M64.724,94.754
	l17.122-17.122c1.752-0.001,3.467-0.016,5.156-0.039L69.841,94.754H64.724z M72.669,94.754l17.215-17.215
	c1.796-0.04,3.561-0.093,5.285-0.16L77.794,94.754H72.669z M80.622,94.754l17.507-17.507c1.95-0.097,3.857-0.212,5.716-0.347
	L85.991,94.754H80.622z M88.819,94.754l18.099-18.099c1.951-0.169,3.85-0.361,5.701-0.576L93.944,94.754H88.819z M96.772,94.754
	l19.081-19.081c2.082-0.28,4.104-0.59,6.06-0.934l-20.016,20.015H96.772z M104.726,94.754l20.678-20.677
	c2.315-0.471,4.544-0.991,6.687-1.562l-22.238,22.238H104.726z M112.68,94.754l23.381-23.38c2.845-0.886,5.533-1.872,8.085-2.961
	l-26.341,26.341H112.68z M120.633,94.754l28.896-28.896c2.697-1.42,5.234-2.975,7.628-4.678
	c8.022-5.709,14.482-13.039,19.792-22.742L203.887,11.5l-0.422,5.547l-77.707,77.707H120.633z M128.586,94.754l74.646-74.646
	l-0.423,5.547l-69.098,69.099H128.586z M136.539,94.754l66.037-66.037l-0.422,5.548l-60.49,60.489H136.539z M144.492,94.754
	l57.428-57.428l-0.422,5.548l-51.88,51.88H144.492z M152.446,94.754l48.819-48.819l-0.423,5.548l-43.271,43.271H152.446z
	 M160.399,94.754l40.21-40.21l-0.422,5.548l-34.663,34.662H160.399z M168.353,94.754l31.602-31.601l-0.422,5.537l-26.063,26.063
	H168.353z M176.297,94.754l23.002-23.002l-0.422,5.548l-17.454,17.454H176.297z M184.251,94.754l14.393-14.393l-0.423,5.555
	l-8.838,8.838H184.251z M192.211,94.754l5.777-5.776l-0.423,5.547l-0.229,0.229H192.211z"/>
</svg>
