<?xml version="1.0" encoding="utf-8"?>
<!-- Generator: Adobe Illustrator 16.0.3, SVG Export Plug-In . SVG Version: 6.00 Build 0)  -->
<!DOCTYPE svg PUBLIC "-//W3C//DTD SVG 1.1//EN" "http://www.w3.org/Graphics/SVG/1.1/DTD/svg11.dtd">
<svg version="1.1" id="Layer_1" xmlns="http://www.w3.org/2000/svg" xmlns:xlink="http://www.w3.org/1999/xlink" x="0px" y="0px"
	 width="187.614px" height="86.439px" viewBox="0 0 187.614 86.439" enable-background="new 0 0 187.614 86.439"
	 xml:space="preserve">
<path fill="#33CCFF" d="M187.614,86.439L183.194,0H0v29.468c0-4.91,2.948-8.351,8.351-8.351h62.373
	c66.796,0,91.844,13.262,99.7,65.322H187.614z M185.51,84.439h-4.507l4.288-4.287L185.51,84.439z M2,2h3.883L2,5.883V2z M2,8.711
	L8.711,2h5.125L2,13.836V8.711z M2,20.943v-4.279L16.664,2h5.126L3.835,19.954C3.176,20.225,2.56,20.552,2,20.943z M8.351,19.117
	c-0.298,0-0.591,0.011-0.878,0.028L24.618,2h5.125L12.626,19.117H8.351z M15.454,19.117L32.571,2h5.125L20.579,19.117H15.454z
	 M23.407,19.117L40.524,2h5.126L28.533,19.117H23.407z M31.361,19.117L48.479,2h5.116L36.478,19.117H31.361z M39.306,19.117
	L56.423,2h5.125L44.431,19.117H39.306z M47.259,19.117L64.376,2h5.132L52.391,19.117H47.259z M55.219,19.117L72.336,2h5.125
	L60.344,19.117H55.219z M63.172,19.117L80.289,2h5.125L68.297,19.117H63.172z M71.123,19.118L88.242,2h5.126L76.215,19.153
	C74.545,19.132,72.85,19.12,71.123,19.118z M78.998,19.198L96.196,2h5.125L83.992,19.329C82.357,19.274,80.691,19.231,78.998,19.198
	z M86.718,19.432L104.149,2h5.125L91.6,19.675C90.003,19.581,88.375,19.501,86.718,19.432z M94.257,19.846L112.103,2h5.126
	L99.006,20.222C97.453,20.083,95.873,19.957,94.257,19.846z M101.588,20.468L120.057,2h5.125l-18.99,18.991
	C104.689,20.802,103.155,20.627,101.588,20.468z M108.686,21.323L128.01,2h5.125l-20.014,20.014
	C111.676,21.767,110.197,21.537,108.686,21.323z M115.519,22.444L135.963,2h5.125l-21.322,21.322
	C118.385,23.011,116.968,22.719,115.519,22.444z M122.053,23.863L143.916,2h5.125l-22.949,22.949
	C124.779,24.566,123.434,24.204,122.053,23.863z M128.258,25.611L151.869,2h5.117l-24.925,24.925
	C130.828,26.464,129.561,26.026,128.258,25.611z M134.098,27.718L159.814,2h5.125l-27.28,27.28
	C136.506,28.735,135.318,28.214,134.098,27.718z M139.554,30.214L167.768,2h5.369l-30.131,30.131
	C141.894,31.462,140.742,30.824,139.554,30.214z M144.742,33.223L175.965,2h5.125l-33.338,33.337
	C146.782,34.604,145.779,33.899,144.742,33.223z M149.336,36.583l32.086-32.087l0.249,4.877l-29.608,29.608
	C151.186,38.151,150.276,37.353,149.336,36.583z M153.49,40.382l28.318-28.318l0.25,4.876l-26.127,26.126
	C155.149,42.139,154.334,41.246,153.49,40.382z M157.197,44.628l24.998-24.998l0.25,4.875l-23.094,23.094
	C158.662,46.577,157.944,45.586,157.197,44.628z M160.465,49.313l22.117-22.117l0.25,4.875L162.35,52.554
	C161.748,51.441,161.119,50.361,160.465,49.313z M163.317,54.414l19.651-19.651l0.25,4.875l-18.275,18.275
	C164.426,56.714,163.883,55.549,163.317,54.414z M165.773,59.911l17.583-17.583l0.249,4.876l-16.448,16.448
	C166.717,62.373,166.257,61.126,165.773,59.911z M167.858,65.78l15.885-15.885l0.249,4.875l-14.968,14.969
	C168.654,68.388,168.267,67.067,167.858,65.78z M169.611,71.98l14.52-14.519l0.248,4.875l-13.797,13.799
	C170.275,74.719,169.951,73.334,169.611,71.98z M171.066,78.479l13.451-13.45l0.249,4.875l-12.903,12.903
	C171.613,81.333,171.348,79.891,171.066,78.479z M184.904,72.595l0.248,4.867l-6.978,6.978h-5.116L184.904,72.595z"/>
</svg>
