<?xml version="1.0" encoding="utf-8"?>
<!-- Generator: Adobe Illustrator 18.1.1, SVG Export Plug-In . SVG Version: 6.00 Build 0)  -->
<svg version="1.1" id="Layer_1" xmlns="http://www.w3.org/2000/svg" xmlns:xlink="http://www.w3.org/1999/xlink" x="0px" y="0px"
	 width="74.621px" height="73.631px" viewBox="0 0 74.621 73.631" enable-background="new 0 0 74.621 73.631" xml:space="preserve">
<path fill="#33CCFF" d="M74.621,36.816c0-3.878-0.611-7.615-1.738-11.125C68.103,10.797,53.986,0,37.311,0
	C16.705,0,0,16.483,0,36.816c0,20.333,16.705,36.816,37.311,36.816c0.158,0,0.313-0.01,0.471-0.012
	c2.75-0.147,5.362-0.45,7.827-0.913c18.649-3.505,29.013-15.902,29.013-34.717c0-0.207-0.012-0.408-0.014-0.613
	C74.61,37.189,74.621,37.004,74.621,36.816z M68.384,20.249c0.61,1.119,1.165,2.275,1.654,3.471L24.506,69.252
	c-1.213-0.467-2.394-0.997-3.538-1.589L68.384,20.249z M19.146,66.658c-1.061-0.63-2.085-1.313-3.07-2.047l49.156-49.156
	c0.753,0.961,1.458,1.964,2.11,3.007L19.146,66.658z M70.802,25.784c0.054,0.162,0.114,0.321,0.166,0.484
	c0.352,1.167,0.627,2.381,0.866,3.614L30.706,71.012c-1.4-0.262-2.772-0.602-4.109-1.023L70.802,25.784z M2.621,30.345l27.65-27.649
	c1.88-0.377,3.816-0.597,5.79-0.665L2.019,36.072C2.061,34.12,2.265,32.207,2.621,30.345z M2.065,38.854L38.885,2.036
	c1.567,0.067,3.109,0.239,4.624,0.501L2.643,43.403C2.353,41.918,2.156,40.4,2.065,38.854z M45.854,3.02
	c1.339,0.326,2.65,0.725,3.928,1.198L4.455,49.544c-0.499-1.248-0.932-2.528-1.284-3.841L45.854,3.02z M51.791,5.037
	c1.167,0.515,2.302,1.09,3.401,1.724L7.111,54.842c-0.66-1.071-1.257-2.184-1.799-3.327L51.791,5.037z M56.944,7.837
	c1.022,0.672,2.006,1.4,2.951,2.174L10.487,59.419c-0.798-0.919-1.55-1.878-2.25-2.876L56.944,7.837z M26.446,3.694L3.56,26.578
	C6.942,15.76,15.541,7.18,26.446,3.694z M11.841,60.893l49.572-49.572c0.889,0.817,1.732,1.684,2.533,2.592L14.499,63.36
	C13.57,62.583,12.684,61.759,11.841,60.893z M37.311,71.631c-1.404,0-2.786-0.09-4.148-0.248l39.07-39.071
	c0.203,1.551,0.328,3.139,0.36,4.766L38.074,71.595c-0.122,0.007-0.24,0.019-0.363,0.025c-0.07,0.001-0.139,0.004-0.208,0.006
	C37.439,71.629,37.375,71.631,37.311,71.631z M45.239,70.741c-1.304,0.245-2.669,0.44-4.076,0.594l31.416-31.414
	c-0.083,2.002-0.292,3.921-0.629,5.752L47.328,70.295C46.643,70.455,45.95,70.607,45.239,70.741z M51.272,69.179l19.78-19.781
	C68.185,58.971,61.433,65.759,51.272,69.179z"/>
</svg>
