<?xml version="1.0" encoding="utf-8"?>
<!-- Generator: Adobe Illustrator 18.1.1, SVG Export Plug-In . SVG Version: 6.00 Build 0)  -->
<svg version="1.1" id="Layer_1" xmlns="http://www.w3.org/2000/svg" xmlns:xlink="http://www.w3.org/1999/xlink" x="0px" y="0px"
	 width="281.343px" height="378.415px" viewBox="0 0 281.343 378.415" enable-background="new 0 0 281.343 378.415"
	 xml:space="preserve">
<path fill="#FFFFFF" d="M230.914,38.77c0-20.333,16.705-36.816,37.311-36.816c4.617,0,9.037,0.828,13.118,2.34l-0.559-0.35
	C274.088,1.371,266.165,0,257.183,0c-47.652,0-96.707,38.542-121.934,94.604h-2.804l-9.81-86.895L0,34.338v24.526
	c60.266,0,61.668,3.505,61.668,131.044v81.99c0,70.778-6.307,79.187-60.267,81.99v24.527h186.405v-24.527
	c-53.259-3.503-57.463-9.81-57.463-86.895v-23.826c0-37.141,4.204-72.881,11.912-99.51c14.016-49.054,42.046-85.493,67.274-85.493
	c16.818,0,25.929,17.519,55.361,17.519c1.299,0,2.562-0.043,3.804-0.109c-0.157,0.002-0.313,0.012-0.471,0.012
	C247.619,75.586,230.914,59.103,230.914,38.77z"/>
</svg>
