<?xml version="1.0" encoding="utf-8"?>
<!-- Generator: Adobe Illustrator 18.1.1, SVG Export Plug-In . SVG Version: 6.00 Build 0)  -->
<svg version="1.1" id="Layer_1" xmlns="http://www.w3.org/2000/svg" xmlns:xlink="http://www.w3.org/1999/xlink" x="0px" y="0px"
	 width="54.028px" height="74.656px" viewBox="0 0 54.028 74.656" enable-background="new 0 0 54.028 74.656" xml:space="preserve">
<path fill="#33CCFF" d="M52.278,26.898c-0.106,0.586-0.219,1.162-0.335,1.729c-0.801,3.802-1.881,7.078-3.3,9.908
	c-0.315,0.628-0.647,1.234-0.996,1.819c-0.004,0.007-0.008,0.013-0.012,0.02c-0.344,0.575-0.705,1.129-1.084,1.663
	c-0.018,0.025-0.037,0.05-0.055,0.075c-0.366,0.513-0.749,1.008-1.149,1.485c-0.044,0.052-0.091,0.102-0.135,0.154
	c-0.381,0.446-0.775,0.879-1.187,1.294c-0.083,0.084-0.173,0.162-0.258,0.245c-0.385,0.376-0.778,0.744-1.19,1.095
	c-0.144,0.122-0.299,0.236-0.447,0.355c-0.371,0.301-0.744,0.601-1.137,0.883c-0.24,0.172-0.497,0.33-0.746,0.495
	c-0.326,0.217-0.646,0.44-0.987,0.646c-0.446,0.269-0.917,0.52-1.389,0.769c-0.171,0.09-0.329,0.189-0.503,0.277
	c-2.371,1.197-5.083,2.164-8.134,2.961l0,0c-1.163,0.304-2.369,0.587-3.638,0.841c-1.941,0.388-4.008,0.723-6.212,1.007
	c-1.026,0.133-2.084,0.254-3.17,0.366c-1.81,0.188-3.713,0.347-5.694,0.486c-0.983,0.069-1.978,0.135-3.005,0.192
	c-1.741,0.098-3.558,0.179-5.427,0.25l0,0C1.392,55.939,0.714,55.969,0,55.992v2.009v5.173v2.828v5.173v2.828v0.653h4.52h2.828
	h5.173h2.828h5.173h2.828h5.164h2.828h5.173h2.828h5.18h2.828h6.677v-6.677V65.15v-5.18v-2.828V51.97v-2.828v-5.164v-2.828v-5.173
	v-2.828v-5.173v-2.828V0C54.028,10.97,53.574,19.783,52.278,26.898z M2,57.924c1.153-0.042,2.28-0.092,3.395-0.145L2,61.174V57.924z
	 M2,64.002l6.386-6.386c1.92-0.114,3.781-0.249,5.581-0.408L2,69.175V64.002z M2,72.656v-0.653L17.103,56.9
	c2.079-0.228,4.077-0.494,5.982-0.809L6.52,72.656H2z M9.348,72.656l17.225-17.225c2.541-0.535,4.919-1.168,7.109-1.936
	l-19.16,19.16H9.348z M52.028,72.656h-2.677l2.677-2.677V72.656z M52.028,67.15l-5.505,5.505h-5.18l10.685-10.685V67.15z
	 M52.028,59.143L38.515,72.656h-5.173L52.028,53.97V59.143z M52.028,51.142L30.514,72.656H25.35l26.678-26.678V51.142z
	 M52.028,43.149L22.522,72.656h-5.173l21.29-21.29c2.738-1.421,5.121-3.135,7.13-5.222c1.815-1.887,3.316-4.043,4.563-6.47
	l1.696-1.696V43.149z"/>
</svg>
