<?xml version="1.0" encoding="utf-8"?>
<!-- Generator: Adobe Illustrator 18.1.1, SVG Export Plug-In . SVG Version: 6.00 Build 0)  -->
<svg version="1.1" id="Layer_1" xmlns="http://www.w3.org/2000/svg" xmlns:xlink="http://www.w3.org/1999/xlink" x="0px" y="0px"
	 width="110.02px" height="62.868px" viewBox="0 0 110.02 62.868" enable-background="new 0 0 110.02 62.868" xml:space="preserve">
<path fill="#33CCFF" d="M92.829,62.868h17.191V0H0C66.797,0.491,85.953,12.77,92.829,62.868z M108.02,60.868h-1.609l1.609-1.609
	V60.868z M108.02,56.431l-4.438,4.438h-5.173l9.61-9.61V56.431z M108.02,48.43L95.581,60.868h-1.015
	c-0.178-1.223-0.365-2.419-0.56-3.598l14.013-14.013V48.43z M108.02,40.429L93.592,54.856c-0.265-1.481-0.547-2.921-0.842-4.331
	l15.27-15.27V40.429z M108.02,32.428L92.246,48.201c-0.324-1.423-0.671-2.8-1.031-4.148l16.805-16.805V32.428z M108.02,24.42
	L90.597,41.843c-0.393-1.347-0.803-2.664-1.238-3.935l18.661-18.661V24.42z M108.02,16.419L88.609,35.83
	c-0.473-1.263-0.972-2.484-1.494-3.67l20.905-20.905V16.419z M108.02,8.427L86.225,30.222c-0.564-1.171-1.155-2.303-1.776-3.397
	L108.02,3.254V8.427z M106.446,2L83.393,25.053c-0.663-1.068-1.358-2.097-2.085-3.088L101.273,2H106.446z M98.445,2L80.083,20.362
	c-0.769-0.958-1.57-1.88-2.408-2.765L93.272,2H98.445z M90.444,2L76.263,16.181c-0.877-0.844-1.794-1.652-2.746-2.427L85.271,2
	H90.444z M82.443,2L71.926,12.516c-0.986-0.732-2.006-1.435-3.071-2.101L77.27,2H82.443z M74.442,2l-7.361,7.36
	c-1.091-0.622-2.226-1.212-3.398-1.775L69.269,2H74.442z M66.441,2l-4.696,4.696c-1.191-0.52-2.42-1.013-3.694-1.479L61.268,2
	H66.441z M58.44,2l-2.487,2.487c-1.282-0.426-2.6-0.831-3.964-1.209L53.267,2H58.44z M49.755,2.683
	C48.807,2.446,47.841,2.218,46.854,2h3.585L49.755,2.683z"/>
</svg>
