<?xml version="1.0" encoding="utf-8"?>
<!-- Generator: Adobe Illustrator 18.1.1, SVG Export Plug-In . SVG Version: 6.00 Build 0)  -->
<svg version="1.1" id="Layer_1" xmlns="http://www.w3.org/2000/svg" xmlns:xlink="http://www.w3.org/1999/xlink" x="0px" y="0px"
	 width="110.02px" height="61.394px" viewBox="0 0 110.02 61.394" enable-background="new 0 0 110.02 61.394" xml:space="preserve">
<path fill="#33CCFF" d="M110.02,61.394V0H92.829C88.409,49.606,63.36,61.394,0,61.394H110.02z M108.02,59.394h-2.447l2.447-2.447
	V59.394z M108.02,54.119l-5.275,5.275h-5.18l10.455-10.455V54.119z M108.02,46.111L94.737,59.394h-5.173l18.456-18.456V46.111z
	 M108.02,38.11L86.736,59.394h-5.164l26.448-26.448V38.11z M108.02,30.118L78.744,59.394h-5.173l34.449-34.449V30.118z
	 M108.02,22.117L70.743,59.394H65.57l42.45-42.45V22.117z M94.648,2h1.485L94.45,3.682C94.514,3.118,94.59,2.574,94.648,2z
	 M94.058,6.902L98.961,2h5.173L93.017,13.116C93.407,11.116,93.761,9.057,94.058,6.902z M92.244,16.718L106.962,2h1.058v4.115
	L90.196,23.938C90.966,21.659,91.647,19.253,92.244,16.718z M108.02,8.943v5.173L80.473,41.663
	c3.217-3.769,5.878-8.132,8.015-13.188L108.02,8.943z M69.572,50.999c2.088-1.296,4.021-2.725,5.833-4.268L62.742,59.394h-5.173
	l4.516-4.516C64.783,53.713,67.273,52.425,69.572,50.999z M57.465,56.67l-2.724,2.724h-5.173l0.552-0.552
	C52.717,58.192,55.166,57.471,57.465,56.67z"/>
</svg>
