<?xml version="1.0" encoding="utf-8"?>
<!-- Generator: Adobe Illustrator 18.1.1, SVG Export Plug-In . SVG Version: 6.00 Build 0)  -->
<svg version="1.1" id="Layer_1" xmlns="http://www.w3.org/2000/svg" xmlns:xlink="http://www.w3.org/1999/xlink" x="0px" y="0px"
	 width="68.271px" height="78.094px" viewBox="0 0 68.271 78.094" enable-background="new 0 0 68.271 78.094" xml:space="preserve">
<path fill="#33CCFF" d="M0,78.094h68.271V59.43c-1.857-0.046-3.665-0.098-5.425-0.158c-0.329-0.011-0.648-0.024-0.974-0.036l0,0
	c-1.416-0.051-2.809-0.105-4.162-0.166c-0.832-0.038-1.653-0.077-2.462-0.119c-0.352-0.018-0.693-0.039-1.04-0.058l0,0
	c-1.671-0.092-3.293-0.194-4.865-0.308l0,0c-0.89-0.064-1.766-0.132-2.625-0.204l0,0c-1.625-0.136-3.199-0.284-4.716-0.448l0,0
	c-0.862-0.094-1.703-0.194-2.531-0.297l0,0c-1.568-0.197-3.074-0.413-4.524-0.649l0,0c-0.819-0.134-1.627-0.271-2.41-0.418l0,0
	c-1.485-0.279-2.898-0.586-4.255-0.918l0,0c-0.743-0.182-1.475-0.369-2.181-0.567c-0.498-0.14-0.987-0.284-1.467-0.433
	c-0.865-0.268-1.696-0.552-2.502-0.85l0,0c-0.696-0.256-1.369-0.525-2.023-0.805l0,0c-1.227-0.524-2.384-1.09-3.472-1.701l0,0
	c-0.608-0.341-1.197-0.695-1.763-1.065l0,0c-1.054-0.688-2.037-1.427-2.953-2.22l0,0c-0.507-0.439-0.99-0.898-1.457-1.371l0,0
	c-0.112-0.113-0.227-0.223-0.337-0.338c-0.273-0.287-0.539-0.581-0.798-0.88c-0.436-0.504-0.849-1.031-1.247-1.572l0,0
	c-0.4-0.542-0.781-1.104-1.144-1.685l0,0c-0.66-1.055-1.262-2.176-1.81-3.363l0,0c-0.1-0.217-0.203-0.432-0.299-0.654
	c-0.344-0.791-0.666-1.61-0.966-2.46c-0.3-0.85-0.579-1.73-0.837-2.642c-0.517-1.823-0.954-3.772-1.321-5.856
	c-0.048-0.272-0.091-0.553-0.137-0.83l0,0c-0.006-0.038-0.012-0.075-0.019-0.113l0,0c-0.122-0.746-0.238-1.503-0.343-2.284
	C0.311,17.302,0,9.393,0,0V78.094z M66.271,76.094h-2.426l2.426-2.426V76.094z M66.271,70.84l-5.254,5.254h-5.173l10.427-10.427
	V70.84z M66.271,61.378v1.461L53.016,76.094h-5.173l14.828-14.828C63.851,61.307,65.049,61.344,66.271,61.378z M59.948,61.161
	L45.015,76.094h-5.18l15.164-15.164C56.603,61.017,58.255,61.093,59.948,61.161z M52.323,60.778L37.007,76.094h-5.173L47.498,60.43
	C49.062,60.557,50.662,60.675,52.323,60.778z M44.896,60.205l-15.89,15.89h-5.164l16.381-16.381
	C41.724,59.894,43.29,60.055,44.896,60.205z M37.719,59.388L21.014,76.094h-5.173l17.411-17.411
	C34.687,58.938,36.17,59.174,37.719,59.388z M30.877,58.23L13.013,76.094H7.84l18.838-18.838
	C28.017,57.608,29.415,57.932,30.877,58.23z M24.47,56.636L5.012,76.094H2v-2.161l18.616-18.616
	C21.836,55.791,23.121,56.23,24.47,56.636z M18.619,54.486L2,71.105v-5.173l13.189-13.189C16.267,53.366,17.41,53.946,18.619,54.486
	z M13.443,51.661L2,63.104v-5.173l8.505-8.505C11.418,50.223,12.4,50.965,13.443,51.661z M9.049,48.054L2,55.103V49.93l4.657-4.657
	C7.396,46.256,8.19,47.185,9.049,48.054z M5.498,43.604L2,47.102v-5.173l1.642-1.642C4.207,41.456,4.825,42.56,5.498,43.604z
	 M2,39.101v-2.767c0.241,0.687,0.499,1.351,0.766,2.001L2,39.101z"/>
</svg>
