<?xml version="1.0" encoding="utf-8"?>
<!-- Generator: Adobe Illustrator 18.1.1, SVG Export Plug-In . SVG Version: 6.00 Build 0)  -->
<svg version="1.1" id="Layer_1" xmlns="http://www.w3.org/2000/svg" xmlns:xlink="http://www.w3.org/1999/xlink" x="0px" y="0px"
	 width="117.878px" height="70.236px" viewBox="0 0 117.878 70.236" enable-background="new 0 0 117.878 70.236"
	 xml:space="preserve">
<path fill="#33CCFF" d="M100.687,70.236h17.191L113.833,0H0C70.236,0,92.338,14.243,100.687,70.236z M115.754,68.139l-0.097,0.097
	h-5.173l4.988-4.988L115.754,68.139z M115.318,60.574l-7.662,7.662h-5.173l12.553-12.553L115.318,60.574z M114.883,53.009
	l-12.863,12.863c-0.251-1.496-0.515-2.954-0.789-4.383l13.371-13.371L114.883,53.009z M114.447,45.443l-13.686,13.686
	c-0.298-1.448-0.608-2.862-0.932-4.241l14.336-14.336L114.447,45.443z M114.011,37.878L99.276,52.614
	c-0.351-1.394-0.716-2.754-1.097-4.076l15.55-15.55L114.011,37.878z M113.576,30.313L97.528,46.36
	c-0.413-1.333-0.841-2.632-1.288-3.892l17.053-17.053L113.576,30.313z M113.14,22.741l-17.66,17.66
	c-0.481-1.262-0.98-2.486-1.499-3.674l18.877-18.877L113.14,22.741z M112.704,15.176L93.097,34.783
	c-0.556-1.182-1.134-2.325-1.732-3.432l21.058-21.058L112.704,15.176z M112.269,7.619L90.347,29.541
	c-0.64-1.098-1.304-2.158-1.991-3.181l23.632-23.632L112.269,7.619z M109.886,2L87.193,24.693c-0.73-1.005-1.484-1.975-2.265-2.908
	L104.714,2H109.886z M101.885,2L83.615,20.271c-0.823-0.909-1.674-1.781-2.552-2.62L96.713,2H101.885z M93.885,2L79.585,16.299
	c-0.918-0.809-1.866-1.585-2.844-2.329L88.712,2H93.885z M85.884,2L75.109,12.775c-0.142-0.1-0.281-0.203-0.424-0.302
	c-0.876-0.603-1.778-1.184-2.702-1.745L80.711,2H85.884z M77.883,2l-7.699,7.699c-1.1-0.616-2.228-1.21-3.4-1.772L72.71,2H77.883z
	 M69.882,2l-5.044,5.044c-1.187-0.523-2.412-1.022-3.677-1.495L64.709,2H69.882z M61.881,2L59.08,4.801
	c-1.271-0.434-2.587-0.844-3.939-1.233L56.708,2H61.881z M52.936,2.944C51.665,2.612,50.36,2.297,49.016,2h4.863L52.936,2.944z"/>
</svg>
