
<svg version="1.1" id="Layer_1" xmlns="http://www.w3.org/2000/svg" xmlns:xlink="http://www.w3.org/1999/xlink" x="0px" y="0px"
	 width="320.299px" height="344.811px" viewBox="0 0 320.299 344.811" enable-background="new 0 0 320.299 344.811"
	 xml:space="preserve">
<g>
	<g>
		<path fill="#FFFFFF" d="M314.656,280.25c-38.864,43.877-85.247,64.562-142.285,64.562C69.575,344.811,0,276.49,0,176.829
			C0,73.405,74.589,0.068,179.892,0.068c88.381,0,140.407,50.772,140.407,136.016c0,13.165-1.256,14.417-20.687,14.417H97.78
			c-1.88,4.388-2.505,10.658-2.505,20.686c0,81.485,38.233,132.885,99.034,132.885c35.1,0,70.202-16.298,102.796-45.76
			L314.656,280.25z M193.056,115.402c33.847,0,39.489-1.882,39.489-16.299c0-36.354-23.193-62.68-55.159-62.68
			c-35.727,0-67.069,33.222-75.218,78.979H193.056z"/>
	</g>
</g>
</svg>
