
<svg version="1.1" id="Layer_1" xmlns="http://www.w3.org/2000/svg" xmlns:xlink="http://www.w3.org/1999/xlink" x="0px" y="0px"
	 width="118.438px" height="69.875px" viewBox="0 0 118.438 69.875" enable-background="new 0 0 118.438 69.875"
	 xml:space="preserve">
<g>
	<line fill="none" stroke="#33CCFF" stroke-width="2" x1="11.545" y1="38.248" x2="42.036" y2="7.757"/>
	<line fill="none" stroke="#33CCFF" stroke-width="2" x1="4.601" y1="52.423" x2="54.067" y2="2.957"/>
	<line fill="none" stroke="#33CCFF" stroke-width="2" x1="0.826" y1="63.428" x2="62.915" y2="1.34"/>
	<line fill="none" stroke="#33CCFF" stroke-width="2" x1="70.336" y1="1.15" x2="2.33" y2="69.156"/>
	<line fill="none" stroke="#33CCFF" stroke-width="2" x1="9.562" y1="69.156" x2="76.805" y2="1.913"/>
	<line fill="none" stroke="#33CCFF" stroke-width="2" x1="16.783" y1="69.156" x2="82.592" y2="3.349"/>
	<line fill="none" stroke="#33CCFF" stroke-width="2" x1="24.015" y1="69.156" x2="87.802" y2="5.369"/>
	<line fill="none" stroke="#33CCFF" stroke-width="2" x1="31.252" y1="69.156" x2="92.524" y2="7.884"/>
	<line fill="none" stroke="#33CCFF" stroke-width="2" x1="38.483" y1="69.156" x2="96.804" y2="10.835"/>
	<line fill="none" stroke="#33CCFF" stroke-width="2" x1="45.714" y1="69.156" x2="100.675" y2="14.195"/>
	<line fill="none" stroke="#33CCFF" stroke-width="2" x1="104.155" y1="17.946" x2="52.945" y2="69.156"/>
	<line fill="none" stroke="#33CCFF" stroke-width="2" x1="60.176" y1="69.156" x2="107.257" y2="22.075"/>
	<line fill="none" stroke="#33CCFF" stroke-width="2" x1="67.406" y1="69.156" x2="109.983" y2="26.579"/>
	<line fill="none" stroke="#33CCFF" stroke-width="2" x1="74.637" y1="69.156" x2="112.332" y2="31.461"/>
	<line fill="none" stroke="#33CCFF" stroke-width="2" x1="81.869" y1="69.156" x2="114.289" y2="36.736"/>
	<line fill="none" stroke="#33CCFF" stroke-width="2" x1="89.122" y1="69.133" x2="115.828" y2="42.427"/>
	<line fill="none" stroke="#33CCFF" stroke-width="2" x1="96.487" y1="68.999" x2="116.913" y2="48.573"/>
	<line fill="none" stroke="#33CCFF" stroke-width="2" x1="104.118" y1="68.599" x2="117.487" y2="55.229"/>
	<line fill="none" stroke="#33CCFF" stroke-width="2" x1="112.722" y1="67.219" x2="117.242" y2="62.699"/>
</g>
</svg>
