<?xml version="1.0" encoding="utf-8"?>
<!-- Generator: Adobe Illustrator 16.0.3, SVG Export Plug-In . SVG Version: 6.00 Build 0)  -->
<!DOCTYPE svg PUBLIC "-//W3C//DTD SVG 1.1//EN" "http://www.w3.org/Graphics/SVG/1.1/DTD/svg11.dtd">
<svg version="1.1" id="Layer_1" xmlns="http://www.w3.org/2000/svg" xmlns:xlink="http://www.w3.org/1999/xlink" x="0px" y="0px"
	 width="391.979px" height="312.25px" viewBox="0 0 391.979 312.25" enable-background="new 0 0 391.979 312.25"
	 xml:space="preserve">
<g>
	<path fill="#FFFFFF" d="M113.479,182.455V167.25c0-30.779-12.238-45.242-38.567-45.242c-17.06,0-21.88,4.821-28.185,24.104
		c-5.563,14.093-9.643,17.801-19.283,17.801c-11.867,0-18.543-6.676-18.543-18.542c0-23.734,26.33-37.455,72.686-37.455
		c49.692,0,68.235,15.574,68.235,57.852v83.068c0,28.555,5.562,42.277,16.688,42.277c6.675,0,13.722-0.742,18.172-8.159l5.19,8.9
		c-5.932,11.496-23.733,20.024-41.162,20.024c-21.51,0-32.264-14.463-32.264-39.68h-1.854c-12.979,24.105-37.084,39.31-64.526,39.31
		C19.284,311.509,0,294.079,0,267.75c0-23.734,15.205-42.647,60.076-61.932L113.479,182.455z M113.479,198.402
		c-56.739,21.509-76.022,41.162-76.022,63.043c0,16.316,11.866,27.813,29.667,27.813c25.588,0,46.355-27.813,46.355-61.56V198.402z"
		/>
	<path fill="#FFFFFF" d="M236.596,137.583h1.484c15.945-20.767,34.488-30.038,59.334-30.038c53.401,0,94.565,44.501,94.565,101.982
		c0,58.222-41.535,102.352-95.678,102.352c-27.813,0-54.144-11.125-69.719-28.926l-19.989,29.297h-5.599V83.811
		c0-24.847-1.854-41.534-4.821-47.839c-3.338-7.045-5.934-8.529-29.297-11.866v-9.271L236.596,0V137.583z M237.338,230.293
		c0,37.086,22.992,63.786,54.885,63.786c34.488,0,57.852-33.376,57.852-83.439c0-50.435-24.477-85.665-59.336-85.665
		c-20.024,0-36.713,10.383-45.242,27.442c-5.191,10.384-8.158,25.588-8.158,44.872V230.293z"/>
</g>
</svg>
