<?xml version="1.0" encoding="utf-8"?>
<!-- Generator: Adobe Illustrator 16.0.0, SVG Export Plug-In . SVG Version: 6.00 Build 0)  -->
<!DOCTYPE svg PUBLIC "-//W3C//DTD SVG 1.1//EN" "http://www.w3.org/Graphics/SVG/1.1/DTD/svg11.dtd">
<svg version="1.1" id="Layer_1" xmlns="http://www.w3.org/2000/svg" xmlns:xlink="http://www.w3.org/1999/xlink" x="0px" y="0px"
	 width="114.536px" height="123.261px" viewBox="0 0 114.536 123.261" enable-background="new 0 0 114.536 123.261"
	 xml:space="preserve">
<path fill="#FFFFFF" d="M68.454,44.964v-9.172c0-18.567-7.383-27.291-23.266-27.291c-10.289,0-13.199,2.907-17,14.541
	c-3.357,8.499-5.817,10.737-11.635,10.737c-7.156,0-11.185-4.027-11.185-11.186C5.369,8.276,21.251,0,49.216,0
	C79.19,0,90.377,9.396,90.377,34.897v50.108c0,17.227,3.356,25.503,10.066,25.503c4.026,0,8.278-0.446,10.963-4.92l3.13,5.369
	c-3.576,6.934-14.316,12.078-24.829,12.078c-12.976,0-19.464-8.724-19.464-23.936h-1.117c-7.83,14.541-22.371,23.712-38.926,23.712
	C11.633,122.813,0,112.3,0,96.416C0,82.099,9.173,70.69,36.239,59.058L68.454,44.964z M68.454,54.583
	c-34.228,12.975-45.858,24.832-45.858,38.03c0,9.844,7.156,16.777,17.896,16.777c15.434,0,27.962-16.777,27.962-37.136V54.583z"/>
</svg>
