<?xml version="1.0" encoding="utf-8"?>
<!-- Generator: Adobe Illustrator 16.0.0, SVG Export Plug-In . SVG Version: 6.00 Build 0)  -->
<!DOCTYPE svg PUBLIC "-//W3C//DTD SVG 1.1//EN" "http://www.w3.org/Graphics/SVG/1.1/DTD/svg11.dtd">
<svg version="1.1" id="Layer_1" xmlns="http://www.w3.org/2000/svg" xmlns:xlink="http://www.w3.org/1999/xlink" x="0px" y="0px"
	 width="135.789px" height="188.135px" viewBox="0 0 135.789 188.135" enable-background="new 0 0 135.789 188.135"
	 xml:space="preserve">
<path fill="#FFFFFF" d="M42.056,82.993h0.895c9.619-12.526,20.806-18.119,35.794-18.119c32.213,0,57.045,26.843,57.045,61.519
	c0,35.121-25.057,61.742-57.717,61.742c-16.777,0-32.659-6.711-42.056-17.449l-10.514,14.988h-4.921V50.558
	c0-14.989-1.118-25.057-2.909-28.859c-2.014-4.25-3.58-5.145-17.673-7.158V8.947L42.056,0V82.993z M42.504,138.919
	c0,22.371,13.869,38.478,33.107,38.478c20.805,0,34.898-20.134,34.898-50.334c0-30.423-14.766-51.676-35.795-51.676
	c-12.078,0-22.146,6.265-27.29,16.555c-3.131,6.264-4.921,15.436-4.921,27.069V138.919z"/>
</svg>
