<?xml version="1.0" encoding="utf-8"?>
<!-- Generator: Adobe Illustrator 16.0.0, SVG Export Plug-In . SVG Version: 6.00 Build 0)  -->
<!DOCTYPE svg PUBLIC "-//W3C//DTD SVG 1.1//EN" "http://www.w3.org/Graphics/SVG/1.1/DTD/svg11.dtd">
<svg version="1.1" id="Layer_1" xmlns="http://www.w3.org/2000/svg" xmlns:xlink="http://www.w3.org/1999/xlink" x="0px" y="0px"
	 width="102.232px" height="123.036px" viewBox="0 0 102.232 123.036" enable-background="new 0 0 102.232 123.036"
	 xml:space="preserve">
<path fill="#FFFFFF" d="M102.231,102.232c-10.736,12.975-28.633,20.804-48.32,20.804c-31.764,0-53.912-24.384-53.912-60.623
	C-0.001,24.384,25.054,0,62.19,0c23.041,0,39.371,8.053,39.371,19.686c0,5.816-4.25,9.395-10.961,9.395
	c-5.369,0-8.055-1.563-13.646-9.17c-5.816-6.936-10.516-9.397-19.238-9.397c-21.029,0-32.215,16.779-32.215,48.545
	c0,34.003,12.529,52.347,35.568,52.347c12.305,0,23.266-4.698,34.451-15.659L102.231,102.232z"/>
</svg>
