
<svg version="1.1" id="Layer_1" xmlns="http://www.w3.org/2000/svg" xmlns:xlink="http://www.w3.org/1999/xlink" x="0px" y="0px"
	 width="63.988px" height="79.244px" viewBox="0 0 63.988 79.244" enable-background="new 0 0 63.988 79.244" xml:space="preserve">
<path fill="#33CCFF" d="M63.988,60.541C8.369,58.572,0,42.328,0,0v79.244h63.988V60.541z M2,33.709
	c0.162,0.463,0.336,0.912,0.508,1.363L2,35.581V33.709z M2,38.409l1.334-1.334c0.529,1.188,1.105,2.335,1.736,3.437L2,43.582V38.409
	z M2,46.41l4.141-4.141c0.676,1.035,1.408,2.027,2.195,2.979L2,51.583V46.41z M2,54.411l7.66-7.659
	c0.008,0.008,0.014,0.018,0.021,0.025c0.822,0.873,1.699,1.704,2.629,2.497L2,59.584V54.411z M2,62.412l11.879-11.878
	c0.969,0.736,1.99,1.437,3.072,2.099L2,67.585V62.412z M2,70.413l16.746-16.745c1.1,0.6,2.256,1.167,3.471,1.702L2,75.586V70.413z
	 M3.17,77.244l21.041-21.041c1.219,0.478,2.494,0.927,3.824,1.349L8.344,77.244H3.17z M11.172,77.244l19.041-19.041
	c1.322,0.373,2.695,0.722,4.127,1.046L16.344,77.244H11.172z M19.172,77.244l17.5-17.5c1.412,0.283,2.873,0.545,4.387,0.785
	L24.346,77.244H19.172z M27.174,77.244L43.52,60.898c1.486,0.207,3.023,0.395,4.607,0.565l-15.781,15.78H27.174z M35.174,77.244
	l15.523-15.523c1.551,0.144,3.146,0.271,4.789,0.385L40.348,77.244H35.174z M43.176,77.244l14.971-14.973
	c1.258,0.072,2.533,0.139,3.842,0.193v1.13L48.34,77.244H43.176z M51.168,77.244l10.82-10.821v5.173l-5.648,5.648H51.168z
	 M59.168,77.244l2.82-2.82v2.82H59.168z"/>
</svg>
