
<svg version="1.1" id="Layer_1" xmlns="http://www.w3.org/2000/svg" xmlns:xlink="http://www.w3.org/1999/xlink" x="0px" y="0px"
	 width="63.987px" height="79.244px" viewBox="0 0 63.987 79.244" enable-background="new 0 0 63.987 79.244" xml:space="preserve">
<path fill="#33CCFF" d="M-0.001,60.541v18.703h63.988V0C63.987,42.328,55.618,58.572-0.001,60.541z M1.999,62.465
	c1.473-0.063,2.904-0.137,4.311-0.22l-4.311,4.311V62.465z M1.999,69.384l7.334-7.335c1.959-0.143,3.844-0.309,5.67-0.496
	L1.999,74.557V69.384z M2.14,77.244l16.047-16.048c2.109-0.259,4.125-0.552,6.055-0.881L7.312,77.244H2.14z M10.14,77.244
	l17.582-17.581c2.438-0.499,4.723-1.063,6.865-1.693L15.313,77.244H10.14z M18.142,77.244l20.678-20.678
	c4.256-1.583,7.869-3.496,10.943-5.771L23.313,77.244H18.142z M61.987,77.244h-3.85l3.85-3.85V77.244z M61.987,70.566l-6.678,6.678
	h-5.164l11.842-11.842V70.566z M61.987,62.574l-14.67,14.67h-5.174l19.844-19.843V62.574z M61.987,54.573L39.315,77.244h-5.172
	L61.987,49.4V54.573z M61.987,46.572L31.315,77.244h-5.174l35.846-35.845V46.572z M56.843,43.715
	c2.17-2.965,3.854-6.303,5.145-10.006v4.862L56.843,43.715z"/>
</svg>
