
<svg version="1.1" id="Layer_1" xmlns="http://www.w3.org/2000/svg" xmlns:xlink="http://www.w3.org/1999/xlink" x="0px" y="0px"
	 width="95.424px" height="94.013px" viewBox="0 0 95.424 94.013" enable-background="new 0 0 95.424 94.013" xml:space="preserve">
<polygon fill="none" points="3.258,2 1.998,2 1.998,3.26 "/>
<path fill="#33CCFF" d="M-0.002,21.305c43.873,1.042,75.434,9.508,77.213,72.708h18.211V0H-0.002V21.305z M93.422,92.013h-1.328
	l1.328-1.329V92.013z M93.422,87.855l-4.156,4.157h-5.174l9.33-9.33V87.855z M93.422,79.854L81.264,92.013h-2.117
	c-0.039-0.985-0.084-1.957-0.137-2.919l14.412-14.412V79.854z M93.422,71.854L78.846,86.431c-0.115-1.623-0.25-3.212-0.406-4.767
	l14.982-14.983V71.854z M93.422,63.853L78.158,79.117c-0.186-1.551-0.396-3.064-0.629-4.545L93.422,58.68V63.853z M93.422,55.852
	L77.123,72.15c-0.264-1.473-0.553-2.907-0.865-4.309l17.164-17.163V55.852z M93.422,47.851L75.719,65.553
	c-0.346-1.388-0.719-2.739-1.117-4.056l18.82-18.819V47.851z M93.422,39.85l-19.5,19.5c-0.434-1.299-0.896-2.561-1.385-3.788
	l20.885-20.885V39.85z M93.422,31.849L71.703,53.567c-0.527-1.205-1.082-2.374-1.666-3.507l23.385-23.385V31.849z M93.422,23.848
	L69.047,48.223c-0.623-1.108-1.275-2.18-1.957-3.216l26.332-26.332V23.848z M93.422,15.847L65.939,43.33
	c-0.723-1.009-1.477-1.982-2.26-2.92l29.742-29.743V15.847z M93.422,7.839l-31.059,31.06c-0.824-0.904-1.678-1.775-2.563-2.61
	L93.422,2.666V7.839z M91.26,2L58.316,34.942c-0.881-0.763-1.791-1.495-2.73-2.196c-0.045-0.034-0.094-0.063-0.139-0.097L86.096,2
	H91.26z M83.268,2l-29.49,29.491c-1.037-0.701-2.096-1.368-3.182-1.991L78.096,2H83.268z M75.268,2L48.762,28.505
	c-1.143-0.596-2.309-1.154-3.496-1.676L70.094,2H75.268z M67.266,2l-23.99,23.99c-1.244-0.495-2.514-0.948-3.801-1.372L62.094,2
	H67.266z M59.266,2L37.334,23.932c-1.344-0.397-2.709-0.752-4.088-1.085L54.092,2H59.266z M51.264,2L30.949,22.314
	c-1.432-0.308-2.883-0.578-4.346-0.827L46.092,2H51.264z M43.264,2L24.166,21.098c-1.516-0.225-3.043-0.421-4.578-0.595L38.09,2
	H43.264z M35.262,2L17.027,20.234c-1.586-0.152-3.182-0.281-4.781-0.392L30.09,2H35.262z M27.262,2L9.588,19.674
	c-1.648-0.093-3.297-0.165-4.947-0.227L22.088,2H27.262z M19.26,2L1.998,19.262v-5.173L14.088,2H19.26z M11.26,2l-9.262,9.261V6.088
	L6.086,2H11.26z M3.258,2l-1.26,1.26V2H3.258z"/>
</svg>
