<?xml version="1.0" encoding="utf-8"?>
<!-- Generator: Adobe Illustrator 18.1.1, SVG Export Plug-In . SVG Version: 6.00 Build 0)  -->
<svg version="1.1" id="Layer_1" xmlns="http://www.w3.org/2000/svg" xmlns:xlink="http://www.w3.org/1999/xlink" x="0px" y="0px"
	 width="167.661px" height="111.083px" viewBox="0 0 167.661 111.083" enable-background="new 0 0 167.661 111.083"
	 xml:space="preserve">
<path fill="#33CCFF" d="M7.7,65.751C20.849,40.357,45.79,24.94,73.905,24.94c23.762,0,38.079,10.558,45.319,35.93h48.437
	c-2.328-15.363-6.43-26.085-12.586-34.116C142.378,10.429,117.437,0,89.776,0C56.673,0,19.49,17.231,0.897,41.265H0v69.818
	C0.125,86.286,1.639,77.872,7.7,65.751z M164.95,56.819l-2.05,2.051h-5.117l6.297-6.297C164.389,53.946,164.68,55.358,164.95,56.819
	z M163.538,50.286l-8.583,8.584h-5.125l12.605-12.605C162.824,47.561,163.192,48.901,163.538,50.286z M161.754,44.116
	l-14.753,14.753h-5.125l18.509-18.509C160.867,41.569,161.323,42.82,161.754,44.116z M159.55,38.367l-20.502,20.502h-5.125
	l23.963-23.963C158.469,36.017,159.023,37.17,159.55,38.367z M156.883,33.082l-25.788,25.788h-5.126l28.934-28.933
	C155.594,30.944,156.253,31.992,156.883,33.082z M153.487,27.97c0.08,0.104,0.155,0.213,0.234,0.318l-30.581,30.58h-2.42
	c-0.211-0.697-0.429-1.379-0.651-2.054l31.333-31.333C152.128,26.296,152.828,27.123,153.487,27.97z M150.042,24.015l-30.697,30.697
	c-0.457-1.272-0.938-2.498-1.438-3.687l29.531-29.531C148.341,22.313,149.211,23.153,150.042,24.015z M145.929,20.175
	l-28.886,28.886c-0.544-1.184-1.112-2.324-1.704-3.421l27.731-27.731C144.055,18.642,145.008,19.398,145.929,20.175z
	 M141.426,16.724l-27.108,27.108c-0.641-1.086-1.308-2.128-2.001-3.124l26.017-26.016C139.394,15.346,140.423,16.026,141.426,16.724
	z M136.563,13.634l-25.44,25.44c-0.749-0.978-1.525-1.909-2.332-2.793l24.452-24.452C134.375,12.407,135.482,13.009,136.563,13.634z
	 M131.35,10.894l-23.943,23.943c-0.866-0.859-1.764-1.669-2.693-2.432l23.094-23.094C129.01,9.815,130.193,10.342,131.35,10.894z
	 M125.794,8.497l-22.673,22.672c-0.994-0.73-2.023-1.411-3.09-2.042L122.03,7.129C123.305,7.56,124.56,8.016,125.794,8.497z
	 M119.893,6.438L98.215,28.115c-1.131-0.589-2.3-1.128-3.51-1.615L115.91,5.296C117.256,5.649,118.583,6.031,119.893,6.438z
	 M113.646,4.732L92.648,25.728c-1.277-0.438-2.598-0.821-3.961-1.155L109.43,3.832C110.852,4.102,112.257,4.404,113.646,4.732z
	 M107.029,3.404L86.366,24.066c-1.435-0.281-2.916-0.507-4.443-0.682l20.619-20.618C104.051,2.948,105.548,3.159,107.029,3.404z
	 M99.991,2.489L79.338,23.141c-1.595-0.117-3.237-0.184-4.931-0.194L95.213,2.141C96.817,2.222,98.411,2.337,99.991,2.489z
	 M89.776,2c0.908,0,1.812,0.014,2.713,0.036L71.546,22.98c-1.837,0.056-3.667,0.174-5.484,0.359l21.3-21.3
	C88.168,2.019,88.975,2,89.776,2z M84.412,2.16L62.827,23.745c-2.127,0.309-4.234,0.708-6.318,1.193L78.817,2.63
	C80.689,2.423,82.555,2.264,84.412,2.16z M75.583,3.036L52.69,25.928c-2.679,0.772-5.31,1.695-7.883,2.758L69.413,4.081
	C71.47,3.675,73.528,3.326,75.583,3.036z M65.82,4.846L39.581,31.084c-1.851,0.938-3.669,1.944-5.441,3.036
	c-3.927,2.422-7.619,5.217-11.05,8.329L58.899,6.641C61.195,5.972,63.505,5.377,65.82,4.846z M2,43.108l0.479-0.62
	C8.056,35.28,15.391,28.682,23.81,22.996L2,44.805V43.108z M2,47.633l29.276-29.275c3.377-1.931,6.881-3.721,10.478-5.353L2,52.759
	V47.633z M2,55.587l44.719-44.719c2.654-1.073,5.35-2.051,8.07-2.945L2,60.712V55.587z M2,63.54l15.73-15.729
	c-4.545,5.014-8.485,10.662-11.699,16.824L2,68.665V63.54z M2,71.493l1.563-1.563C2.99,71.285,2.465,72.626,2,73.981V71.493z"/>
</svg>
