
<svg version="1.1" id="Layer_1" xmlns="http://www.w3.org/2000/svg" xmlns:xlink="http://www.w3.org/1999/xlink" x="0px" y="0px"
	 width="166.137px" height="27.765px" viewBox="0 0 166.137 27.765" enable-background="new 0 0 166.137 27.765"
	 xml:space="preserve">
<path fill="#33CCFF" d="M0,0v27.765h166.137V0H0z M2,2h4.704L2,6.703V2z M2,9.584L9.532,2h5.125L2,14.657V9.584z M2,17.49L17.485,2
	h5.125L2,22.61V17.49z M2,25.765V25.49L25.438,2h5.125L6.799,25.765H2z M9.627,25.765L33.392,2h5.125L14.752,25.765H9.627z
	 M17.58,25.765L41.345,2h5.125L22.705,25.765H17.58z M25.533,25.765L49.298,2h5.126L30.659,25.765H25.533z M33.487,25.765L57.252,2
	h5.125L38.612,25.765H33.487z M41.44,25.765L65.205,2h5.126L46.565,25.765H41.44z M49.394,25.765L73.159,2h5.115L54.51,25.765
	H49.394z M57.338,25.765L81.103,2h5.126L62.464,25.765H57.338z M65.292,25.765L89.057,2h5.132L70.424,25.765H65.292z M73.252,25.765
	L97.017,2h5.125L78.377,25.765H73.252z M81.205,25.765L104.97,2h5.125L86.33,25.765H81.205z M89.158,25.765L112.923,2h5.126
	L94.284,25.765H89.158z M97.112,25.765L120.877,2h5.125l-23.765,23.765H97.112z M105.065,25.765L128.83,2h5.125L110.19,25.765
	H105.065z M113.019,25.765L136.783,2h5.126l-23.766,23.765H113.019z M120.972,25.765L144.737,2h5.125l-23.765,23.765H120.972z
	 M128.926,25.765L152.69,2h5.125l-23.765,23.765H128.926z M164.137,25.765h-3.406l3.406-3.407V25.765z M164.137,19.49l-6.234,6.275
	h-5.117l11.352-11.352V19.49z M164.137,11.553l-14.18,14.212h-5.125L164.137,6.46V11.553z M164.137,3.646l-22.133,22.119h-5.125
	L160.644,2h3.493V3.646z"/>
</svg>
