<?xml version="1.0" encoding="utf-8"?>
<!-- Generator: Adobe Illustrator 16.0.0, SVG Export Plug-In . SVG Version: 6.00 Build 0)  -->
<!DOCTYPE svg PUBLIC "-//W3C//DTD SVG 1.1//EN" "http://www.w3.org/Graphics/SVG/1.1/DTD/svg11.dtd">
<svg version="1.1" id="Layer_1" xmlns="http://www.w3.org/2000/svg" xmlns:xlink="http://www.w3.org/1999/xlink" x="0px" y="0px"
	 width="50.25px" height="50.25px" viewBox="0 0 50.25 50.25" enable-background="new 0 0 50.25 50.25" xml:space="preserve">
<path fill="#55ACEE" d="M44.686,14.946c0.019,0.439,0.031,0.877,0.031,1.32c0,13.506-10.282,29.078-29.079,29.078
	c-5.776,0-11.146-1.69-15.67-4.592c0.803,0.093,1.618,0.142,2.439,0.142c4.791,0,9.192-1.63,12.69-4.373
	c-4.47-0.085-8.246-3.04-9.541-7.096c0.62,0.115,1.258,0.183,1.921,0.183c0.931,0,1.838-0.128,2.688-0.359
	c-4.67-0.942-8.197-5.07-8.197-10.021c0-0.043,0-0.084,0-0.127c1.381,0.766,2.957,1.222,4.634,1.277
	c-2.742-1.83-4.548-4.963-4.548-8.508c0-1.873,0.505-3.631,1.387-5.139C8.474,12.917,16.01,16.983,24.504,17.41
	c-0.177-0.748-0.268-1.527-0.268-2.329c0-5.643,4.579-10.216,10.223-10.216c2.937,0,5.594,1.24,7.459,3.223
	c2.324-0.456,4.513-1.307,6.489-2.481c-0.767,2.391-2.383,4.391-4.494,5.655c2.067-0.242,4.038-0.796,5.869-1.605
	C48.413,11.706,46.68,13.507,44.686,14.946z"/>
</svg>
