<?xml version="1.0" encoding="utf-8"?>
<!-- Generator: Adobe Illustrator 16.0.0, SVG Export Plug-In . SVG Version: 6.00 Build 0)  -->
<!DOCTYPE svg PUBLIC "-//W3C//DTD SVG 1.1//EN" "http://www.w3.org/Graphics/SVG/1.1/DTD/svg11.dtd">
<svg version="1.1" id="Layer_1" xmlns="http://www.w3.org/2000/svg" xmlns:xlink="http://www.w3.org/1999/xlink" x="0px" y="0px"
	 width="217px" height="186px" viewBox="0 0 217 186" enable-background="new 0 0 217 186" xml:space="preserve">
<polygon fill="#FFFFFF" points="18.039,102.721 34.18,102.721 34.18,14.674 51.056,14.674 51.056,0 1.163,0 1.163,14.674 
	18.039,14.674 "/>
<polygon fill="#FFFFFF" points="76.146,102.721 92.288,102.721 92.288,68.676 112.686,0 97.277,0 84.951,46.812 72.625,0 55.75,0 
	76.146,68.676 "/>
<path fill="#FFFFFF" d="M135.283,64.126h7.631c8.119,0,14.161-2.15,18.122-6.457c3.963-4.304,5.943-10.613,5.943-18.93V25.386
	c0-8.313-1.98-14.624-5.943-18.93C157.075,2.153,151.033,0,142.914,0h-23.773v102.721h16.143V64.126z M135.283,14.674h7.631
	c2.543,0,4.499,0.686,5.869,2.055c1.37,1.371,2.055,3.914,2.055,7.63v15.408c0,3.719-0.685,6.262-2.055,7.631
	c-1.37,1.371-3.326,2.055-5.869,2.055h-7.631V14.674z"/>
<polygon fill="#FFFFFF" points="216.283,88.045 188.402,88.045 188.402,57.963 210.561,57.963 210.561,43.289 188.402,43.289 
	188.402,14.674 216.283,14.674 216.283,0 172.261,0 172.261,102.721 216.283,102.721 "/>
<path fill="#33CCFF" d="M75.545,185.104V174.25H54.918v-22.256h16.393v-10.856H54.918V119.97h20.626v-10.856H42.978v75.991H75.545z
	 M74.047,183.607h-4.313l4.313-4.313V183.607z M74.047,175.747v1.431l-6.43,6.43h-5.371l7.86-7.86H74.047z M67.99,175.747
	l-7.86,7.86h-5.37l7.86-7.86H67.99z M60.503,175.747l-7.86,7.86h-5.371l7.86-7.86H60.503z M69.814,150.497h-4.407l4.407-4.406
	V150.497z M69.814,142.635v1.339l-6.524,6.523h-5.37l7.862-7.862H69.814z M74.047,117.277l-1.196,1.195h-5.37l6.566-6.566V117.277z
	 M73.227,110.61l-7.862,7.862h-5.371l7.862-7.862H73.227z M44.475,111.529l0.918-0.919h5.37l-6.289,6.288V111.529z M44.475,119.016
	l8.406-8.405h5.371l-13.776,13.776V119.016z M44.475,126.504l15.894-15.894h5.37l-7.862,7.862h-2.958h-1.498v1.497v2.958
	l-8.946,8.946V126.504z M44.475,133.991l8.946-8.946v5.371l-8.946,8.945V133.991z M44.475,141.479l8.946-8.945v5.37l-8.946,8.946
	V141.479z M44.475,148.967l8.946-8.946v1.117v1.497h1.498h1.259l-11.702,11.702V148.967z M44.475,156.454l13.819-13.819h5.371
	l-7.862,7.862h-0.884h-1.498v1.497v0.885l-8.946,8.945V156.454z M44.475,163.941l8.946-8.945v5.37l-8.946,8.946V163.941z
	 M44.475,171.43l8.946-8.946v5.371l-8.946,8.945V171.43z M44.475,183.607v-4.69l8.946-8.945v4.278v1.091l-8.266,8.267H44.475z"/>
<path fill="#33CCFF" d="M112.292,113.455c-2.787-2.895-7.292-4.342-13.516-4.342H80.755v75.991h11.941v-30.94h4.125
	c2.75,0,4.74,0.726,5.971,2.173c1.23,1.448,1.846,3.944,1.846,7.49v11.941c0,1.52,0.017,2.787,0.054,3.8
	c0.036,1.014,0.109,1.847,0.217,2.497c0.108,0.649,0.234,1.194,0.38,1.628c0.145,0.436,0.288,0.906,0.434,1.411h12.16
	c-0.581-1.447-0.941-2.877-1.087-4.288s-0.217-3.056-0.217-4.939v-11.726c0-3.978-0.562-7.362-1.683-10.149
	c-1.123-2.786-3.201-4.793-6.243-6.024c5.211-2.459,7.816-7.6,7.816-15.416v-5.971C116.471,120.729,115.078,116.352,112.292,113.455
	z M114.552,121.698l-8.524,8.524v-2.438c0-1.006-0.067-1.913-0.19-2.744l7.448-7.447
	C113.851,118.799,114.272,120.169,114.552,121.698z M102.63,141.573c-1.267,1.157-3.023,1.735-5.265,1.735h-4.668V119.97h5.754
	c2.098,0,3.636,0.615,4.613,1.845c0.978,1.231,1.465,3.223,1.465,5.971v7.491C104.53,138.315,103.896,140.415,102.63,141.573z
	 M111.213,114.493c0.494,0.514,0.927,1.103,1.324,1.731l-7.083,7.083c-0.292-0.953-0.693-1.764-1.218-2.425
	c-0.257-0.324-0.549-0.606-0.862-0.865l6.591-6.591C110.415,113.757,110.84,114.105,111.213,114.493z M108.663,112.612l-6.586,6.586
	c-1.021-0.477-2.228-0.726-3.626-0.726h-1.019l7.282-7.281C106.214,111.521,107.524,112.001,108.663,112.612z M82.253,111.188
	l0.578-0.578h5.371l-5.949,5.948V111.188z M82.253,118.676l8.066-8.065h5.37l-13.436,13.437V118.676z M82.253,126.164l15.553-15.554
	h0.97c1.487,0,2.864,0.09,4.138,0.263l-7.599,7.6h-2.618h-1.498v1.497v2.618l-8.946,8.946V126.164z M82.253,133.651l8.946-8.946
	v5.371l-8.946,8.946V133.651z M82.253,141.14l8.946-8.946v5.369l-8.946,8.946V141.14z M82.253,148.626l8.946-8.946v3.629v1.497
	h0.245l-9.191,9.191V148.626z M82.253,156.114l11.309-11.309h3.804c0.587,0,1.145-0.041,1.68-0.113l-16.792,16.792V156.114z
	 M91.199,182.488l-1.119,1.119h-5.37l6.489-6.489V182.488z M91.199,175.001l-8.606,8.606h-0.34v-5.03l8.946-8.946V175.001z
	 M91.199,167.514l-8.946,8.946v-5.37l8.946-8.946V167.514z M91.199,160.026l-8.946,8.946v-5.371l8.946-8.946V160.026z
	 M115.803,183.607h-1.143l0.93-0.93C115.655,182.987,115.719,183.297,115.803,183.607z M115.298,180.853l-2.755,2.755h-5.371
	l7.911-7.91v0.18C115.083,177.761,115.155,179.432,115.298,180.853z M115.083,173.58l-8.621,8.621
	c-0.025-0.128-0.051-0.241-0.075-0.382c-0.098-0.586-0.164-1.361-0.198-2.306c-0.024-0.658-0.039-1.446-0.047-2.364l8.94-8.939
	V173.58z M115.083,164.151v1.941l-8.946,8.946v-5.371l8.794-8.793C115.028,161.918,115.083,163.006,115.083,164.151z
	 M114.697,158.99l-8.561,8.561v-3.724c0-0.559-0.019-1.087-0.047-1.6l7.485-7.484C114.069,156.016,114.446,157.433,114.697,158.99z
	 M112.884,153.316l-6.992,6.992c-0.247-1.638-0.687-2.98-1.328-4.043l5.722-5.723C111.374,151.294,112.236,152.215,112.884,153.316z
	 M108.093,149.365c0.3,0.122,0.585,0.254,0.863,0.392l-5.312,5.312c-0.884-0.917-2.019-1.576-3.403-1.967l4.923-4.923
	L108.093,149.365z M108.016,146.623l-2.454,1.158l8.559-8.559C113.073,142.741,111.054,145.189,108.016,146.623z M114.974,132.562
	c0,1.421-0.091,2.737-0.267,3.957L98.46,152.766c-0.523-0.059-1.063-0.099-1.638-0.099h-3.634l8.926-8.926
	c0.556-0.296,1.07-0.646,1.528-1.063c0.527-0.482,0.957-1.079,1.307-1.771l10.025-10.024V132.562z M114.974,126.591v2.174
	l-9.125,9.124c0.116-0.794,0.179-1.66,0.179-2.612v-2.937l8.785-8.785C114.91,124.519,114.974,125.521,114.974,126.591z"/>
<path fill="#33CCFF" d="M174.441,109.113h-16.609l-8.143,53.953l-8.792-53.953h-16.61v75.991h10.422v-53.737l8.902,53.737H154.9
	l8.25-54.497v54.497h11.291V109.113z M158.839,112.474l1.863-1.863h5.371l-8.188,8.188L158.839,112.474z M157.508,121.293
	l10.683-10.683h4.754v0.616l-16.391,16.391L157.508,121.293z M156.178,130.11l16.767-16.767v5.37l-17.722,17.722L156.178,130.11z
	 M125.784,110.61h2.851l-2.851,2.851V110.61z M125.784,115.578l4.968-4.968h5.371l-10.339,10.339V115.578z M125.784,123.066
	l12.456-12.456h1.384l0.559,3.428l-14.398,14.398V123.066z M125.784,130.554l14.695-14.695l0.752,4.618l-15.447,15.447V130.554z
	 M133.212,183.607h-0.581l0.581-0.581V183.607z M133.212,180.909l-2.698,2.698h-4.729v-0.642l7.428-7.428V180.909z M133.212,173.421
	l-7.428,7.428v-5.37l7.428-7.428V173.421z M133.212,165.934l-7.428,7.428v-5.37l7.428-7.428V165.934z M133.212,158.446l-7.428,7.428
	v-5.371l7.428-7.428V158.446z M133.212,150.958l-7.428,7.428v-5.37l7.428-7.428V150.958z M133.212,143.472l-7.428,7.427v-5.37
	l7.428-7.428V143.472z M136.187,131.122l-2.975,0.245v4.616l-7.428,7.428v-5.37l15.744-15.744l0.753,4.617l-5.826,5.826
	L136.187,131.122z M136.756,134.557l5.822-5.822l0.752,4.618l-5.812,5.812L136.756,134.557z M137.819,140.98l5.808-5.807
	l0.753,4.617l-5.797,5.797L137.819,140.98z M138.884,147.404l5.792-5.793l0.753,4.618l-5.782,5.781L138.884,147.404z
	 M139.947,153.827l5.778-5.777l0.752,4.618l-5.767,5.767L139.947,153.827z M141.012,160.251l5.763-5.763l0.753,4.617l-5.752,5.753
	L141.012,160.251z M142.076,166.675l5.748-5.748l0.388,2.381l0.364,2.237l-5.737,5.737L142.076,166.675z M143.14,173.099
	l5.733-5.733l0.752,4.618l-5.722,5.723L143.14,173.099z M153.726,182.858l-0.749,0.749h-5.371l7.078-7.078L153.726,182.858z
	 M155.062,174.034l-9.573,9.573h-0.607l-0.677-4.085l11.815-11.815L155.062,174.034z M156.397,165.212l-6.498,6.498l0.954-6.325
	l6.502-6.502L156.397,165.212z M157.733,156.388l-6.503,6.503l0.954-6.325l6.507-6.506L157.733,156.388z M159.068,147.564
	l-6.508,6.508l0.955-6.325l6.512-6.512L159.068,147.564z M160.404,138.741l-6.513,6.513l0.955-6.325l6.516-6.517L160.404,138.741z
	 M164.647,130.607l-1.376-0.104l9.673-9.673v5.37l-8.297,8.297V130.607z M164.647,136.615l8.297-8.297v5.371l-8.297,8.297V136.615z
	 M164.647,144.104l8.297-8.297v5.37l-8.297,8.297V144.104z M164.647,151.591l8.297-8.297v5.37l-8.297,8.298V151.591z
	 M164.647,159.079l8.297-8.297v5.369l-8.297,8.297V159.079z M164.647,166.565l8.297-8.297v5.371l-8.297,8.297V166.565z
	 M164.647,174.054l8.297-8.297v5.37l-8.297,8.297V174.054z M164.647,183.607v-2.066l8.297-8.297v5.371l-4.992,4.992H164.647z
	 M170.069,183.607l2.875-2.875v2.875H170.069z"/>
<path fill="#33CCFF" d="M0.857,119.97h12.484v65.135h11.942V119.97h12.484v-10.856H0.857V119.97z M23.786,182.514l-1.094,1.094
	h-5.371l6.464-6.465V182.514z M23.786,175.025l-8.582,8.582h-0.365v-5.005l8.947-8.947V175.025z M23.786,167.538l-8.947,8.947
	v-5.371l8.947-8.946V167.538z M23.786,160.051l-8.947,8.946v-5.37l8.947-8.947V160.051z M23.786,152.563l-8.947,8.947v-5.37
	l8.947-8.947V152.563z M23.786,145.075l-8.947,8.947v-5.371l8.947-8.946V145.075z M23.786,137.588l-8.947,8.946v-5.37l8.947-8.946
	V137.588z M23.786,130.101l-8.947,8.946v-5.37l8.947-8.947V130.101z M36.271,117.616l-0.856,0.856h-5.371l6.227-6.227V117.616z
	 M35.789,110.61l-7.862,7.862h-2.643h-1.498v1.497v2.643l-8.947,8.947v-5.37l15.579-15.579H35.789z M28.301,110.61l-13.462,13.462
	v-4.103v-1.269l8.091-8.091H28.301z M20.813,110.61l-7.862,7.862h-5.37l7.862-7.862H20.813z M13.326,110.61l-7.862,7.862H2.355
	v-2.262l5.601-5.601H13.326z M5.838,110.61l-3.483,3.483v-3.483H5.838z"/>
<path fill="#33CCFF" d="M216.887,166.865c0-3.616-0.579-6.766-1.736-9.442c-1.159-2.678-2.606-5.065-4.343-7.165
	c-1.737-2.1-3.603-4.034-5.591-5.809c-1.991-1.772-3.854-3.546-5.591-5.319c-1.737-1.772-3.186-3.654-4.343-5.646
	c-1.159-1.989-1.736-4.287-1.736-6.894c0-2.75,0.523-4.686,1.574-5.808c1.048-1.121,2.513-1.683,4.396-1.683
	c1.882,0,3.347,0.562,4.396,1.683c1.049,1.122,1.574,3.058,1.574,5.808v3.147h11.291v-2.387c0-6.15-1.467-10.874-4.397-14.167
	s-7.328-4.939-13.19-4.939s-10.258,1.646-13.189,4.939s-4.397,8.017-4.397,14.167c0,3.62,0.58,6.767,1.737,9.444
	c1.157,2.679,2.605,5.067,4.343,7.166s3.6,4.034,5.59,5.808c1.991,1.772,3.854,3.546,5.593,5.317
	c1.736,1.775,3.182,3.656,4.341,5.646c1.157,1.992,1.737,4.288,1.737,6.895c0,2.751-0.562,4.667-1.684,5.753
	c-1.122,1.085-2.624,1.628-4.504,1.628c-1.883,0-3.384-0.543-4.506-1.628c-1.122-1.086-1.683-3.002-1.683-5.753v-5.428h-11.29v4.666
	c0,6.155,1.501,10.876,4.505,14.169c3.002,3.293,7.438,4.939,13.299,4.939c5.862,0,10.295-1.646,13.299-4.939
	C215.384,177.741,216.887,173.021,216.887,166.865z M215.282,128.241h-0.33l0.33-0.33V128.241z M215.236,125.84l-2.401,2.401h-5.37
	l7.155-7.155C214.956,122.539,215.16,124.126,215.236,125.84z M214.162,119.427l-7.177,7.177v-0.013
	c0-1.877-0.232-3.418-0.693-4.665l6.155-6.155C213.147,116.853,213.722,118.07,214.162,119.427z M211.264,114.18
	c0.103,0.115,0.19,0.248,0.29,0.367l-5.967,5.967c-0.178-0.27-0.367-0.526-0.58-0.754c-0.677-0.723-1.483-1.264-2.411-1.624
	l6.091-6.091C209.654,112.645,210.523,113.348,211.264,114.18z M187.12,114.181c1.511-1.696,3.514-2.896,5.958-3.62l-8.852,8.852
	C184.896,117.357,185.854,115.602,187.12,114.181z M183.102,127.352c0-1.855,0.156-3.558,0.437-5.135l12.239-12.238
	c1.074-0.149,2.205-0.236,3.414-0.236c0.728,0,1.427,0.032,2.105,0.087l-18.169,18.169
	C183.124,127.779,183.102,127.574,183.102,127.352z M183.229,130.014l19.952-19.951c1.522,0.256,2.895,0.676,4.126,1.244l-6.4,6.4
	c-0.444-0.064-0.904-0.104-1.39-0.104c-2.305,0-4.152,0.726-5.489,2.156c-1.328,1.418-1.974,3.645-1.978,6.804l-7.945,7.945
	C183.675,133.131,183.38,131.632,183.229,130.014z M184.717,136.202c-0.019-0.044-0.031-0.094-0.05-0.138l7.495-7.495
	c0.171,1.519,0.547,2.938,1.118,4.251l-6.81,6.81C185.825,138.545,185.235,137.403,184.717,136.202z M188.838,143.007
	c-0.545-0.658-1.052-1.363-1.539-2.088l6.688-6.688c0,0.002,0.001,0.003,0.002,0.005c0.635,1.093,1.363,2.159,2.17,3.194
	l-6.514,6.514C189.374,143.634,189.102,143.325,188.838,143.007z M190.643,145.063l6.469-6.469c0.461,0.537,0.939,1.067,1.445,1.583
	c0.379,0.387,0.788,0.774,1.18,1.162l-6.424,6.424C192.396,146.903,191.505,146.002,190.643,145.063z M194.412,148.781l6.391-6.391
	c0.902,0.868,1.83,1.731,2.78,2.591l-6.374,6.374C196.299,150.49,195.363,149.631,194.412,148.781z M199.936,154.038
	c-0.535-0.545-1.103-1.088-1.659-1.633l6.408-6.408c0.93,0.852,1.833,1.74,2.705,2.664l-6.457,6.457
	C200.607,154.755,200.281,154.392,199.936,154.038z M201.904,156.264l6.503-6.502c0.424,0.476,0.84,0.959,1.246,1.45
	c0.402,0.486,0.788,0.992,1.159,1.515l-6.674,6.674C203.477,158.326,202.73,157.279,201.904,156.264z M204.911,160.745l6.742-6.742
	c0.692,1.1,1.318,2.267,1.877,3.493l-7.319,7.32C205.969,163.363,205.537,162.001,204.911,160.745z M214.135,159.01
	c0.478,1.328,0.816,2.781,1.017,4.354l-9.946,9.945c0.829-1.371,1.237-3.244,1.237-5.682c0-0.304-0.011-0.603-0.026-0.899
	L214.135,159.01z M182.776,163.696h2.092l-2.092,2.092V163.696z M182.808,167.874l4.178-4.178h4.087v1.282l-7.725,7.725
	C183.03,171.228,182.859,169.607,182.808,167.874z M183.785,174.383l7.287-7.287v0.531c0,1.68,0.197,3.086,0.588,4.252l-6.204,6.204
	C184.772,176.98,184.207,175.754,183.785,174.383z M186.891,180.025c-0.2-0.219-0.377-0.463-0.563-0.697l5.996-5.996
	c0.257,0.421,0.55,0.798,0.887,1.124c0.59,0.569,1.265,1.015,2.012,1.348l-6.114,6.114
	C188.287,181.373,187.546,180.744,186.891,180.025z M190.447,182.696l6.384-6.384c0.606,0.123,1.246,0.192,1.927,0.192
	c1.709,0,3.187-0.39,4.412-1.16l-8.689,8.689C193.001,183.737,191.646,183.301,190.447,182.696z M199.083,184.477
	c-0.969,0-1.881-0.065-2.766-0.162l19.008-19.008c0.027,0.515,0.064,1.022,0.064,1.559c0,1.414-0.086,2.747-0.254,4l-13.471,13.471
	C200.836,184.419,199.984,184.477,199.083,184.477z M211.275,180.025c-1.766,1.935-4.146,3.232-7.089,3.906l10.425-10.424
	C213.937,176.126,212.833,178.317,211.275,180.025z"/>
</svg>
