<?xml version="1.0" encoding="utf-8"?>
<!-- Generator: Adobe Illustrator 18.1.1, SVG Export Plug-In . SVG Version: 6.00 Build 0)  -->
<svg version="1.1" id="Layer_1" xmlns="http://www.w3.org/2000/svg" xmlns:xlink="http://www.w3.org/1999/xlink" x="0px" y="0px"
	 width="270.911px" height="241.722px" viewBox="0 0 270.911 241.722" enable-background="new 0 0 270.911 241.722"
	 xml:space="preserve">
<path fill="#FFFFFF" d="M222.566,200.675L132.262,98.513l65.676-58.378c22.348-19.611,31.013-24.172,53.817-24.172V0H133.175v15.963
	c23.716,0,36.943,4.561,36.943,10.946c0,6.384-13.227,18.243-40.591,45.151L87.11,113.564V0H43.784v172.398
	c0,43.328-7.298,51.993-43.784,53.361v15.963h129.526v-15.963c-36.487-1.368-42.416-9.578-42.416-56.554v-26.908l16.875-15.963
	l48.345,58.378c14.594,17.787,24.628,31.469,25.083,36.03c0,3.193-6.385,5.017-26.452,5.017v15.963h119.949v-15.963
	C247.651,225.759,239.897,220.742,222.566,200.675z"/>
</svg>
