<?xml version="1.0" encoding="utf-8"?>
<!-- Generator: Adobe Illustrator 18.1.1, SVG Export Plug-In . SVG Version: 6.00 Build 0)  -->
<svg version="1.1" id="Layer_1" xmlns="http://www.w3.org/2000/svg" xmlns:xlink="http://www.w3.org/1999/xlink" x="0px" y="0px"
	 width="391px" height="2px" viewBox="0 0 391 2" enable-background="new 0 0 391 2" xml:space="preserve">
<g>
	<g>
		<rect x="383" y="0" fill="#696A82" width="8" height="2"/>
	</g>
	<g>
		<path fill="#696A82" d="M366.695,2h-16.305V0h16.305V2z M334.087,2h-16.305V0h16.305V2z M301.478,2h-16.304V0h16.304V2z
			 M268.869,2h-16.305V0h16.305V2z M236.261,2h-16.305V0h16.305V2z M203.651,2h-16.304V0h16.304V2z M171.043,2h-16.305V0h16.305V2z
			 M138.435,2H122.13V0h16.305V2z M105.826,2H89.521V0h16.305V2z M73.217,2H56.913V0h16.304V2z M40.608,2H24.304V0h16.305V2z"/>
	</g>
	<g>
		<rect x="0" y="0" fill="#696A82" width="8" height="2"/>
	</g>
</g>
</svg>
