<?xml version="1.0" encoding="utf-8"?>
<!-- Generator: Adobe Illustrator 18.1.1, SVG Export Plug-In . SVG Version: 6.00 Build 0)  -->
<svg version="1.1" id="Layer_1" xmlns="http://www.w3.org/2000/svg" xmlns:xlink="http://www.w3.org/1999/xlink" x="0px" y="0px"
	 width="392.436px" height="336.375px" viewBox="0 0 392.436 336.375" enable-background="new 0 0 392.436 336.375"
	 xml:space="preserve">
<path fill="#FFFFFF" d="M112.748,238.577c0,67.275,3.737,73.504,51.702,76.619v21.179H1.247v-21.179
	c46.096-3.115,52.325-9.966,52.325-72.257v-82.848c0-48.588-1.247-79.733-3.739-90.324C44.851,47.343,36.13,43.606,0,43.606V23.671
	L99.667,0l7.474,61.668h2.492C140.779,23.049,185.005,0,234.215,0c37.999,0,71.636,13.705,88.454,34.884
	c14.328,19.31,19.312,46.718,19.312,99.665v104.027c0,67.275,4.982,73.504,50.455,76.619v21.179H231.101v-21.179
	c46.72-2.492,51.702-10.589,51.702-72.257v-82.225c0-94.061-19.31-127.076-71.012-127.076c-36.752,0-70.389,21.179-87.83,54.817
	c-8.721,16.82-11.213,27.408-11.213,66.652V238.577z"/>
</svg>
