<?xml version="1.0" encoding="utf-8"?>
<!-- Generator: Adobe Illustrator 16.0.3, SVG Export Plug-In . SVG Version: 6.00 Build 0)  -->
<!DOCTYPE svg PUBLIC "-//W3C//DTD SVG 1.1//EN" "http://www.w3.org/Graphics/SVG/1.1/DTD/svg11.dtd">
<svg version="1.1" id="Layer_1" xmlns="http://www.w3.org/2000/svg" xmlns:xlink="http://www.w3.org/1999/xlink" x="0px" y="0px"
	 width="88.884px" height="46.334px" viewBox="0 0 88.884 46.334" enable-background="new 0 0 88.884 46.334" xml:space="preserve">
<path fill="#33CCFF" d="M88.884,28.841C88.884,11.348,74.228,0,51.533,0C37.351,0,21.275,7.564,0,25.059l0,0
	c4.402,4.385,8.301,9.424,11.47,14.573c7.529-5.146,15.52-7.955,23.043-7.955c15.603,0,17.967,14.657,35.459,14.657
	C80.846,46.334,88.884,39.241,88.884,28.841z M2.919,25.26c1.941-1.569,3.832-3.031,5.694-4.436l-5.095,5.095
	C3.316,25.702,3.124,25.475,2.919,25.26z M4.866,27.399l13.237-13.237c4.135-2.67,8.077-4.896,11.845-6.672L7.235,30.203
	C6.466,29.25,5.676,28.315,4.866,27.399z M8.477,31.79L34.886,5.381c2.56-0.979,5.039-1.731,7.452-2.28L10.659,34.778
	C9.954,33.765,9.227,32.769,8.477,31.79z M12.071,36.843c-0.085-0.131-0.178-0.255-0.263-0.385l34.019-34.02
	c1.909-0.278,3.779-0.431,5.609-0.436L21.181,32.259C18.127,33.414,15.075,34.943,12.071,36.843z M25.349,30.919L54.205,2.063
	c1.642,0.069,3.237,0.2,4.777,0.396L31.636,29.805C29.561,29.984,27.46,30.36,25.349,30.919z M34.59,29.679L61.438,2.831
	c1.461,0.258,2.87,0.575,4.224,0.949L39.293,30.148C37.849,29.856,36.294,29.685,34.59,29.679z M41.544,30.726L67.832,4.438
	c1.293,0.435,2.524,0.929,3.702,1.472L45.195,32.247C44.058,31.657,42.85,31.139,41.544,30.726z M47.002,33.269L73.425,6.847
	c1.127,0.608,2.185,1.275,3.183,1.989L50.073,35.37C49.087,34.638,48.072,33.927,47.002,33.269z M52.354,37.111
	c-0.224-0.174-0.448-0.348-0.673-0.521l26.525-26.525c0.953,0.793,1.83,1.642,2.636,2.537L54.61,38.834
	C53.854,38.272,53.107,37.696,52.354,37.111z M56.261,40.011l25.865-25.864c0.758,1.001,1.426,2.059,2.009,3.164L59.503,41.942
	C58.362,41.366,57.293,40.714,56.261,40.011z M61.459,42.814l23.582-23.582c0.521,1.256,0.935,2.568,1.236,3.936L65.495,43.95
	C64.029,43.688,62.698,43.298,61.459,42.814z M69.972,44.334c-0.68,0-1.324-0.031-1.955-0.077l18.67-18.67
	c0.127,1.059,0.197,2.141,0.197,3.254c0,0.622-0.039,1.229-0.103,1.824L73.382,44.064C72.291,44.237,71.154,44.334,69.972,44.334z
	 M77.265,43.01l8.655-8.655C84.462,38.338,81.403,41.384,77.265,43.01z"/>
</svg>
