
<svg version="1.1" id="Layer_1" xmlns="http://www.w3.org/2000/svg" xmlns:xlink="http://www.w3.org/1999/xlink" x="0px" y="0px"
	 width="125.696px" height="50.158px" viewBox="0 0 125.696 50.158" enable-background="new 0 0 125.696 50.158"
	 xml:space="preserve">
<path fill="#33CCFF" d="M123.321,31.801c-0.081-0.002-0.162-0.002-0.242-0.002c-0.785-0.006-1.56-0.014-2.321-0.025
	c-0.074-0.002-0.147-0.002-0.222-0.004c-0.705-0.012-1.4-0.025-2.084-0.043c-0.301-0.008-0.594-0.016-0.887-0.025
	c-0.269-0.008-0.535-0.016-0.8-0.023c-1.925-0.068-3.712-0.164-5.413-0.291c-2.559-0.189-4.935-0.459-7.063-0.797
	c-2.359-0.377-4.498-0.857-6.358-1.428c-2.033-0.623-3.843-1.389-5.379-2.277c-1.662-0.959-3.018-2.053-4.145-3.346
	c-1.189-1.365-2.087-2.906-2.741-4.711c-0.677-1.865-1.084-4.018-1.209-6.396c-0.029-0.561-0.047-1.135-0.047-1.727
	c0-0.619,0.028-1.275,0.06-1.938c0.086-1.404,0.46-4.689,0.46-4.689L85.599,0h-6.57h-7.953h-7.944h-7.954h-4.378h-0.362
	C40.271,21.885,27.249,28.826,0,31.809v0.104v7.357v7.955v2.934h7.02h7.954h7.943h7.954h7.96h7.953h7.953h7.954h7.953h7.953h7.954
	h7.953h7.953h7.953h7.953h7.332v-7.332v-7.953v-3.064C124.892,31.809,124.102,31.805,123.321,31.801z M123.696,42.412l-5.746,5.746
	h-5.125l10.871-10.871V42.412z M82.454,8.986c-0.029,0.572-0.044,1.141-0.044,1.719c0,0.471,0.017,0.926,0.033,1.379L46.37,48.158
	h-5.125L82.597,6.807C82.53,7.557,82.483,8.283,82.454,8.986z M82.651,14.703c0.188,1.512,0.48,2.924,0.895,4.23L54.323,48.158
	h-5.125L82.651,14.703z M84.333,20.975c0.525,1.164,1.16,2.236,1.908,3.219L62.277,48.158h-5.126L84.333,20.975z M87.551,25.713
	c0.831,0.848,1.769,1.619,2.81,2.316L70.23,48.158h-5.125L87.551,25.713z M92.128,29.09c0.579,0.311,1.176,0.609,1.809,0.883
	c0.562,0.244,1.15,0.467,1.75,0.682L78.184,48.158h-5.125L92.128,29.09z M97.829,31.34c1.308,0.373,2.696,0.691,4.161,0.965
	L86.138,48.158h-5.126L97.829,31.34z M104.416,32.707c1.464,0.211,2.996,0.387,4.597,0.529L94.091,48.158h-5.125L104.416,32.707z
	 M111.641,33.436c1.571,0.104,3.197,0.182,4.888,0.238l-14.484,14.484h-5.125L111.641,33.436z M119.282,33.748
	c1.45,0.031,2.928,0.053,4.414,0.059v0.652l-13.699,13.699h-5.125L119.282,33.748z M82.972,3.604L38.417,48.158h-5.132L79.442,2
	h3.766C83.118,2.549,83.047,3.074,82.972,3.604z M5.603,33.254L2,36.855v-3.152C3.235,33.561,4.437,33.41,5.603,33.254z M2,39.684
	l6.917-6.916c2.244-0.357,4.33-0.752,6.312-1.186L2,44.811V39.684z M32.196,25.395c6.36-3.664,11.372-8.674,15.751-15.75L55.591,2
	h5.126L14.56,48.158H9.434L32.196,25.395z M63.545,2h5.116L22.503,48.158h-5.115L63.545,2z M71.489,2h5.125L30.457,48.158h-5.126
	L71.489,2z M52.763,2l-1.348,1.35c0.219-0.447,0.439-0.889,0.657-1.35H52.763z M2,47.639l16.956-16.957
	c2.787-0.744,5.34-1.602,7.705-2.58L6.605,48.158H2V47.639z M120.778,48.158l2.918-2.918v2.918H120.778z"/>
</svg>
