<?xml version="1.0" encoding="utf-8"?>
<!-- Generator: Adobe Illustrator 18.1.1, SVG Export Plug-In . SVG Version: 6.00 Build 0)  -->
<svg version="1.1" id="Layer_1" xmlns="http://www.w3.org/2000/svg" xmlns:xlink="http://www.w3.org/1999/xlink" x="0px" y="0px"
	 width="150.055px" height="262.185px" viewBox="0 0 150.055 262.185" enable-background="new 0 0 150.055 262.185"
	 xml:space="preserve">
<g>
	<path fill="#33CCFF" d="M45.493,11.87L12.797,44.567c-0.94,1.585-1.849,3.198-2.706,4.852c-0.246,0.474-0.485,0.941-0.721,1.403
		L51.545,8.648C49.489,9.643,47.47,10.716,45.493,11.87z"/>
	<path fill="#33CCFF" d="M60.349,4.968L5.212,60.105c-0.5,1.356-0.959,2.749-1.38,4.208L64.557,3.588
		C63.142,4.011,61.74,4.474,60.349,4.968z"/>
	<path fill="#33CCFF" d="M71.429,1.842L2.28,70.991c-0.197,1.076-0.379,2.2-0.547,3.376L74.912,1.187
		C73.745,1.383,72.584,1.598,71.429,1.842z"/>
	<path fill="#33CCFF" d="M80.818,0.407L1.051,80.174c-0.093,0.991-0.18,2.023-0.26,3.088L83.887,0.166
		C82.86,0.228,81.838,0.309,80.818,0.407z"/>
	<path fill="#33CCFF" d="M89.177,0L0.454,88.723c-0.048,0.958-0.092,1.943-0.132,2.96L91.967,0.038
		C91.047,0.015,90.118,0.001,89.177,0z"/>
	<path fill="#33CCFF" d="M96.85,0.28L0.157,96.974c-0.023,0.939-0.043,1.903-0.061,2.889L99.442,0.516
		C98.589,0.424,97.724,0.346,96.85,0.28z"/>
	<path fill="#33CCFF" d="M103.933,1.151L0.027,105.057c-0.008,0.933-0.015,1.875-0.02,2.848L106.301,1.61
		C105.523,1.441,104.732,1.291,103.933,1.151z"/>
	<path fill="#33CCFF" d="M110.37,2.668L0,113.037v2.828L112.501,3.364C111.801,3.115,111.089,2.885,110.37,2.668z"/>
	<path fill="#33CCFF" d="M116.142,4.85L0,120.991v2.828L118.041,5.779C117.418,5.451,116.782,5.145,116.142,4.85z"/>
	<path fill="#33CCFF" d="M121.262,7.682L0,128.944v2.828L122.933,8.839C122.384,8.437,121.827,8.052,121.262,7.682z"/>
	<path fill="#33CCFF" d="M125.773,11.125L0,136.898v2.828L127.232,12.495C126.752,12.024,126.267,11.564,125.773,11.125z"/>
	<path fill="#33CCFF" d="M129.702,15.14L0,144.842v2.828L130.977,16.694C130.558,16.16,130.133,15.643,129.702,15.14z"/>
	<path fill="#33CCFF" d="M133.129,19.667L0,152.796v2.828L134.235,21.389C133.873,20.799,133.504,20.227,133.129,19.667z"/>
	<path fill="#33CCFF" d="M136.099,24.657L0,160.756v2.828L137.054,26.53C136.741,25.891,136.422,25.268,136.099,24.657z"/>
	<path fill="#33CCFF" d="M138.656,30.053L0,168.709v2.828L139.476,32.061C139.208,31.378,138.934,30.709,138.656,30.053z"/>
	<path fill="#33CCFF" d="M140.85,35.812L0,176.662v2.828L141.552,37.939C141.322,37.217,141.089,36.508,140.85,35.812z"/>
	<path fill="#33CCFF" d="M142.728,41.889L0,184.616v2.828L143.326,44.119C143.131,43.362,142.931,42.621,142.728,41.889z"/>
	<path fill="#33CCFF" d="M144.32,48.249L0,192.569v2.37c0,0.154,0,0.305,0,0.458L144.823,50.574
		C144.659,49.788,144.491,49.012,144.32,48.249z"/>
	<path fill="#33CCFF" d="M145.662,54.86L0.009,200.514c0.003,0.947,0.008,1.885,0.013,2.815L146.087,57.264
		C145.949,56.45,145.806,55.653,145.662,54.86z"/>
	<path fill="#33CCFF" d="M146.778,61.698L0.067,208.409c0.012,0.939,0.025,1.869,0.04,2.788l147.02-147.02
		C147.014,63.34,146.898,62.515,146.778,61.698z"/>
	<path fill="#33CCFF" d="M147.697,68.733L0.216,216.214c0.025,0.928,0.055,1.839,0.087,2.741L147.98,71.279
		C147.889,70.421,147.795,69.571,147.697,68.733z"/>
	<path fill="#33CCFF" d="M148.44,75.943L0.515,223.868c0.047,0.906,0.098,1.8,0.154,2.675L148.662,78.549
		C148.59,77.673,148.517,76.801,148.44,75.943z"/>
	<path fill="#33CCFF" d="M149.022,83.313L1.038,231.297c0.08,0.875,0.165,1.735,0.258,2.57L149.191,85.972
		C149.137,85.08,149.082,84.189,149.022,83.313z"/>
	<path fill="#33CCFF" d="M149.46,90.829L1.9,238.389c0.131,0.829,0.272,1.63,0.421,2.407l147.26-147.261
		C149.543,92.627,149.504,91.721,149.46,90.829z"/>
	<path fill="#33CCFF" d="M149.768,98.467L3.287,244.948c0.21,0.754,0.434,1.474,0.672,2.156l145.889-145.889
		C149.823,100.291,149.797,99.374,149.768,98.467z"/>
	<path fill="#33CCFF" d="M149.959,106.229L5.523,250.664c0.21,0.378,0.425,0.743,0.652,1.082c0.146,0.218,0.299,0.429,0.457,0.637
		l143.37-143.369C149.99,108.076,149.975,107.151,149.959,106.229z"/>
	<path fill="#33CCFF" d="M150.044,113.998L9.157,254.885c0.523,0.393,1.089,0.765,1.713,1.116l139.184-139.184
		C150.053,115.867,150.048,114.934,150.044,113.998z"/>
	<path fill="#33CCFF" d="M14.424,257.572c0.673,0.237,1.389,0.462,2.153,0.676l133.478-133.478v-2.828L14.424,257.572z"/>
	<path fill="#33CCFF" d="M23.133,259.644l126.922-126.921v-2.828L20.733,259.216C21.497,259.364,22.295,259.507,23.133,259.644z"/>
	<path fill="#33CCFF" d="M30.162,260.57l119.893-119.893v-2.828L27.624,260.279C28.44,260.379,29.286,260.476,30.162,260.57z"/>
	<path fill="#33CCFF" d="M37.454,261.23l112.601-112.601v-2.828L34.839,261.017C35.687,261.09,36.558,261.161,37.454,261.23z"/>
	<path fill="#33CCFF" d="M42.35,261.577l2.545,0.165l105.16-105.16v-2.828L42.239,261.57
		C42.277,261.572,42.312,261.575,42.35,261.577z"/>
	<polygon fill="#33CCFF" points="51.702,262.185 52.407,262.183 150.055,164.536 150.055,161.708 49.707,262.055 	"/>
	<polygon fill="#33CCFF" points="60.379,262.165 150.055,172.489 150.055,169.661 57.545,262.171 	"/>
	<polygon fill="#33CCFF" points="68.352,262.146 150.055,180.443 150.055,177.615 65.517,262.152 	"/>
	<polygon fill="#33CCFF" points="76.323,262.127 150.055,188.396 150.055,185.568 73.489,262.134 	"/>
	<polygon fill="#33CCFF" points="84.295,262.109 150.055,196.349 150.055,193.521 81.461,262.115 	"/>
	<path fill="#33CCFF" d="M92.258,262.09l57.784-57.784c0.005-0.931,0.008-1.879,0.01-2.838l-60.629,60.629L92.258,262.09z"/>
	<path fill="#33CCFF" d="M98.353,262.076l1.979-0.105l49.621-49.621c0.017-0.943,0.032-1.897,0.044-2.873l-52.602,52.601
		L98.353,262.076z"/>
	<path fill="#33CCFF" d="M107.82,261.571c0.313-0.017,0.614-0.035,0.922-0.052l40.983-40.983c0.038-0.954,0.071-1.934,0.101-2.929
		l-44.075,44.075L107.82,261.571z"/>
	<path fill="#33CCFF" d="M117.299,260.917l31.945-31.945c0.077-0.987,0.148-1.998,0.213-3.041l-35.235,35.235
		C115.281,261.087,116.31,261.005,117.299,260.917z"/>
	<path fill="#33CCFF" d="M126.339,259.829l21.888-21.888c0.167-1.049,0.319-2.145,0.459-3.287l-25.649,25.649
		C124.194,260.155,125.296,259.998,126.339,259.829z"/>
	<path fill="#33CCFF" d="M137.277,256.845l7.952-7.952c0.605-1.312,1.138-2.785,1.606-4.434l-13.976,13.976
		C134.528,257.965,135.992,257.438,137.277,256.845z"/>
</g>
</svg>
