
<svg version="1.1" id="Layer_1" xmlns="http://www.w3.org/2000/svg" xmlns:xlink="http://www.w3.org/1999/xlink" x="0px" y="0px"
	 width="173.407px" height="50.158px" viewBox="0 0 173.407 50.158" enable-background="new 0 0 173.407 50.158"
	 xml:space="preserve">
<path fill="#33CCFF" d="M117.98,0H39.375c1.237,4.746,1.911,8.752,1.911,12.082c0,14.68-11.928,17.893-41.286,19.268v18.809h173.406
	V31.35C143.635,28.371,131.752,24.914,117.98,0z M59.388,2L42.17,19.219c0.656-1.82,1.019-3.883,1.093-6.219l11-11H59.388z
	 M51.435,2l-8.214,8.215c-0.088-1.396-0.281-2.92-0.564-4.561L46.31,2H51.435z M43.481,2l-1.274,1.275
	C42.117,2.857,42.025,2.434,41.926,2H43.481z M12.992,32.488L2,43.482v-5.125l5.423-5.424C9.365,32.803,11.217,32.654,12.992,32.488
	z M2,33.254c0.816-0.043,1.616-0.086,2.406-0.131L2,35.529V33.254z M2,48.158v-1.846l14.144-14.146
	c2.117-0.24,4.103-0.516,5.96-0.836L5.277,48.158H2z M8.105,48.158l17.532-17.531c2.854-0.643,5.362-1.42,7.503-2.379l-19.91,19.91
	H8.105z M16.059,48.158L62.216,2h5.126L21.184,48.158H16.059z M24.012,48.158L70.17,2h5.125L29.138,48.158H24.012z M31.966,48.158
	L78.123,2h5.125L37.091,48.158H31.966z M39.919,48.158L86.076,2h5.126L45.045,48.158H39.919z M47.873,48.158L94.03,2h5.116
	L52.988,48.158H47.873z M55.816,48.158L101.975,2h5.125L60.942,48.158H55.816z M63.771,48.158L109.928,2h5.132L68.902,48.158H63.771
	z M71.73,48.158l45.473-45.473c0.638,1.113,1.273,2.188,1.908,3.215L76.855,48.158H71.73z M79.684,48.158l40.525-40.525
	c0.688,1.064,1.379,2.082,2.07,3.053L84.809,48.158H79.684z M87.637,48.158l35.84-35.84c0.755,0.996,1.514,1.947,2.281,2.844
	L92.763,48.158H87.637z M95.591,48.158l31.497-31.498c0.84,0.912,1.691,1.764,2.557,2.568l-28.929,28.93H95.591z M103.544,48.158
	l27.595-27.596c0.943,0.799,1.903,1.545,2.887,2.238l-25.356,25.357H103.544z M111.497,48.158l24.225-24.225
	c1.06,0.67,2.149,1.285,3.27,1.855l-22.368,22.369H111.497z M119.451,48.158l21.453-21.455c1.182,0.531,2.4,1.02,3.66,1.465
	l-19.988,19.99H119.451z M127.404,48.158l19.282-19.283c1.294,0.402,2.63,0.77,4.018,1.107l-18.175,18.176H127.404z M135.357,48.158
	l17.65-17.65c1.385,0.295,2.82,0.566,4.305,0.818l-16.83,16.832H135.357z M143.311,48.158l16.439-16.441
	c1.451,0.221,2.95,0.428,4.502,0.625l-15.816,15.816H143.311z M151.264,48.158l15.51-15.512c1.492,0.174,3.023,0.342,4.611,0.506
	l-15.004,15.006H151.264z M159.209,48.158l12.197-12.197v5.125l-7.072,7.072H159.209z M171.406,48.158h-4.244l4.244-4.244V48.158z"
	/>
</svg>
