<?xml version="1.0" encoding="utf-8"?>
<!-- Generator: Adobe Illustrator 18.1.1, SVG Export Plug-In . SVG Version: 6.00 Build 0)  -->
<svg version="1.1" id="Layer_1" xmlns="http://www.w3.org/2000/svg" xmlns:xlink="http://www.w3.org/1999/xlink" x="0px" y="0px"
	 width="255.77px" height="330.154px" viewBox="0 0 255.77 330.154" enable-background="new 0 0 255.77 330.154"
	 xml:space="preserve">
<path fill="#FFFFFF" d="M73.986,266.908c0,43.755,2.386,47.335,32.618,49.324v13.922H0.796v-13.922
	c30.629-1.989,34.208-6.364,34.208-46.54V103.024c0-31.027-0.795-48.926-2.784-58.473C29.834,31.823,23.868,28.64,0,28.64V15.116
	L73.191,0v151.553h1.591c16.308-21.082,48.926-36.198,77.963-36.198c24.265,0,46.142,9.149,57.281,23.469
	c9.148,11.933,13.126,30.629,13.126,64.44v63.645c0,43.357,2.388,47.335,32.618,49.324v13.922H150.359v-13.922
	c30.232-1.591,33.413-6.364,33.413-46.54v-50.119c0-59.667-12.331-82.341-44.949-82.341c-24.661,0-46.539,13.524-58.074,35.801
	c-5.569,11.137-6.763,18.695-6.763,42.96V266.908z"/>
</svg>
