<?xml version="1.0" encoding="utf-8"?>
<!-- Generator: Adobe Illustrator 18.1.1, SVG Export Plug-In . SVG Version: 6.00 Build 0)  -->
<svg version="1.1" id="Layer_1" xmlns="http://www.w3.org/2000/svg" xmlns:xlink="http://www.w3.org/1999/xlink" x="0px" y="0px"
	 width="114.957px" height="320.209px" viewBox="0 0 114.957 320.209" enable-background="new 0 0 114.957 320.209"
	 xml:space="preserve">
<path fill="#FFFFFF" d="M77.964,256.964c0,40.971,5.569,48.13,36.993,49.324v13.922H0.796v-13.922
	c32.219-1.591,38.186-9.149,38.186-46.54v-50.915c0-30.629-0.795-51.313-2.784-58.473C33.812,138.029,26.254,134.448,0,134.448
	v-13.922l77.964-15.116V256.964z M56.883,0c13.922,0,24.661,10.741,24.661,24.663S70.805,49.325,56.883,49.325
	c-13.923,0-24.663-10.741-24.663-24.663S42.96,0,56.883,0z"/>
</svg>
