<?xml version="1.0" encoding="utf-8"?>
<!-- Generator: Adobe Illustrator 18.1.1, SVG Export Plug-In . SVG Version: 6.00 Build 0)  -->
<svg version="1.1" id="Layer_1" xmlns="http://www.w3.org/2000/svg" xmlns:xlink="http://www.w3.org/1999/xlink" x="0px" y="0px"
	 width="73.469px" height="151.734px" viewBox="0 0 73.469 151.734" enable-background="new 0 0 73.469 151.734"
	 xml:space="preserve">
<g>
	<path fill="#33CCFF" d="M13.987,0.552c-1.156,0.134-2.271,0.291-3.312,0.483L2.17,9.542c-0.162,0.793-0.338,1.872-0.519,3.347
		L13.987,0.552z"/>
	<path fill="#33CCFF" d="M22.51-0.017c-0.978,0.03-1.963,0.068-2.947,0.119L1.112,18.553c-0.07,0.932-0.139,1.94-0.206,3.034
		L22.51-0.017z"/>
	<path fill="#33CCFF" d="M30.551-0.105h-1.57c-0.411,0-0.834,0.001-1.261,0.003L0.625,26.993c-0.042,0.938-0.082,1.919-0.121,2.948
		L30.551-0.105z"/>
	<path fill="#33CCFF" d="M38.505-0.105h-2.828L0.333,35.239c-0.026,0.933-0.05,1.905-0.073,2.901L38.505-0.105z"/>
	<path fill="#33CCFF" d="M46.45-0.098c-0.671-0.005-1.331-0.008-1.964-0.008H43.63L0.155,43.37c-0.016,0.935-0.03,1.888-0.043,2.872
		L46.45-0.098z"/>
	<path fill="#33CCFF" d="M54.189,0.118C53.284,0.069,52.379,0.03,51.478,0L0,51.478v2.828L54.189,0.118z"/>
	<path fill="#33CCFF" d="M61.45,0.81c-0.806-0.123-1.649-0.226-2.51-0.318L0,59.432v2.828L61.45,0.81z"/>
	<path fill="#33CCFF" d="M67.734,2.48c-0.087-0.04-0.176-0.079-0.266-0.12c-0.535-0.238-1.145-0.449-1.798-0.644L0,67.386v2.828
		L67.734,2.48z"/>
	<path fill="#33CCFF" d="M70.798,7.369c-0.188-0.904-0.393-1.632-0.615-2.213L0,75.339v2.828L70.798,7.369z"/>
	<path fill="#33CCFF" d="M71.962,14.157c-0.104-0.969-0.208-1.806-0.31-2.518L0,83.291v2.828L71.962,14.157z"/>
	<path fill="#33CCFF" d="M72.558,21.515c-0.058-0.946-0.118-1.826-0.178-2.65L0,91.245v2.828L72.558,21.515z"/>
	<path fill="#33CCFF" d="M72.932,29.087c-0.037-0.945-0.076-1.849-0.115-2.713L0,99.19v2.828L72.932,29.087z"/>
	<path fill="#33CCFF" d="M73.177,36.794c-0.024-0.95-0.049-1.863-0.076-2.752L0,107.143v2.828L73.177,36.794z"/>
	<path fill="#33CCFF" d="M73.285,41.714L0,114.998v0.195c0,0.895,0.005,1.763,0.013,2.62l73.319-73.319
		C73.317,43.546,73.302,42.615,73.285,41.714z"/>
	<path fill="#33CCFF" d="M73.469,52.311v-2.828L0.074,122.878c0.016,0.931,0.035,1.856,0.058,2.77L73.469,52.311z"/>
	<path fill="#33CCFF" d="M73.469,60.264v-2.828L0.315,130.59c0.045,0.912,0.099,1.799,0.158,2.67L73.469,60.264z"/>
	<path fill="#33CCFF" d="M73.469,68.218V65.39L0.901,137.958c0.104,0.867,0.22,1.693,0.35,2.478L73.469,68.218z"/>
	<path fill="#33CCFF" d="M73.469,76.171v-2.828l-71.26,71.26c0.248,0.763,0.522,1.436,0.83,1.998L73.469,76.171z"/>
	<path fill="#33CCFF" d="M73.469,84.124v-2.828L5.759,149.005c0.602,0.277,1.288,0.53,2.072,0.756L73.469,84.124z"/>
	<path fill="#33CCFF" d="M73.469,92.077v-2.828l-61.401,61.402c0.784,0.123,1.609,0.237,2.485,0.343L73.469,92.077z"/>
	<path fill="#33CCFF" d="M73.469,100.031v-2.828l-54.255,54.255c0.844,0.07,1.728,0.135,2.629,0.199L73.469,100.031z"/>
	<polygon fill="#33CCFF" points="73.469,107.985 73.469,105.156 26.892,151.734 29.72,151.734 	"/>
	<path fill="#33CCFF" d="M73.466,115.94c0-0.249,0.002-0.494,0.002-0.747v-2.084l-38.624,38.624h2.828L73.466,115.94z"/>
	<path fill="#33CCFF" d="M73.374,123.986c0.019-0.951,0.036-1.91,0.047-2.876l-30.623,30.623h2.828L73.374,123.986z"/>
	<path fill="#33CCFF" d="M73.064,132.241c0.058-0.968,0.106-1.965,0.149-2.977l-22.454,22.453c1.057-0.072,2.072-0.146,3.053-0.225
		L73.064,132.241z"/>
	<path fill="#33CCFF" d="M72.088,141.17c0.188-1.028,0.351-2.136,0.491-3.319L59.51,150.92c1.209-0.154,2.323-0.326,3.346-0.518
		L72.088,141.17z"/>
</g>
</svg>
