<?xml version="1.0" encoding="utf-8"?>
<!-- Generator: Adobe Illustrator 16.0.3, SVG Export Plug-In . SVG Version: 6.00 Build 0)  -->
<!DOCTYPE svg PUBLIC "-//W3C//DTD SVG 1.1//EN" "http://www.w3.org/Graphics/SVG/1.1/DTD/svg11.dtd">
<svg version="1.1" id="Layer_1" xmlns="http://www.w3.org/2000/svg" xmlns:xlink="http://www.w3.org/1999/xlink" x="0px" y="0px"
	 width="392.5px" height="166.931px" viewBox="0 0 392.5 166.931" enable-background="new 0 0 392.5 166.931" xml:space="preserve">
<g>
	<g>
		<g>
			<path fill="#FFFFFF" d="M115.331,146.427c-11.488,13.865-24.957,20.402-41.794,20.402c-30.9,0-51.896-21.59-51.896-53.283
				c0-32.484,22.383-55.66,54.273-55.66c25.353,0,40.209,14.461,40.209,40.209c0,3.566-0.793,3.963-6.141,3.963H44.817
				c-0.596,2.178-0.793,5.348-0.793,8.914c0,27.533,13.865,45.557,35.059,45.557c10.896,0,20.205-4.754,30.109-15.648
				L115.331,146.427z M82.648,92.946c10.696,0,11.884-0.793,11.884-5.547c0-12.082-8.517-20.006-21.788-20.006
				c-14.063,0-23.176,8.715-26.542,25.553H82.648z"/>
		</g>
		<g>
			<path fill="#FFFFFF" d="M160.298,133.751c0,21.391,1.188,23.373,16.441,24.361v6.736h-51.898v-6.736
				c14.66-0.988,16.64-3.168,16.64-22.977v-26.344c0-15.451-0.396-25.354-1.188-28.721c-1.584-7.131-4.358-8.32-15.846-8.32v-6.338
				l31.692-7.527l2.376,19.609h0.793c9.904-12.279,23.969-19.609,39.616-19.609c12.083,0,22.78,4.357,28.128,11.094
				c4.555,6.139,6.139,14.855,6.139,31.691v33.08c0,21.391,1.584,23.373,16.045,24.361v6.736h-51.303v-6.736
				c14.856-0.791,16.441-3.367,16.441-22.977v-26.146c0-29.908-6.141-40.406-22.582-40.406c-11.686,0-22.381,6.734-27.928,17.43
				c-2.773,5.35-3.566,8.717-3.566,21.193V133.751z"/>
		</g>
		<g>
			<path fill="#FFFFFF" d="M337.978,148.208h-0.793c-9.508,13.273-19.609,18.621-34.068,18.621c-29.91,0-51.501-22.779-51.501-54.67
				c0-31.295,21.788-54.273,51.501-54.273c12.479,0,22.185,4.16,31.296,13.271V50.954c0-14.857-0.396-25.553-1.188-29.117
				c-1.388-5.746-6.734-7.924-20.402-7.924V7.97l40.607-7.525v114.291c0,18.223,0.196,30.107,1.385,35.059
				c1.585,6.34,3.764,8.121,16.045,8.121v6.736l-32.881,2.178V148.208z M334.017,104.435c0-13.865-1.189-19.611-5.35-24.957
				c-5.942-7.924-16.439-12.084-25.551-12.084c-18.817,0-29.117,17.035-29.117,43.775c0,27.93,10.102,46.152,29.117,46.152
				c9.311,0,20.599-4.557,25.75-12.479c3.764-5.744,5.15-13.074,5.15-27.336V104.435z"/>
		</g>
	</g>
	<g>
		<g>
			<rect x="384.5" y="164.931" fill="#BCBEC0" width="8" height="2"/>
		</g>
		<g>
			<path fill="#BCBEC0" d="M368.131,166.931h-16.369v-2h16.369V166.931z M335.392,166.931h-16.369v-2h16.369V166.931z
				 M302.652,166.931h-16.369v-2h16.369V166.931z M269.913,166.931h-16.369v-2h16.369V166.931z M237.175,166.931h-16.37v-2h16.37
				V166.931z M204.436,166.931h-16.37v-2h16.37V166.931z M171.696,166.931h-16.37v-2h16.37V166.931z M138.957,166.931h-16.369v-2
				h16.369V166.931z M106.218,166.931H89.849v-2h16.369V166.931z M73.479,166.931H57.109v-2h16.369V166.931z M40.739,166.931H24.37
				v-2h16.369V166.931z"/>
		</g>
		<g>
			<rect y="164.931" fill="#BCBEC0" width="8" height="2"/>
		</g>
	</g>
</g>
</svg>
