<?xml version="1.0" encoding="utf-8"?>
<!-- Generator: Adobe Illustrator 16.0.3, SVG Export Plug-In . SVG Version: 6.00 Build 0)  -->
<!DOCTYPE svg PUBLIC "-//W3C//DTD SVG 1.1//EN" "http://www.w3.org/Graphics/SVG/1.1/DTD/svg11.dtd">
<svg version="1.1" id="Layer_1" xmlns="http://www.w3.org/2000/svg" xmlns:xlink="http://www.w3.org/1999/xlink" x="0px" y="0px"
	 width="392.5px" height="165.836px" viewBox="0 0 392.5 165.836" enable-background="new 0 0 392.5 165.836" xml:space="preserve">
<g>
	<polygon fill="#33CCFF" points="0,2.896 0,5.724 6.098,-0.374 3.27,-0.374 	"/>
	<polygon fill="#33CCFF" points="14.051,-0.374 11.223,-0.374 0,10.849 0,13.677 	"/>
	<polygon fill="#33CCFF" points="22.006,-0.374 19.178,-0.374 0,18.804 0,21.632 	"/>
	<polygon fill="#33CCFF" points="29.959,-0.374 27.131,-0.374 0,26.757 0,29.585 	"/>
	<polygon fill="#33CCFF" points="37.912,-0.374 35.084,-0.374 0,34.71 0,37.538 	"/>
	<polygon fill="#33CCFF" points="45.865,-0.374 43.037,-0.374 0,42.663 0,45.491 	"/>
	<polygon fill="#33CCFF" points="53.817,-0.374 50.989,-0.374 0,50.616 0,53.444 	"/>
	<polygon fill="#33CCFF" points="61.771,-0.374 58.943,-0.374 0,58.569 0,61.397 	"/>
	<polygon fill="#33CCFF" points="69.725,-0.374 66.896,-0.374 0,66.522 0,69.351 	"/>
	<polygon fill="#33CCFF" points="77.678,-0.374 74.85,-0.374 0,74.476 0,77.304 	"/>
	<polygon fill="#33CCFF" points="85.633,-0.374 82.805,-0.374 0,82.431 0,85.259 	"/>
	<polygon fill="#33CCFF" points="93.576,-0.374 90.748,-0.374 0,90.374 0,93.202 	"/>
	<polygon fill="#33CCFF" points="101.529,-0.374 98.701,-0.374 0,98.327 0,101.155 	"/>
	<polygon fill="#33CCFF" points="109.49,-0.374 106.662,-0.374 0,106.288 0,109.116 	"/>
	<polygon fill="#33CCFF" points="117.443,-0.374 114.615,-0.374 0,114.241 0,117.069 	"/>
	<polygon fill="#33CCFF" points="125.396,-0.374 122.568,-0.374 0,122.194 0,125.022 	"/>
	<polygon fill="#33CCFF" points="133.35,-0.374 130.521,-0.374 0,130.147 0,132.976 	"/>
	<polygon fill="#33CCFF" points="141.303,-0.374 138.475,-0.374 0,138.101 0,140.929 	"/>
	<polygon fill="#33CCFF" points="149.256,-0.374 146.428,-0.374 0,146.054 0,148.882 	"/>
	<polygon fill="#33CCFF" points="157.211,-0.374 154.383,-0.374 0,154.007 0,156.835 	"/>
	<polygon fill="#33CCFF" points="165.164,-0.374 162.336,-0.374 0,161.962 0,164.79 	"/>
	<polygon fill="#33CCFF" points="173.117,-0.374 170.289,-0.374 4.08,165.835 6.908,165.835 	"/>
	<polygon fill="#33CCFF" points="181.069,-0.374 178.241,-0.374 12.032,165.835 14.86,165.835 	"/>
	<polygon fill="#33CCFF" points="189.023,-0.374 186.195,-0.374 19.986,165.835 22.814,165.835 	"/>
	<polygon fill="#33CCFF" points="196.968,-0.374 194.14,-0.374 27.932,165.835 30.76,165.835 	"/>
	<polygon fill="#33CCFF" points="204.921,-0.374 202.093,-0.374 35.884,165.835 38.712,165.835 	"/>
	<polygon fill="#33CCFF" points="212.776,-0.374 209.948,-0.374 43.74,165.835 46.568,165.835 	"/>
	<polygon fill="#33CCFF" points="220.73,-0.374 217.902,-0.374 51.693,165.835 54.521,165.835 	"/>
	<polygon fill="#33CCFF" points="228.684,-0.374 225.855,-0.374 59.646,165.835 62.475,165.835 	"/>
	<polygon fill="#33CCFF" points="236.637,-0.374 233.809,-0.374 67.6,165.835 70.428,165.835 	"/>
	<polygon fill="#33CCFF" points="244.59,-0.374 241.762,-0.374 75.553,165.835 78.381,165.835 	"/>
	<polygon fill="#33CCFF" points="252.543,-0.374 249.715,-0.374 83.506,165.835 86.334,165.835 	"/>
	<polygon fill="#33CCFF" points="260.496,-0.374 257.668,-0.374 91.459,165.835 94.287,165.835 	"/>
	<polygon fill="#33CCFF" points="268.45,-0.374 265.622,-0.374 99.412,165.835 102.24,165.835 	"/>
	<polygon fill="#33CCFF" points="276.403,-0.374 273.575,-0.374 107.366,165.835 110.194,165.835 	"/>
	<polygon fill="#33CCFF" points="284.357,-0.374 281.529,-0.374 115.32,165.835 118.148,165.835 	"/>
	<polygon fill="#33CCFF" points="292.311,-0.374 289.482,-0.374 123.273,165.835 126.102,165.835 	"/>
	<polygon fill="#33CCFF" points="300.255,-0.374 297.427,-0.374 131.217,165.835 134.045,165.835 	"/>
	<polygon fill="#33CCFF" points="308.209,-0.374 305.381,-0.374 139.172,165.835 142,165.835 	"/>
	<polygon fill="#33CCFF" points="316.168,-0.374 313.34,-0.374 147.131,165.835 149.959,165.835 	"/>
	<polygon fill="#33CCFF" points="324.121,-0.374 321.293,-0.374 155.084,165.835 157.912,165.835 	"/>
	<polygon fill="#33CCFF" points="332.074,-0.374 329.246,-0.374 163.037,165.835 165.865,165.835 	"/>
	<polygon fill="#33CCFF" points="340.028,-0.374 337.2,-0.374 170.991,165.835 173.819,165.835 	"/>
	<polygon fill="#33CCFF" points="347.982,-0.374 345.154,-0.374 178.945,165.835 181.773,165.835 	"/>
	<polygon fill="#33CCFF" points="355.935,-0.374 353.106,-0.374 186.897,165.835 189.726,165.835 	"/>
	<polygon fill="#33CCFF" points="363.889,-0.374 361.061,-0.374 194.852,165.835 197.68,165.835 	"/>
	<polygon fill="#33CCFF" points="371.842,-0.374 369.014,-0.374 202.805,165.835 205.633,165.835 	"/>
	<polygon fill="#33CCFF" points="379.795,-0.374 376.967,-0.374 210.758,165.835 213.586,165.835 	"/>
	<polygon fill="#33CCFF" points="387.748,-0.374 384.92,-0.374 218.711,165.835 221.539,165.835 	"/>
	<polygon fill="#33CCFF" points="392.5,2.827 392.5,-0.001 226.664,165.835 229.492,165.835 	"/>
	<polygon fill="#33CCFF" points="392.5,10.772 392.5,7.944 234.609,165.835 237.438,165.835 	"/>
	<polygon fill="#33CCFF" points="392.5,18.726 392.5,15.897 242.563,165.835 245.391,165.835 	"/>
	<polygon fill="#33CCFF" points="392.5,26.265 392.5,23.437 250.101,165.835 252.929,165.835 	"/>
	<polygon fill="#33CCFF" points="392.5,34.218 392.5,31.39 258.054,165.835 260.882,165.835 	"/>
	<polygon fill="#33CCFF" points="392.5,42.171 392.5,39.343 266.008,165.835 268.836,165.835 	"/>
	<polygon fill="#33CCFF" points="392.5,50.126 392.5,47.298 273.962,165.835 276.79,165.835 	"/>
	<polygon fill="#33CCFF" points="392.5,58.079 392.5,55.251 281.915,165.835 284.743,165.835 	"/>
	<polygon fill="#33CCFF" points="392.5,66.032 392.5,63.204 289.868,165.835 292.696,165.835 	"/>
	<polygon fill="#33CCFF" points="392.5,73.983 392.5,71.155 297.82,165.835 300.648,165.835 	"/>
	<polygon fill="#33CCFF" points="392.5,81.937 392.5,79.108 305.773,165.835 308.602,165.835 	"/>
	<polygon fill="#33CCFF" points="392.5,89.892 392.5,87.063 313.728,165.835 316.556,165.835 	"/>
	<polygon fill="#33CCFF" points="392.5,97.845 392.5,95.017 321.681,165.835 324.509,165.835 	"/>
	<polygon fill="#33CCFF" points="392.5,105.798 392.5,102.97 329.635,165.835 332.463,165.835 	"/>
	<polygon fill="#33CCFF" points="392.5,113.743 392.5,110.915 337.579,165.835 340.407,165.835 	"/>
	<polygon fill="#33CCFF" points="392.5,121.696 392.5,118.868 345.532,165.835 348.36,165.835 	"/>
	<polygon fill="#33CCFF" points="392.5,129.657 392.5,126.829 353.493,165.835 356.321,165.835 	"/>
	<polygon fill="#33CCFF" points="392.5,137.61 392.5,134.782 361.446,165.835 364.274,165.835 	"/>
	<polygon fill="#33CCFF" points="392.5,145.563 392.5,142.735 369.399,165.835 372.228,165.835 	"/>
	<polygon fill="#33CCFF" points="392.5,153.517 392.5,150.688 377.353,165.835 380.181,165.835 	"/>
	<polygon fill="#33CCFF" points="392.5,161.47 392.5,158.642 385.306,165.835 388.134,165.835 	"/>
</g>
</svg>
