<?xml version="1.0" encoding="utf-8"?>
<!-- Generator: Adobe Illustrator 16.0.3, SVG Export Plug-In . SVG Version: 6.00 Build 0)  -->
<!DOCTYPE svg PUBLIC "-//W3C//DTD SVG 1.1//EN" "http://www.w3.org/Graphics/SVG/1.1/DTD/svg11.dtd">
<svg version="1.1" id="Layer_1" xmlns="http://www.w3.org/2000/svg" xmlns:xlink="http://www.w3.org/1999/xlink" x="0px" y="0px"
	 width="392.5px" height="166.613px" viewBox="0 0 392.5 166.613" enable-background="new 0 0 392.5 166.613" xml:space="preserve">
<g>
	<g>
		<g>
			<path fill="#FFFFFF" d="M21.642,71.902v-7.33c14.064-8.318,21.393-15.647,25.553-26.938h5.743v24.958h26.542v9.311H52.938v60.215
				c0,18.621,3.168,24.561,13.667,24.561c6.536,0,10.895-2.574,15.252-9.111l4.953,3.764c-3.766,9.705-13.073,15.055-26.543,15.055
				c-17.432,0-26.74-8.715-26.74-24.166V71.902H21.642z"/>
		</g>
		<g>
			<path fill="#FFFFFF" d="M129.793,132.908c0,21.789,1.188,23.572,16.243,24.563v6.934H93.347v-6.934
				c15.25-0.99,17.035-3.168,17.035-23.176V51.301c0-15.45-0.397-24.363-1.388-29.116c-1.188-6.339-4.159-7.924-16.044-7.924V7.525
				L129.397,0v75.467h0.792c8.121-10.498,24.362-18.024,38.822-18.024c12.083,0,22.978,4.556,28.523,11.687
				c4.556,5.942,6.538,15.252,6.538,32.088v31.691c0,21.592,1.188,23.572,16.24,24.563v6.934h-52.488v-6.934
				c15.052-0.793,16.637-3.168,16.637-23.176v-24.957c0-29.711-6.141-41.001-22.383-41.001c-12.28,0-23.176,6.734-28.92,17.827
				c-2.773,5.545-3.366,9.309-3.366,21.391V132.908z"/>
		</g>
		<g>
			<path fill="#FFFFFF" d="M316.384,145.982c-11.488,13.865-24.959,20.402-41.795,20.402c-30.899,0-51.896-21.59-51.896-53.283
				c0-32.484,22.384-55.659,54.274-55.659c25.353,0,40.209,14.46,40.209,40.21c0,3.564-0.792,3.961-6.141,3.961h-65.167
				c-0.595,2.18-0.792,5.348-0.792,8.914c0,27.531,13.863,45.559,35.06,45.559c10.893,0,20.203-4.756,30.106-15.648L316.384,145.982
				z M283.7,92.502c10.697,0,11.885-0.793,11.885-5.547c0-12.082-8.518-20.005-21.789-20.005c-14.063,0-23.175,8.714-26.543,25.552
				H283.7z"/>
		</g>
	</g>
	<g>
		<g>
			<rect x="384.5" y="164.613" fill="#BCBEC0" width="8" height="2"/>
		</g>
		<g>
			<path fill="#BCBEC0" d="M368.131,166.613h-16.369v-2h16.369V166.613z M335.392,166.613h-16.369v-2h16.369V166.613z
				 M302.652,166.613h-16.369v-2h16.369V166.613z M269.913,166.613h-16.369v-2h16.369V166.613z M237.175,166.613h-16.37v-2h16.37
				V166.613z M204.436,166.613h-16.37v-2h16.37V166.613z M171.696,166.613h-16.37v-2h16.37V166.613z M138.957,166.613h-16.369v-2
				h16.369V166.613z M106.218,166.613H89.849v-2h16.369V166.613z M73.479,166.613H57.109v-2h16.369V166.613z M40.739,166.613H24.37
				v-2h16.369V166.613z"/>
		</g>
		<g>
			<rect y="164.613" fill="#BCBEC0" width="8" height="2"/>
		</g>
	</g>
</g>
</svg>
